<svg width="65" height="122" viewBox="0 0 65 122" fill="none" xmlns="http://www.w3.org/2000/svg">
<path d="M-30.6534 96.7098C-30.4434 100.64 -30.0034 104.37 -28.4134 107.84C-25.8334 113.48 -21.7234 117.61 -15.6234 118.94C-10.3234 120.1 -5.05341 121.94 0.49659 121.54C3.27 121.308 6.02354 120.88 8.73658 120.26C14.8866 118.86 17.8466 114.6 18.7366 108.62C18.8066 108.18 18.8966 107.74 18.9966 107.3C18.9966 107.24 19.1266 107.19 19.4066 106.96C23.4066 110.96 28.6166 112.8 33.9966 114.18C39.0827 115.523 44.4621 115.236 49.3766 113.36C56.9166 110.52 60.2166 104.56 60.9666 96.9398C61.1211 95.2423 61.5784 93.5862 62.3166 92.0498C68.1566 80.0499 63.1466 67.9198 50.5266 63.5499C44.3466 61.3699 37.9166 60.6898 31.4366 60.3198C30.0653 60.3161 28.6957 60.2226 27.3366 60.0398C32.2784 57.0348 36.4983 52.9788 39.6966 48.1599C46.3266 38.5798 47.7666 25.3399 40.7966 16.3298C39.8487 15.0036 38.69 13.8416 37.3666 12.8898C33.0866 10.0198 29.0166 6.88985 24.9866 3.67985C19.0466 -1.02015 12.3566 -0.320145 5.65659 1.52985C1.99564 2.45745 -1.4041 4.21153 -4.28167 6.65747C-7.15924 9.10341 -9.43814 12.1762 -10.9434 15.6398C-14.5226 11.3574 -19.5313 8.51558 -25.0434 7.63985C-27.7587 7.11175 -30.5647 7.30069 -33.1846 8.18803C-35.8046 9.07538 -38.1479 10.6305 -39.9834 12.6999C-43.7934 16.6999 -47.3834 20.8598 -50.8534 25.1398C-55.3034 30.6298 -55.0234 38.3799 -50.2434 44.5499C-58.9034 46.8298 -62.6934 53.3198 -64.4534 61.2799C-65.4006 65.4417 -65.1122 69.7896 -63.6234 73.7898C-61.3634 79.7898 -58.6234 85.5698 -54.5134 90.5698C-52.4403 93.2581 -49.7556 95.4126 -46.6822 96.8545C-43.6089 98.2964 -40.2359 98.9839 -36.8434 98.8598C-34.5634 98.7899 -32.7334 97.6898 -30.6534 96.7098ZM-2.0834 59.7099C-1.7034 53.2699 -2.2434 47.0499 -2.0834 40.8198C-1.9234 34.5898 -3.97342 28.7598 -6.72342 23.2699C-8.19342 20.3298 -7.62341 17.9298 -6.09341 15.4598C-2.39341 9.45985 3.1666 6.32984 9.90659 4.87984C15.3566 3.69984 20.4266 4.08984 24.8066 8.05984C27.8286 10.6372 31.03 12.9965 34.3866 15.1199C36.3788 16.4596 38.046 18.2281 39.2658 20.2959C40.4857 22.3637 41.2274 24.6782 41.4366 27.0698C42.6166 37.6798 38.1866 46.2898 30.5766 53.2198C24.7766 58.5098 17.5766 60.9999 9.7266 61.7598C9.8366 60.7598 9.9866 59.8298 9.18659 59.1798C7.29659 57.6698 5.5566 59.5898 3.4766 59.6498C3.9066 59.0698 4.1566 58.6498 4.4766 58.3498C7.26986 54.6975 9.67295 50.7627 11.6466 46.6098C12.0866 45.7398 12.4066 44.8699 11.4066 44.2399C10.4066 43.6099 9.7666 44.3598 9.2866 44.9398C8.4041 46.0776 7.58935 47.2663 6.8466 48.4998C4.29187 52.5662 1.29716 56.339 -2.0834 59.7498V59.7099ZM8.5666 65.9298C9.2066 65.1598 9.9866 65.3298 10.6566 65.1298C14.6566 63.9198 18.6566 65.0398 22.6566 64.5299C31.5156 63.4225 40.5089 64.2169 49.0366 66.8598C58.9666 69.8598 64.0366 78.8598 60.7966 88.0598C59.405 91.8188 58.2822 95.6718 57.4366 99.5898C56.2066 105.83 52.2266 109.44 46.1166 110.8C38.4366 112.52 31.3066 110.51 24.5266 107.17C23.1429 106.468 21.9232 105.482 20.9477 104.275C19.9723 103.069 19.263 101.67 18.8666 100.17C16.2666 90.1698 10.1066 82.4198 3.5066 75.0698C1.0666 72.3598 0.30658 69.0698 -2.04342 66.4498C-0.533424 66.0198 0.266586 66.7399 1.11658 67.1599C4.61975 68.8171 7.99857 70.7254 11.2266 72.8699C12.2266 73.5598 13.4366 74.0499 14.3866 72.8699C15.3366 71.6898 14.4866 70.6599 13.5766 69.8699C11.9566 68.5899 10.3166 67.3698 8.5666 65.9298ZM-6.87341 63.8498C-15.0534 65.0198 -18.8234 67.6498 -23.0534 75.0998C-24.5716 77.6548 -25.8152 80.3632 -26.7634 83.1798C-27.6747 85.983 -29.1827 88.5553 -31.1834 90.7198C-34.8334 94.8098 -36.9134 95.2698 -42.3734 94.1098C-53.6634 91.7298 -63.8534 71.2099 -60.7534 61.4398C-58.5634 54.5698 -55.3734 49.0798 -47.7534 47.5098C-44.4234 46.8198 -41.1534 47.5098 -37.8734 48.1199C-31.1234 49.3099 -24.8734 51.8798 -18.4234 54.1698C-13.9781 55.6807 -10.0737 58.4622 -7.19342 62.1698C-6.97404 62.3831 -6.82562 62.6588 -6.76837 62.9594C-6.71112 63.2599 -6.7478 63.5708 -6.87341 63.8498ZM14.9466 105.55C14.9466 106.27 14.9466 107 14.9466 107.71C14.5966 113.9 11.3366 116.71 5.1966 117.33C0.218391 117.707 -4.7865 117.523 -9.72342 116.78C-21.5034 115.28 -29.6434 104.37 -26.2134 93.3698C-24.2048 86.5602 -21.2958 80.0493 -17.5634 74.0098C-15.9109 71.1866 -13.3524 69.0052 -10.3034 67.8199C-6.6334 66.4898 -4.08343 67.6798 -2.95343 71.3198C-2.63406 72.796 -1.98445 74.1807 -1.0534 75.3699C4.62659 81.2898 8.44658 88.4498 12.5166 95.4398C14.3035 98.4974 15.1488 102.014 14.9466 105.55ZM-5.9934 59.2898C-7.4402 57.3548 -9.11946 55.605 -10.9934 54.0798C-12.7945 52.7429 -14.7824 51.6781 -16.8934 50.9198C-25.2134 47.2898 -33.6534 43.9198 -42.8934 43.5798C-44.258 43.615 -45.5964 43.2017 -46.7036 42.4034C-47.8109 41.605 -48.6257 40.4657 -49.0234 39.1599C-50.4334 35.0699 -50.3434 30.9298 -47.3834 27.4398C-43.9534 23.4398 -40.3334 19.4398 -36.7434 15.5598C-34.9402 13.392 -32.4159 11.947 -29.6334 11.4898C-26.5975 10.9956 -23.4836 11.371 -20.6522 12.5726C-17.8207 13.7742 -15.3873 15.7529 -13.6334 18.2798C-10.0487 23.3362 -7.54026 29.0747 -6.26342 35.1398C-5.27042 39.5241 -5.03367 44.0458 -5.56341 48.5098C-5.94341 51.8699 -5.2234 55.2898 -5.9934 59.2898Z" fill="#7C5F50"/>
</svg>
