<svg width="459" height="492" viewBox="0 0 459 492" fill="none" xmlns="http://www.w3.org/2000/svg">
<path d="M111.237 181.251C110.523 178.388 108.877 175.844 106.557 174.021C104.637 172.691 102.227 174.321 102.487 176.781C102.729 179.499 104.029 182.013 106.107 183.781C106.589 184.208 107.189 184.479 107.827 184.559C108.466 184.639 109.114 184.525 109.687 184.231C110.777 183.691 111.077 182.631 111.237 181.251Z" fill="#DDC0B6"/>
<path d="M62.0669 245.691C62.2911 247.58 63.0084 249.377 64.1469 250.901C64.4963 251.405 65.0076 251.775 65.5959 251.948C66.1842 252.122 66.8143 252.09 67.3816 251.856C67.9489 251.623 68.4193 251.202 68.715 250.665C69.0106 250.127 69.1136 249.505 69.0069 248.901C68.8686 246.993 68.1458 245.174 66.9369 243.691C66.6143 243.176 66.1194 242.794 65.5406 242.61C64.9617 242.427 64.3367 242.456 63.7769 242.691C62.4969 243.241 62.1869 244.381 62.0669 245.691Z" fill="#DDC0B6"/>
<path d="M142.028 117.022C142.028 114.672 139.548 111.812 137.518 111.892C135.488 111.972 134.828 113.182 134.728 114.892C134.578 117.212 137.108 120.092 139.218 120.022C141.068 119.942 141.838 118.692 142.028 117.022Z" fill="#DDC0B6"/>
<path d="M162.558 96.1915C162.658 93.6115 160.898 91.1915 158.868 91.1115C158.447 91.1016 158.029 91.1804 157.64 91.3429C157.252 91.5053 156.902 91.7476 156.613 92.0542C156.325 92.3607 156.104 92.7246 155.965 93.1221C155.826 93.5197 155.773 93.942 155.808 94.3615C155.808 96.6715 157.908 99.4415 159.808 99.5915C161.558 99.6915 162.458 98.5715 162.558 96.1915Z" fill="#DDC0B6"/>
<path d="M189.477 221.572C189.407 219.132 186.877 216.082 184.897 216.162C184.512 216.152 184.129 216.225 183.775 216.376C183.421 216.527 183.103 216.753 182.843 217.037C182.583 217.321 182.387 217.658 182.269 218.025C182.151 218.392 182.113 218.779 182.157 219.162C182.157 221.522 185.157 224.592 187.157 224.442C187.499 224.408 187.831 224.307 188.133 224.144C188.435 223.981 188.702 223.76 188.918 223.493C189.134 223.226 189.294 222.918 189.39 222.588C189.486 222.259 189.516 221.913 189.477 221.572Z" fill="#DDC0B6"/>
<path d="M101.827 112.341C101.844 110.901 101.433 109.488 100.647 108.281C100.369 107.647 99.8694 107.136 99.2418 106.844C98.6143 106.551 97.9017 106.497 97.2372 106.691C95.6372 107.171 95.3872 108.501 95.4572 109.931C95.5635 111.37 96.1158 112.741 97.0372 113.851C97.8372 114.851 98.7472 115.901 100.207 115.431C101.667 114.961 101.787 113.691 101.827 112.341Z" fill="#DDC0B6"/>
<path d="M77.1268 105.411C77.121 103.455 76.411 101.566 75.1268 100.091C74.7856 99.644 74.3084 99.3206 73.7672 99.1691C73.226 99.0176 72.6503 99.0462 72.1268 99.2506C71.6017 99.4588 71.1652 99.8428 70.8916 100.337C70.6181 100.831 70.5245 101.405 70.6268 101.961C70.6729 102.994 70.9703 104 71.493 104.892C72.0158 105.784 72.7482 106.535 73.6268 107.081C75.4768 108.261 77.1168 107.271 77.1268 105.411Z" fill="#DDC0B6"/>
<path d="M161.327 279.402C161.427 281.722 162.797 283.772 164.707 283.582C166.617 283.392 167.327 281.942 167.297 280.172C167.227 277.172 165.597 274.862 163.647 275.172C161.697 275.482 161.177 276.862 161.327 279.402Z" fill="#DDC0B6"/>
<path d="M184.697 259.261C184.697 256.261 182.267 253.161 180.237 253.451C179.917 253.481 179.606 253.576 179.324 253.732C179.042 253.888 178.795 254.1 178.599 254.355C178.403 254.61 178.262 254.903 178.184 255.216C178.106 255.528 178.094 255.853 178.147 256.171C178.227 258.831 180.457 261.621 182.557 261.631C184.327 261.641 184.647 260.501 184.697 259.261Z" fill="#DDC0B6"/>
<path d="M103.817 267.881C103.817 270.391 105.427 272.551 107.277 272.611C109.127 272.671 109.747 271.611 109.877 270.111C110.047 268.221 107.707 265.001 106.167 265.111C104.307 265.131 104.077 266.691 103.817 267.881Z" fill="#DDC0B6"/>
<path d="M99.6076 219.491C99.6076 216.791 98.4576 215.051 96.7176 215.141C94.7176 215.251 94.2676 216.711 94.2476 218.341C94.2476 220.741 95.8976 223.341 97.3876 223.091C99.4776 222.761 99.4176 220.941 99.6076 219.491Z" fill="#DDC0B6"/>
<path d="M81.0972 149.052C81.0972 146.922 79.1972 144.592 77.4672 144.622C75.7372 144.652 74.9172 145.722 74.9772 147.442C75.0572 149.542 76.9772 151.722 78.7372 151.762C79.0784 151.764 79.416 151.692 79.727 151.552C80.0379 151.411 80.3149 151.205 80.539 150.948C80.7631 150.691 80.9289 150.388 81.0253 150.061C81.1216 149.734 81.1461 149.389 81.0972 149.052V149.052Z" fill="#DDC0B6"/>
<path d="M168.038 152.881C168.045 151.355 167.522 149.874 166.558 148.691C166.288 148.341 165.914 148.087 165.489 147.967C165.064 147.846 164.611 147.865 164.198 148.021C163.768 148.136 163.394 148.401 163.142 148.767C162.891 149.134 162.78 149.579 162.828 150.021C162.812 151.377 163.158 152.713 163.828 153.891C164.478 155.051 165.298 156.101 166.828 155.651C168.358 155.201 167.908 153.931 168.038 152.881Z" fill="#DDC0B6"/>
<path d="M67.2873 182.692C67.2873 180.002 65.8073 177.692 64.1573 177.692C62.5073 177.692 62.1573 178.872 62.1573 180.132C62.0573 182.812 63.6373 185.342 65.3573 185.322C67.0773 185.302 67.2973 184.052 67.2873 182.692Z" fill="#DDC0B6"/>
<path d="M155.557 219.751C155.557 217.251 153.557 215.051 151.917 215.141C150.277 215.231 149.717 216.221 149.757 217.711C149.817 219.511 151.757 221.711 153.267 221.711C154.777 221.711 155.557 220.691 155.557 219.751Z" fill="#DDC0B6"/>
<path d="M130.197 226.932C130.057 225.232 129.447 223.782 127.447 223.742C125.447 223.702 124.777 225.212 124.747 226.932C124.717 228.652 125.597 229.932 127.427 229.932C129.257 229.932 130.107 228.692 130.197 226.932Z" fill="#DDC0B6"/>
<path d="M137.418 177.001C137.418 174.691 135.858 172.821 134.228 172.921C132.598 173.021 132.128 174.161 132.118 175.561C132.118 177.561 133.668 179.491 135.308 179.361C135.608 179.365 135.905 179.304 136.179 179.183C136.454 179.063 136.699 178.884 136.899 178.661C137.099 178.437 137.249 178.173 137.338 177.887C137.428 177.601 137.455 177.299 137.418 177.001V177.001Z" fill="#DDC0B6"/>
<path d="M185.557 186.26C185.277 184.6 184.557 183.26 182.557 183.14C180.557 183.02 179.927 184.26 179.937 185.86C179.937 187.63 180.817 188.97 182.787 189.02C184.557 189.06 185.367 187.96 185.557 186.26Z" fill="#DDC0B6"/>
<path d="M51.4571 131.102C49.9271 131.022 49.2671 131.932 49.2271 133.282C49.3278 134.234 49.7503 135.124 50.4248 135.804C51.0993 136.484 51.9855 136.913 52.937 137.022C53.2006 137.046 53.4663 137.01 53.7138 136.917C53.9614 136.823 54.1842 136.674 54.3655 136.481C54.5468 136.288 54.6817 136.057 54.76 135.804C54.8382 135.551 54.8577 135.283 54.8171 135.022C54.8571 133.152 53.1771 131.142 51.4571 131.102Z" fill="#DDC0B6"/>
<path d="M134.088 144.582C136.608 144.582 136.958 143.452 136.908 142.002C136.838 140.002 135.508 138.272 134.048 138.562C133.726 138.595 133.416 138.697 133.138 138.861C132.859 139.025 132.62 139.246 132.435 139.511C132.25 139.776 132.124 140.077 132.066 140.395C132.007 140.713 132.018 141.039 132.098 141.352C132.358 142.972 132.788 144.502 134.088 144.582Z" fill="#DDC0B6"/>
<path d="M147.487 254.541C147.297 253.061 146.727 251.661 144.837 251.601C142.947 251.541 142.487 252.711 142.607 254.291C142.727 255.871 143.417 257.291 145.317 257.291C146.907 257.251 147.487 256.161 147.487 254.541Z" fill="#DDC0B6"/>
<path d="M199.727 151.361C199.74 152.109 200.017 152.829 200.509 153.392C201.001 153.956 201.677 154.327 202.417 154.441C203.837 154.661 204.497 153.561 204.477 152.161C204.477 150.381 203.017 148.491 201.647 148.571C200.277 148.651 199.667 149.431 199.727 151.361Z" fill="#DDC0B6"/>
<path d="M153.757 195.951C153.577 194.521 153.047 193.211 151.257 193.151C151.014 193.134 150.771 193.172 150.544 193.26C150.318 193.349 150.113 193.486 149.946 193.663C149.779 193.84 149.653 194.052 149.577 194.283C149.501 194.514 149.477 194.759 149.507 195.001C149.587 196.511 150.217 197.901 151.927 198.051C153.107 198.161 153.777 197.311 153.757 195.951Z" fill="#DDC0B6"/>
<path d="M160.858 168.561C161.008 169.691 161.348 170.911 163.018 170.941C164.228 170.941 164.688 170.181 164.678 169.081C164.709 168.762 164.676 168.44 164.58 168.134C164.484 167.828 164.327 167.545 164.119 167.301C163.911 167.058 163.655 166.858 163.368 166.716C163.081 166.573 162.768 166.49 162.448 166.471C161.158 166.331 160.908 167.311 160.858 168.561Z" fill="#DDC0B6"/>
<path d="M174.257 116.132C174.317 117.292 174.817 118.332 176.347 118.322C176.591 118.34 176.837 118.301 177.064 118.21C177.291 118.118 177.494 117.975 177.657 117.793C177.82 117.61 177.94 117.392 178.005 117.156C178.071 116.921 178.082 116.673 178.037 116.432C177.907 115.142 177.267 114.082 175.847 114.012C174.627 113.952 174.237 114.842 174.257 116.132Z" fill="#DDC0B6"/>
<path d="M188.477 116.13C188.187 115.01 187.907 113.86 186.477 113.81C186.257 113.773 186.03 113.79 185.817 113.86C185.604 113.93 185.412 114.051 185.257 114.213C185.102 114.375 184.989 114.573 184.928 114.788C184.867 115.004 184.86 115.231 184.907 115.45C185.007 116.65 185.497 117.64 186.907 117.74C187.997 117.83 188.397 117.12 188.477 116.13Z" fill="#DDC0B6"/>
<path d="M92.1276 224.281C97.4276 213.741 100.628 202.891 103.638 191.951C110.638 166.321 113.638 140.091 115.388 113.691C115.478 112.401 116.098 110.691 114.388 110.011C112.678 109.331 111.678 110.621 110.668 111.611C105.938 116.201 101.968 121.461 97.7576 126.511C88.2909 137.891 78.8909 149.328 69.5576 160.821C64.0123 167.81 58.9027 175.134 54.2576 182.751C48.7789 191.299 43.8683 200.198 39.5576 209.391C34.3148 221.178 31.2357 233.813 30.4676 246.691C29.9607 255.851 30.0643 265.035 30.7776 274.181C30.8876 275.921 31.7776 276.571 33.2876 275.791C48.6176 267.791 64.5876 260.791 76.6576 247.651C83.0433 240.748 88.2678 232.856 92.1276 224.281V224.281Z" fill="#969056"/>
<path d="M95.0873 159.832C95.1335 158.928 95.3758 158.044 95.7973 157.242C98.6873 150.572 101.617 143.912 104.507 137.242C105.317 135.372 106.067 133.472 106.807 131.572C106.947 131.115 107.048 130.647 107.107 130.172C107.161 129.967 107.134 129.749 107.031 129.563C106.929 129.377 106.759 129.237 106.557 129.172C106.446 129.124 106.326 129.1 106.205 129.1C106.084 129.101 105.965 129.126 105.854 129.175C105.743 129.224 105.644 129.295 105.562 129.384C105.48 129.473 105.417 129.578 105.377 129.692C104.737 131.062 104.037 132.392 103.477 133.792C100.477 141.502 97.0273 149.062 93.6773 156.642C93.5673 156.902 93.4173 157.132 93.0473 157.822C93.0473 156.002 93.0473 154.662 93.0473 153.322C93.0473 152.852 93.0473 152.322 92.3773 152.202C91.7073 152.082 91.3773 152.702 91.3773 153.202C91.1673 154.982 90.9973 156.762 90.9173 158.552C90.8141 162.037 89.9289 165.455 88.3273 168.552C86.5473 171.952 84.9873 175.462 83.2773 179.032C82.5673 178.442 82.8073 177.952 82.8273 177.542C83.0773 172.032 82.9873 166.542 82.8273 161.022C82.8259 160.664 82.7992 160.307 82.7473 159.952C82.6673 159.442 82.7473 158.752 81.9673 158.752C81.1873 158.752 81.1873 159.332 81.1573 159.912C81.0273 163.142 80.7973 166.362 80.7473 169.592C80.6473 175.272 80.4973 180.952 79.1273 186.512C78.6934 188.083 78.0187 189.578 77.1273 190.942C73.9773 196.152 71.6673 201.782 68.7573 207.122C65.1573 213.712 62.0473 220.572 58.5773 227.242C54.9073 234.242 51.0673 241.242 47.2773 248.242C46.9173 247.642 47.2173 247.122 47.2773 246.572C48.2873 239.773 48.9182 232.922 49.1673 226.052C49.1673 225.162 49.7573 223.602 48.4173 223.532C47.0773 223.462 47.3673 225.102 47.2673 226.022C46.4573 233.212 45.8373 240.412 44.6573 247.552C44.3078 249.915 43.8067 252.253 43.1573 254.552C42.3773 257.122 40.7373 259.232 39.3373 261.422C35.5103 267.554 31.3716 273.485 26.9373 279.192C20.9373 286.772 14.7973 294.292 7.15729 300.382C6.57729 300.842 5.91729 301.382 6.42729 302.162C6.93729 302.942 7.84729 302.842 8.64729 302.382C11.3817 300.643 13.862 298.532 16.0173 296.112C23.5637 288.251 30.366 279.708 36.3373 270.592C40.9812 263.827 45.2574 256.817 49.1473 249.592C52.2773 243.542 56.9473 238.902 62.3573 234.972C70.2573 229.242 77.7373 222.972 85.1073 216.632C85.7411 216.092 86.3421 215.514 86.9073 214.902C86.9882 214.831 87.0529 214.743 87.0973 214.645C87.1417 214.547 87.1646 214.44 87.1646 214.332C87.1646 214.224 87.1417 214.118 87.0973 214.019C87.0529 213.921 86.9882 213.834 86.9073 213.762C86.7708 213.637 86.5924 213.568 86.4073 213.568C86.2222 213.568 86.0438 213.637 85.9073 213.762C85.4273 214.122 84.9573 214.492 84.4973 214.882C76.6727 221.756 68.4985 228.221 60.0073 234.252C58.6373 235.202 57.3873 236.312 56.0773 237.352C61.3073 227.082 66.4873 216.822 71.7673 206.612C73.1296 204.292 74.8548 202.206 76.8773 200.432C81.4173 196.002 86.5573 192.262 91.1873 187.942C91.8773 187.292 93.3473 186.482 92.6373 185.622C91.6373 184.462 90.9273 186.122 90.2673 186.622C86.0773 189.992 81.9673 193.482 77.8173 196.912C77.4373 197.232 77.1373 197.722 76.3673 197.782C77.6473 195.102 78.7373 192.452 80.1373 189.972C83.5673 183.972 86.4773 177.672 89.3073 171.362C91.4373 166.661 94.5188 162.452 98.3573 159.002C98.6522 158.795 98.915 158.546 99.1373 158.262C99.5773 157.532 101.257 157.082 100.317 156.102C99.5573 155.332 98.6873 156.632 97.9873 157.192C96.9973 158.022 96.1073 158.902 95.0873 159.832Z" fill="#7C5F50"/>
<path d="M50.0172 218.431C50.2645 216.74 50.2645 215.022 50.0172 213.331C50.0043 213.116 49.9084 212.915 49.7498 212.769C49.5912 212.624 49.3823 212.546 49.1672 212.551C49.0466 212.544 48.9259 212.562 48.8127 212.604C48.6994 212.646 48.5959 212.71 48.5087 212.794C48.4214 212.877 48.3523 212.978 48.3056 213.089C48.2589 213.201 48.2356 213.32 48.2372 213.441C48.1472 215.161 48.0372 216.881 47.9772 218.601C47.9737 218.839 48.0554 219.071 48.2076 219.254C48.3597 219.438 48.5724 219.561 48.8072 219.601C49.4372 219.691 49.6872 219.281 50.0172 218.431Z" fill="#7C5F50"/>
<path d="M105.557 152.691C105.837 152.111 105.997 151.691 105.627 151.341C105.457 151.166 105.229 151.06 104.986 151.041C104.743 151.023 104.501 151.094 104.307 151.241C103.108 152.223 102.031 153.344 101.097 154.581C100.97 154.716 100.899 154.895 100.899 155.081C100.899 155.267 100.97 155.446 101.097 155.581C101.211 155.732 101.379 155.833 101.566 155.861C101.753 155.889 101.944 155.843 102.097 155.731C103.397 154.898 104.564 153.873 105.557 152.691V152.691Z" fill="#7C5F50"/>
<path d="M97.7276 181.281C98.2576 180.471 98.2976 180.061 97.9476 179.721C97.5976 179.381 97.1476 179.531 96.8576 179.861C95.7476 181.091 94.6576 182.331 93.5976 183.601C93.4649 183.742 93.3936 183.929 93.3992 184.123C93.4049 184.316 93.487 184.499 93.6276 184.631C93.7681 184.764 93.9556 184.835 94.1488 184.83C94.3419 184.824 94.5249 184.742 94.6576 184.601C95.7976 183.351 96.9276 182.131 97.7276 181.281Z" fill="#7C5F50"/>
<path d="M92.7374 146.461C92.4786 146.543 92.2417 146.683 92.0445 146.87C91.8473 147.056 91.6948 147.285 91.5986 147.539C91.5025 147.793 91.465 148.066 91.489 148.336C91.513 148.607 91.5979 148.868 91.7374 149.101C91.7758 149.201 91.8376 149.291 91.9177 149.362C91.9977 149.433 92.0937 149.484 92.1975 149.511C92.3014 149.537 92.41 149.538 92.5144 149.514C92.6188 149.49 92.7158 149.441 92.7974 149.371C93.6274 148.491 92.9874 147.571 92.7374 146.461Z" fill="#7C5F50"/>
<path d="M348.828 351.081C340.332 354.849 332.123 359.234 324.268 364.201C311.028 372.531 298.268 381.521 285.268 390.201C274.678 397.301 264.688 405.171 254.558 412.801C242.748 421.681 230.468 429.901 218.388 438.401C209.108 444.931 200.168 451.911 190.968 458.551C182.918 464.453 174.475 469.798 165.698 474.551C164.098 475.401 162.078 476.071 162.278 478.711C162.448 480.901 163.538 481.871 165.718 481.221C168.412 480.252 170.973 478.945 173.338 477.331C186.228 469.611 197.668 459.921 209.228 450.431C223.398 438.791 238.128 427.911 252.928 417.101C262.438 410.161 271.678 402.841 281.388 396.161C289.208 390.771 297.148 385.561 304.968 380.161C312.788 374.761 320.618 369.691 328.558 364.571C333.418 361.481 338.488 358.731 343.558 356.061C347.558 353.961 351.718 352.171 355.898 350.461C364.77 346.849 373.992 344.168 383.418 342.461C395.048 340.321 406.608 337.841 418.138 335.251C418.748 335.121 419.368 335.011 419.968 334.841C420.568 334.671 421.098 334.441 420.878 333.661C420.658 332.881 420.088 333.121 419.608 333.201C416.688 333.691 413.768 334.141 410.868 334.731C399.875 336.978 388.898 339.254 377.938 341.561C371.814 342.946 365.783 344.709 359.878 346.841C356.148 348.151 352.558 349.821 348.828 351.081Z" fill="#7C5F50"/>
<path d="M200.617 427.692C200.975 429.648 201.139 431.634 201.107 433.622C201.222 436.237 201.6 438.833 202.237 441.372C201.463 440.173 200.531 439.084 199.467 438.132C199.167 437.818 198.771 437.614 198.341 437.553C197.912 437.491 197.474 437.575 197.097 437.792C196.297 438.262 196.387 439.022 196.487 439.792C196.97 442.732 198.082 445.532 199.747 448.002C200.381 449.092 200.959 450.213 201.477 451.362C201.727 451.842 201.842 452.381 201.811 452.922C201.779 453.462 201.602 453.984 201.297 454.432C199.827 457.052 200.057 459.922 200.407 462.762C200.497 463.492 200.787 464.442 201.827 464.442C202.867 464.442 203.137 463.632 203.437 462.872C203.737 462.112 203.927 461.522 204.277 460.542C204.987 462.202 205.597 463.542 206.187 464.992C206.597 465.992 207.247 466.722 208.387 466.472C209.527 466.222 209.757 465.182 209.767 464.182C209.735 463.384 209.648 462.589 209.507 461.802C212.403 463.038 215.368 464.103 218.387 464.992C220.241 465.574 222.175 465.861 224.117 465.842C225.937 465.742 227.527 465.282 227.947 463.152C230.924 464.059 233.957 464.768 237.027 465.272C237.647 465.365 238.271 465.418 238.897 465.432C240.427 465.432 241.967 465.432 242.657 463.702C243.347 461.972 242.527 460.702 241.367 459.702C235.297 454.582 228.627 451.072 220.297 452.382C220.035 452.409 219.77 452.409 219.507 452.382C220.057 451.692 220.787 451.862 221.357 451.652C221.927 451.442 222.547 451.212 223.147 451.022C225.657 450.252 226.017 449.472 224.867 447.222C226.32 447.592 227.655 448.325 228.747 449.352C230.801 451.082 233.181 452.382 235.747 453.172C242.267 455.312 248.841 457.289 255.467 459.102C256.237 459.324 257.018 459.501 257.807 459.632C260.807 460.112 262.207 459.052 262.517 455.902L266.517 458.102C266.916 458.326 267.33 458.519 267.757 458.682C269.247 459.222 270.837 459.682 271.987 458.172C273.137 456.662 272.057 455.402 271.157 454.172C270.987 453.952 270.857 453.702 270.477 453.082C271.727 453.732 272.597 454.212 273.477 454.632C274.437 455.151 275.441 455.583 276.477 455.922C278.057 456.352 279.607 456.182 280.597 454.672C281.032 454.028 281.243 453.259 281.196 452.483C281.149 451.707 280.847 450.969 280.337 450.382C278.786 448.158 276.632 446.423 274.127 445.382C271.27 443.928 268.209 442.916 265.047 442.382C263.717 442.222 262.607 440.532 262.497 439.452C262.318 437.972 261.564 436.621 260.397 435.692C258.586 434.21 256.564 433.007 254.397 432.122C254.877 431.122 255.397 430.972 256.317 431.582C257.737 432.582 259.217 433.412 260.717 434.242C261.376 434.588 262.079 434.84 262.807 434.992C264.027 435.282 265.277 435.252 266.077 434.152C266.877 433.052 266.477 431.722 265.977 430.562C265.559 429.728 265.084 428.923 264.557 428.152C267.599 429.373 270.561 430.783 273.427 432.372C274.757 433.032 276.057 433.772 277.427 434.302C278.797 434.832 280.527 435.092 281.647 433.582C282.767 432.072 282.067 430.672 280.977 429.422C280.567 428.952 280.157 428.482 279.757 428.042C280.857 425.152 278.137 424.192 276.817 422.262C278.956 423.123 281.147 423.848 283.377 424.432C284.396 424.547 285.364 424.933 286.184 425.548C287.003 426.163 287.643 426.986 288.037 427.932C289.357 430.702 291.927 431.822 294.037 431.262C296.147 430.702 297.497 428.442 297.567 425.262C297.657 421.872 296.567 418.732 295.567 415.592C295.446 415.272 295.379 414.934 295.367 414.592C296.527 415.587 297.595 416.685 298.557 417.872C302.321 423.037 306.685 427.737 311.557 431.872C312.295 432.506 313.108 433.047 313.977 433.482C316.847 434.892 319.477 433.172 319.217 430.002C318.997 427.232 317.497 425.002 315.967 422.732C313.368 419.128 310.347 415.848 306.967 412.962C309.852 413.75 312.687 414.708 315.457 415.832C317.237 416.552 318.687 415.512 318.357 413.832C318.136 412.944 317.7 412.123 317.087 411.442C317.477 410.852 318.087 411.032 318.647 410.882C319.531 410.667 320.341 410.222 320.997 409.592C321.652 408.962 322.128 408.17 322.377 407.296C322.626 406.421 322.639 405.497 322.414 404.616C322.189 403.735 321.735 402.93 321.097 402.282C319.362 400.531 317.262 399.182 314.947 398.332C313.427 397.672 311.887 397.052 310.237 396.332C310.761 395.519 311.152 394.628 311.397 393.692C315.637 394.982 319.777 396.272 323.947 397.512C325.81 398.06 327.729 398.396 329.667 398.512C331.337 398.612 332.987 398.412 333.727 396.682C334.467 394.952 333.557 393.592 332.337 392.432C330.087 390.192 327.187 389.072 324.337 387.922C324.017 387.792 323.697 387.692 323.267 387.532C323.636 386.942 324.177 386.48 324.818 386.208C325.458 385.936 326.167 385.867 326.847 386.012C333.247 386.882 339.667 387.552 346.047 388.532C347.569 388.777 349.107 388.907 350.647 388.922C354.727 388.922 356.067 386.742 354.237 382.922C358.695 384.426 363.253 385.615 367.877 386.482C368.756 386.682 369.659 386.753 370.557 386.692C371.219 386.657 371.857 386.437 372.4 386.057C372.942 385.677 373.367 385.153 373.627 384.543C373.886 383.934 373.969 383.264 373.867 382.61C373.764 381.956 373.481 381.343 373.047 380.842C370.567 377.532 366.967 375.732 363.437 373.842C362.037 373.092 360.607 372.402 359.077 371.622C359.717 371.092 360.177 371.502 360.607 371.622C362.077 372.097 363.598 372.395 365.137 372.512C369.567 372.692 371.477 370.232 370.047 365.852C371.908 367.705 373.875 369.448 375.937 371.072C383.347 376.532 391.647 378.072 400.617 376.622C401.236 376.514 401.834 376.308 402.387 376.012C404.877 374.702 405.227 372.192 403.187 370.232C401.597 368.83 399.791 367.696 397.837 366.872C390.927 363.408 383.747 360.512 376.367 358.212C376.287 358.212 376.217 358.072 376.037 357.892C377.307 357.342 378.947 357.112 378.437 355.012C382.337 356.942 385.967 359.012 389.847 360.562C390.996 361.077 392.196 361.469 393.427 361.732C394.057 361.832 394.827 362.002 395.267 361.642C397.017 360.202 398.397 361.332 399.847 362.142C402.631 363.74 405.627 364.932 408.747 365.682C409.173 365.868 409.641 365.933 410.101 365.872C410.562 365.81 410.996 365.623 411.357 365.332C411.357 364.332 410.657 363.772 409.857 363.272C406.617 361.272 402.967 360.562 399.307 359.922C398.077 359.702 397.107 359.482 396.727 357.972C396.347 356.462 395.047 355.712 393.897 354.852C391.873 353.472 389.755 352.236 387.557 351.152C391.327 351.262 391.327 351.262 392.337 349.462C394.047 350.352 395.737 351.302 397.477 352.142C407.509 356.966 418.69 358.889 429.757 357.692C431.014 357.592 432.244 357.281 433.397 356.772C434.128 356.504 434.766 356.032 435.236 355.411C435.706 354.791 435.988 354.048 436.047 353.272C436.065 352.468 435.836 351.677 435.391 351.006C434.946 350.336 434.306 349.818 433.557 349.522C431.747 348.622 429.727 348.412 427.367 347.752C430.207 347.542 432.637 347.752 435.007 347.172C436.537 346.772 437.887 346.172 438.097 344.422C438.307 342.672 437.177 341.582 435.727 340.822L434.347 340.102C434.817 339.592 435.347 339.832 435.837 339.862C440.047 340.122 444.277 340.102 448.437 340.992C449.187 341.152 449.827 340.992 450.107 340.232C450.387 339.472 449.887 338.912 449.257 338.572C447.873 337.881 446.388 337.412 444.857 337.182C441.857 336.602 438.777 336.512 435.727 336.182C441.467 334.872 447.127 333.332 452.727 331.612C454.661 331.043 456.429 330.014 457.877 328.612C458.3 328.302 458.621 327.873 458.8 327.379C458.978 326.886 459.005 326.351 458.877 325.842C458.487 324.612 457.397 324.322 456.307 324.162C452.005 323.601 447.642 323.723 443.377 324.522C436.237 325.605 429.209 327.329 422.377 329.672C425.225 327.566 427.956 325.306 430.557 322.902C431.4 322.135 432.142 321.265 432.767 320.312C433.357 319.312 433.767 318.152 432.957 317.092C432.147 316.032 430.857 316.092 429.667 316.562C427.825 317.329 426.103 318.36 424.557 319.622C422.636 321.084 420.454 322.167 418.127 322.812C414.614 323.874 411.233 325.33 408.047 327.152C410.527 324.832 413.377 322.972 416.047 320.902C419.197 318.472 422.507 316.232 425.447 313.522C427.617 311.522 428.177 309.862 427.357 308.152C426.537 306.442 424.717 305.772 421.817 306.372C417.817 307.192 414.647 309.562 411.437 311.832C406.28 315.396 401.481 319.451 397.107 323.942C396.907 324.152 396.767 324.412 396.317 324.332C397.837 322.172 399.617 320.242 400.907 317.982C401.296 317.289 401.631 316.567 401.907 315.822C402.053 315.539 402.102 315.216 402.048 314.902C401.994 314.588 401.839 314.3 401.607 314.082C401.367 313.876 401.069 313.75 400.754 313.719C400.439 313.689 400.123 313.756 399.847 313.912C398.224 314.615 396.74 315.604 395.467 316.832C391.017 320.752 387.107 325.102 384.787 330.652C384.171 331.94 383.154 332.993 381.887 333.652C380.13 334.718 378.517 336.005 377.087 337.482C375.987 338.672 374.407 338.202 373.087 338.902C373.087 338.002 373.777 337.782 374.197 337.422C377.037 334.952 380.047 332.692 382.677 330.002C383.486 329.202 384.222 328.332 384.877 327.402C386.067 325.682 386.127 323.832 385.177 322.592C384.567 321.861 383.733 321.351 382.805 321.14C381.876 320.928 380.904 321.028 380.037 321.422C376.557 322.672 373.897 325.102 371.317 327.612C368.768 329.992 366.5 332.656 364.557 335.552C363.887 336.552 363.137 336.102 362.177 336.192C362.987 334.442 363.727 332.912 364.427 331.362C364.774 330.642 365.045 329.888 365.237 329.112C365.392 328.653 365.407 328.159 365.282 327.691C365.157 327.224 364.896 326.804 364.533 326.483C364.17 326.163 363.721 325.957 363.241 325.891C362.762 325.825 362.274 325.902 361.837 326.112C360.077 326.702 358.757 327.982 357.197 329.342C357.563 327.54 358.141 325.788 358.917 324.122C360.417 321.157 361.53 318.011 362.227 314.762C362.419 313.929 362.507 313.076 362.487 312.222C362.531 311.817 362.45 311.409 362.255 311.052C362.06 310.694 361.761 310.405 361.397 310.222C361.023 310.071 360.613 310.032 360.217 310.111C359.821 310.189 359.456 310.38 359.167 310.662C357.827 311.732 356.721 313.067 355.917 314.582C353.855 317.966 352.577 321.769 352.177 325.712C352.177 326.252 352.257 326.882 351.497 327.372C351.497 326.022 351.497 324.772 351.417 323.532C351.337 322.292 351.107 320.922 349.747 320.402C349.122 320.187 348.449 320.147 347.802 320.286C347.156 320.425 346.559 320.738 346.077 321.192C343.077 323.622 341.727 326.982 340.997 330.642C340.504 333.802 340.572 337.025 341.197 340.162C336.437 338.362 335.197 342.542 332.607 344.862C332.907 344.012 333.197 343.172 333.507 342.332C333.817 341.492 334.177 340.512 334.557 339.612C337.197 333.879 339.086 327.829 340.177 321.612C340.352 320.659 340.432 319.691 340.417 318.722C340.469 317.975 340.296 317.23 339.92 316.583C339.544 315.936 338.982 315.417 338.307 315.092C337.604 314.765 336.825 314.634 336.054 314.715C335.282 314.796 334.547 315.086 333.927 315.552C332.296 316.727 330.989 318.295 330.127 320.112C326.747 326.707 325.148 334.069 325.487 341.472C325.487 341.872 325.547 342.262 325.557 342.662C325.557 342.752 325.467 342.842 325.417 342.942C323.787 339.112 321.237 338.942 317.927 342.422C318.057 341.062 318.157 339.912 318.267 338.762C318.452 337.291 318.452 335.803 318.267 334.332C317.907 332.052 316.057 331.332 314.137 332.622C312.628 333.758 311.423 335.249 310.627 336.962C308.477 341.171 306.778 345.596 305.557 350.162C305.297 351.162 305.037 351.762 303.797 351.752C303.17 351.813 302.561 351.997 302.005 352.294C301.449 352.591 300.957 352.995 300.557 353.482C299.957 354.082 299.407 354.732 298.847 355.352C295.847 354.012 294.277 354.452 292.467 357.202C290.467 360.202 289.337 363.552 287.997 366.832C287.726 367.588 287.498 368.359 287.317 369.142L286.807 368.992C287.027 367.862 287.297 366.742 287.457 365.612C287.677 364.142 288.037 362.492 286.267 361.722C284.657 361.032 283.597 362.162 282.637 363.272C282.467 363.472 282.277 363.662 282.077 363.872C281.567 363.422 281.817 362.932 281.847 362.532C282.197 357.402 282.107 352.272 282.057 347.142C282.046 346.472 281.986 345.804 281.877 345.142C281.785 344.377 281.491 343.649 281.026 343.034C280.562 342.419 279.942 341.937 279.231 341.639C278.521 341.34 277.743 341.235 276.979 341.334C276.214 341.433 275.489 341.732 274.877 342.202C271.217 344.952 269.457 348.892 268.277 353.202C268.217 353.422 268.177 353.652 268.127 353.872C267.617 355.872 267.497 357.782 265.777 359.462C263.867 361.342 263.547 364.282 262.847 366.872C262.654 367.78 262.348 368.66 261.937 369.492C261.727 367.442 261.537 365.392 261.297 363.342C261.103 361.235 260.556 359.177 259.677 357.252C259.007 355.852 258.077 354.822 256.447 354.892C255.727 354.937 255.04 355.21 254.487 355.673C253.933 356.135 253.541 356.762 253.367 357.462C252.792 359.14 252.455 360.89 252.367 362.662C251.727 370.662 251.957 378.732 251.827 386.762C251.689 388.884 251.398 390.992 250.957 393.072C249.957 386.292 246.137 384.262 242.797 387.592C243.273 386.048 244.01 384.596 244.977 383.302C245.72 382.213 246.246 380.99 246.527 379.702C246.707 378.512 246.627 377.292 245.237 376.882C244.017 376.512 243.237 377.262 242.607 378.282C242.055 379.287 241.763 380.415 241.757 381.562C241.487 384.22 241.41 386.893 241.527 389.562C241.977 394.072 240.987 398.562 241.307 403.022C241.357 403.722 241.357 404.312 240.527 404.682C239.697 405.052 239.437 406.122 239.237 407.002C238.757 409.002 238.367 411.122 237.947 413.172C237.237 413.172 237.127 412.832 237.177 412.272C237.337 410.332 237.437 408.402 236.057 406.752C235.587 406.192 236.057 405.672 236.267 405.152C238.517 398.002 239.817 390.742 238.837 383.222C238.758 381.329 238.054 379.515 236.837 378.062C236.424 377.582 235.899 377.211 235.309 376.98C234.718 376.75 234.081 376.668 233.451 376.741C232.822 376.814 232.22 377.04 231.698 377.399C231.176 377.759 230.75 378.24 230.457 378.802C229.897 379.866 229.528 381.02 229.367 382.212C228.687 386.343 228.247 390.51 228.047 394.692C227.897 396.562 227.747 398.442 227.597 400.302C227.437 400.302 227.287 400.382 227.217 400.302C223.127 397.372 219.607 400.202 218.667 403.982C218.124 406.788 217.88 409.644 217.937 412.502C216.047 411.992 215.357 412.352 214.717 414.382C213.936 417.505 213.546 420.713 213.557 423.932C213.557 424.792 213.397 425.642 213.427 426.492C213.427 427.602 212.887 427.722 211.977 427.492C211.977 425.042 211.977 422.602 211.797 420.152C211.616 417.927 211.009 415.758 210.007 413.762C209.626 412.864 208.969 412.109 208.132 411.608C207.295 411.107 206.32 410.884 205.347 410.972C204.469 411.117 203.655 411.525 203.014 412.143C202.372 412.761 201.934 413.559 201.757 414.432C200.935 417.939 200.599 421.543 200.757 425.142C200.757 425.742 200.997 426.402 200.417 426.902L200.617 427.692ZM322.247 357.582C323.84 353.426 324.951 349.101 325.557 344.692C326.107 349.402 327.477 354.282 322.247 357.582Z" fill="#EEBEB0"/>
<path d="M200.617 427.691L200.367 426.901C200.405 426.731 200.403 426.554 200.363 426.384C200.322 426.214 200.244 426.056 200.133 425.921C200.022 425.786 199.882 425.678 199.723 425.605C199.565 425.533 199.391 425.497 199.217 425.501C198.427 425.501 198.147 426.241 198.017 426.931C197.567 429.181 198.337 431.331 198.687 433.491C198.653 434.375 198.925 435.244 199.457 435.951C199.595 433.169 199.983 430.404 200.617 427.691V427.691Z" fill="#EEBEB0"/>
<path d="M179.447 449.911C180.707 441.911 184.957 436.231 191.447 431.991C192.578 431.212 193.89 430.737 195.257 430.611C199.527 430.241 203.807 430.181 208.087 430.151C221.187 430.061 232.787 425.251 243.867 418.801C247.637 416.601 251.357 414.291 255.197 412.201C258.307 410.511 261.387 408.631 265.077 408.321C265.947 408.251 266.647 407.761 266.577 406.781C266.507 405.801 265.657 405.461 264.827 405.551C254.297 406.761 243.827 404.621 233.387 404.551C223.317 404.481 213.727 406.381 204.957 411.621C199.297 414.991 195.477 420.041 191.897 425.381C190.287 427.791 188.997 430.561 186.217 431.951C185.847 431.821 185.957 431.571 186.027 431.391C190.624 418.878 195.984 406.658 202.077 394.801C203.017 393.001 204.847 392.551 206.227 391.441C209.377 388.901 212.897 389.501 216.337 390.351C229.257 393.541 242.257 392.511 255.267 391.251C262.777 390.531 270.267 389.701 277.787 388.911C278.577 388.831 279.427 388.791 279.787 387.911C280.147 387.031 279.437 386.361 278.857 385.691C272.737 378.571 264.777 374.521 256.007 371.611C248.687 369.191 241.497 368.801 234.247 371.511C228.947 373.511 224.427 376.901 219.587 379.731C215.317 382.221 211.947 386.071 207.247 387.891C206.657 388.121 206.157 388.631 205.387 388.491C210.907 378.258 216.854 368.301 223.227 358.621C224.937 356.041 227.967 355.711 230.617 355.911C236.957 356.381 243.207 357.691 249.617 358.061C260.307 358.671 270.517 356.061 280.727 353.481C284.097 352.621 287.427 351.551 290.877 351.001C291.877 350.841 292.977 350.681 293.197 349.391C293.417 348.101 292.487 347.591 291.607 347.071C282.188 341.446 271.288 338.8 260.337 339.481C249.919 339.991 239.962 343.932 232.017 350.691C230.656 352.039 228.832 352.818 226.917 352.871C231.827 345.871 236.597 339.081 241.387 332.291C242.387 330.871 243.547 329.541 244.387 328.041C246.267 324.791 249.197 323.631 252.717 323.471C256.637 323.291 260.557 322.991 264.477 323.011C274.207 323.011 283.317 320.561 292.127 316.671C295.87 314.878 299.778 313.454 303.797 312.421C304.537 312.261 305.497 312.101 305.487 311.041C305.477 309.981 304.557 309.831 303.827 309.691C300.032 308.747 296.16 308.145 292.257 307.891C287.857 307.611 283.447 307.341 279.047 307.001C270.207 306.311 262.817 309.321 256.617 315.581C254.817 317.391 253.227 319.641 250.117 320.141C252.847 316.061 256.117 312.541 258.047 308.291C260.197 303.601 263.557 301.691 268.477 300.691C275.367 299.211 281.977 296.571 288.477 293.801C296.387 290.441 301.887 284.281 306.797 277.491C308.797 274.731 310.877 272.051 312.797 269.271C313.387 268.431 314.797 267.591 314.047 266.491C313.297 265.391 312.047 266.411 311.117 266.721C299.767 270.581 288.757 275.171 278.647 281.721C278.406 281.822 278.154 281.899 277.897 281.951C284.547 269.951 284.307 256.951 284.097 243.951C284.007 239.101 283.887 234.251 283.807 229.401C283.807 228.611 284.067 227.611 283.137 227.321C282.664 227.22 282.169 227.303 281.754 227.554C281.34 227.805 281.037 228.204 280.907 228.671C279.037 233.341 276.057 237.411 273.907 241.911C271.507 246.911 268.827 251.911 267.067 257.231C263.767 267.311 262.627 277.711 262.417 288.231C262.442 291.198 262.106 294.156 261.417 297.041C260.587 300.041 258.527 302.541 256.977 305.241C256.185 306.867 255.139 308.356 253.877 309.651C254.617 306.031 255.187 302.781 255.937 299.591C257.599 293.016 257.891 286.17 256.793 279.478C255.695 272.786 253.232 266.391 249.557 260.691C245.307 253.821 240.647 247.191 236.987 239.961C236.577 239.141 235.987 238.671 235.077 238.961C234.167 239.251 234.297 239.871 234.377 240.591C235.577 251.761 236.207 262.991 237.957 274.101C239.183 282.552 241.913 290.714 246.017 298.201C247.517 300.871 248.687 303.711 250.017 306.451C251.917 310.261 251.597 313.661 248.937 317.141C243.937 323.741 239.127 330.551 234.097 337.211C235.095 332.88 235.873 328.501 236.427 324.091C237.677 312.751 234.427 302.481 228.847 292.781C226.337 288.421 223.717 284.131 220.847 280.001C220.387 279.351 219.957 278.601 218.957 278.811C218.532 278.927 218.164 279.194 217.922 279.562C217.681 279.931 217.583 280.375 217.647 280.811C217.797 292.131 217.147 303.541 221.057 314.491C222.887 319.611 225.587 324.271 228.177 329.011C229.377 331.221 230.977 333.321 231.257 335.931C231.465 337.535 231.344 339.165 230.902 340.72C230.46 342.276 229.707 343.726 228.687 344.981C224.407 350.521 220.627 356.451 216.567 362.321C215.897 359.061 216.677 355.991 217.327 352.981C221.427 334.171 216.457 317.531 205.327 302.381C202.147 298.041 198.647 293.941 195.277 289.741C194.737 289.081 194.187 288.291 193.097 288.741C192.007 289.191 192.347 290.041 192.447 290.811C193.667 299.901 194.937 308.991 196.087 318.081C197.627 330.201 201.747 341.271 209.337 350.921C212.607 355.091 214.517 359.641 214.027 365.041C214.09 365.688 213.984 366.339 213.717 366.931C209.227 373.691 205.147 380.691 200.997 387.571C200.937 387.661 200.797 387.711 200.647 387.811C200.115 386.378 199.966 384.83 200.217 383.321C200.572 373.73 199.868 364.128 198.117 354.691C197.037 348.391 194.117 342.691 191.327 336.991C188.807 331.811 186.217 326.661 183.647 321.511C183.44 321.047 183.171 320.614 182.847 320.221C181.197 318.431 180.007 318.691 179.367 321.071C174.957 337.511 175.687 353.071 186.457 367.281C189.407 371.151 191.807 375.441 194.397 379.571C195.373 381.112 196.162 382.764 196.747 384.491C197.639 386.819 197.949 389.329 197.651 391.803C197.353 394.278 196.456 396.642 195.037 398.691C191.967 403.481 189.837 408.871 187.247 414.121C187.041 413.698 186.928 413.234 186.918 412.763C186.907 412.292 186.999 411.824 187.187 411.391C188.457 406.471 190.067 401.621 190.637 396.551C191.907 385.251 188.807 375.111 182.357 365.891C178.511 360.68 174.339 355.717 169.867 351.031C169.628 350.758 169.367 350.504 169.087 350.271C168.802 349.937 168.419 349.701 167.992 349.595C167.565 349.489 167.116 349.519 166.707 349.681C165.857 350.081 165.877 350.871 165.707 351.681C163.457 363.861 166.797 374.991 171.837 385.871C174.837 392.441 178.437 398.701 182.087 404.871C183.046 406.577 183.638 408.464 183.827 410.411C184.617 416.601 184.347 422.541 181.177 428.141C180.05 430.418 179.049 432.755 178.177 435.141C177.347 433.661 178.277 432.501 178.177 431.311C177.297 418.151 175.327 405.391 166.597 394.661C160.757 387.481 154.307 380.901 147.857 374.311C145.097 371.511 142.377 368.671 139.627 365.881C139.157 365.225 138.487 364.737 137.717 364.491C136.717 364.321 136.097 364.491 136.247 365.691C136.367 366.621 136.367 367.581 136.577 368.491C139.767 382.631 143.837 396.491 152.267 408.491C157.747 416.331 164.637 422.961 171.517 429.491C175.967 433.741 176.117 438.731 174.717 444.061C173.887 447.191 172.607 450.211 171.397 453.671C170.687 452.602 170.245 451.378 170.107 450.101C169.261 444.12 167.892 438.224 166.017 432.481C163.884 426.408 160.411 420.891 155.857 416.341C147.967 408.121 139.237 400.731 131.857 391.951C131.287 391.271 130.607 390.561 129.627 390.951C128.647 391.341 128.627 392.311 128.757 393.211C130.267 402.211 131.757 411.121 135.477 419.561C140.777 431.721 149.307 440.921 160.407 447.921L165.727 451.291C168.137 452.831 169.967 457.941 169.157 460.741C166.637 469.401 163.927 478.001 162.347 486.901C162.257 487.401 162.227 487.901 162.187 488.411C162.053 489.024 162.156 489.665 162.475 490.205C162.794 490.745 163.306 491.144 163.907 491.321C164.503 491.522 165.15 491.512 165.739 491.294C166.329 491.075 166.826 490.662 167.147 490.121C169.147 487.531 169.437 484.341 170.147 481.301C172.147 472.521 174.147 463.711 177.147 455.211C177.917 453.071 183.027 450.881 185.237 451.521C195.837 454.581 206.467 457.521 217.607 457.771C223.854 457.791 230.092 457.33 236.267 456.391C242.868 455.412 249.535 454.961 256.207 455.041C256.642 455.125 257.092 455.054 257.479 454.84C257.867 454.627 258.167 454.284 258.327 453.871C258.757 452.701 258.007 452.091 257.227 451.531C253.699 449.111 249.988 446.967 246.127 445.121C239.979 441.95 233.539 439.378 226.897 437.441C217.577 434.881 208.147 434.071 198.767 436.991C192.577 438.911 187.547 442.781 183.117 447.421C182.124 448.548 180.861 449.405 179.447 449.911ZM248.137 451.911C213.217 455.211 213.017 455.801 188.387 449.381C208.967 443.451 228.557 446.871 248.137 451.931V451.911ZM271.407 386.691C252.787 388.071 234.467 391.591 215.407 387.411C234.267 381.521 252.607 378.951 271.407 386.691ZM250.747 408.991C231.477 411.881 212.607 416.091 195.227 425.651C195.224 425.423 195.244 425.195 195.287 424.971C195.38 424.775 195.491 424.588 195.617 424.411C201.257 416.211 209.187 411.541 218.707 409.151C229.357 406.521 240.007 407.781 250.747 409.041V408.991ZM199.457 426.991C214.777 418.671 231.387 414.311 248.917 412.341C233.737 422.171 217.947 429.281 199.457 426.991ZM141.647 376.271C144.057 379.921 146.137 383.141 148.287 386.271C154.147 394.931 160.997 402.911 166.127 412.081C168.743 416.558 170.897 421.289 172.557 426.201C157.627 412.461 146.417 396.691 141.647 376.271ZM221.317 382.871L221.127 382.361C222.827 381.281 224.557 380.231 226.247 379.131C233.147 374.611 240.437 371.331 248.957 372.671C255.704 373.776 262.163 376.214 267.957 379.841C270.237 381.241 272.547 382.631 274.187 384.961C256.817 377.581 239.197 377.241 221.317 382.871V382.871ZM162.817 445.311C148.257 438.001 131.847 413.091 133.557 400.591C141.707 416.821 152.357 431.001 162.817 445.311V445.311ZM286.817 347.711C270.145 347.031 253.447 347.942 236.947 350.431C253.107 340.091 269.787 340.301 286.827 347.691L286.817 347.711ZM215.297 347.911C211.027 329.721 203.547 313.211 196.417 295.911C210.557 309.691 218.767 334.691 215.307 347.911H215.297ZM280.857 240.231C284.167 259.281 276.697 286.631 266.517 292.491C273.817 275.521 277.707 257.971 280.857 240.231ZM212.747 351.061C200.557 337.251 199.007 319.921 196.617 302.871C202.917 318.631 209.747 334.211 212.747 351.061ZM242.237 447.061C224.677 443.161 207.137 441.201 189.467 446.061C189.367 445.391 189.797 445.311 190.057 445.061C195.164 440.865 201.529 438.499 208.137 438.341C217.977 438.031 227.307 440.341 236.307 444.071C238.42 444.784 240.418 445.802 242.237 447.091V447.061ZM186.137 404.381C185.123 396.222 183.304 388.183 180.707 380.381C178.237 372.771 174.987 365.471 171.987 358.071C184.967 368.961 191.677 390.591 186.137 404.411V404.381ZM138.947 404.381C145.817 410.861 153.307 416.761 158.797 424.611C162.727 430.221 164.457 436.681 165.867 443.271C156.637 430.481 146.367 418.461 138.947 404.381V404.381ZM143.327 373.961C152.127 382.671 161.097 391.151 167.837 401.611C171.937 407.971 173.747 415.071 174.667 422.491C167.427 404.201 153.117 390.541 143.327 373.961V373.961ZM265.037 289.031C265.307 271.831 268.217 255.921 277.957 241.291C274.467 257.631 271.497 273.531 265.037 289.031V289.031ZM197.557 375.571C192.437 365.571 183.247 334.261 184.057 329.571C192.997 343.931 198.407 362.361 197.557 375.571ZM220.487 286.571C225.647 299.941 229.747 313.571 230.757 327.881C221.997 315.391 219.887 301.281 220.477 286.541L220.487 286.571ZM167.997 356.851C173.247 365.461 182.817 394.591 181.867 399.061C176.297 389.061 171.397 379.061 168.667 368.061C167.807 364.39 167.581 360.599 167.997 356.851V356.851ZM240.557 251.951C251.877 266.571 258.117 288.121 253.437 296.611C252.337 288.801 250.177 281.431 248.037 274.061C245.897 266.691 243.167 259.301 240.557 251.951ZM250.697 299.951C241.497 286.481 240.607 270.821 238.697 255.441C243.707 270.001 248.667 284.581 250.677 299.951H250.697ZM281.887 350.201C267.737 354.781 253.357 356.841 238.557 353.691C252.802 350.799 267.343 349.627 281.867 350.201H281.887ZM305.727 274.131C297.027 289.461 282.127 294.311 266.787 298.441C280.337 291.461 293.827 284.351 305.707 274.131H305.727ZM304.017 272.551C298.097 278.331 278.297 290.161 270.597 292.651C274.737 285.691 287.137 278.171 303.997 272.551H304.017ZM191.867 369.551C181.407 355.551 176.747 338.131 181.077 329.001C182.557 343.271 187.167 356.421 191.847 369.551H191.867ZM259.557 320.281C264.767 317.201 289.387 312.161 295.477 312.931C284.077 318.121 272.257 321.601 259.557 320.281ZM259.417 316.511C263.417 312.711 267.877 309.791 273.517 309.331C279.157 308.871 285.007 309.581 290.737 310.331C280.11 311.334 269.61 313.404 259.397 316.511H259.417ZM233.417 325.871C232.107 314.631 229.187 303.871 225.717 293.161C232.337 302.051 235.867 317.161 233.447 325.871H233.417Z" fill="#757144" fill-opacity="0.2"/>
<path d="M53.9673 38.0006C50.1332 43.5633 47.3725 49.7936 45.8273 56.3706C44.4327 62.8463 44.0716 69.5019 44.7573 76.0906C45.0773 79.8906 45.1073 83.7106 43.5973 87.3506C43.5173 87.5206 43.4873 87.7006 43.3973 87.8606C41.1073 92.0906 40.8173 91.5406 37.3173 89.6606C36.2387 88.9951 34.992 88.6527 33.7248 88.674C32.4576 88.6952 31.223 89.0793 30.1673 89.7806C27.1673 91.6306 25.0573 94.3406 22.9673 97.0806C19.4631 101.832 16.3305 106.847 13.5973 112.081C8.68734 121.081 4.05734 130.281 1.41734 140.301C0.0212276 146.031 -0.186372 151.987 0.807343 157.801C2.20803 167.806 5.36664 177.485 10.1373 186.391C11.9147 189.392 13.8508 192.296 15.9373 195.091C17.29 196.773 18.1916 198.773 18.5573 200.901C18.6115 201.283 18.5862 201.672 18.4829 202.043C18.3797 202.415 18.2008 202.761 17.9573 203.061C14.1713 207.868 10.1182 212.458 5.81734 216.811C4.775 217.788 3.92383 218.951 3.30734 220.241C2.91734 221.171 2.63734 222.111 3.57734 222.891C4.51734 223.671 5.33734 223.361 6.24734 222.831C7.86628 221.751 9.31836 220.441 10.5573 218.941C15.0091 214.219 19.0723 209.146 22.7073 203.771C22.9336 203.403 23.2366 203.088 23.5955 202.848C23.9545 202.609 24.361 202.449 24.7873 202.381C29.5073 201.431 34.2973 201.381 39.0673 201.061C50.9473 200.361 61.0673 195.921 69.0673 186.991C73.7157 181.698 77.6647 175.83 80.8173 169.531C82.706 165.816 84.1525 161.892 85.1273 157.841C86.1273 153.841 85.4973 150.081 82.7573 146.971C80.0173 143.861 80.2573 140.891 81.8473 137.451C83.5973 133.681 85.7573 130.151 87.8473 126.571C92.9168 118.05 94.8283 108.018 93.2473 98.2306C91.9273 89.7706 90.5773 81.3106 90.8073 72.7106C90.7941 67.282 91.624 61.8844 93.2673 56.7106C94.5847 53.0807 96.3339 49.6226 98.4773 46.4106C102.882 39.7813 105.887 32.3222 107.307 24.4906C108.371 18.9087 108.115 13.1554 106.557 7.69057C105.017 2.50057 98.8973 -0.66944 94.0773 0.12056C89.9873 0.79056 86.4473 2.72055 82.9273 4.74055C77.832 7.8358 73.3089 11.7871 69.5573 16.4206C63.8071 23.1973 58.5946 30.4126 53.9673 38.0006V38.0006ZM20.4573 199.851C19.7643 197.445 18.6467 195.183 17.1573 193.171C15.6973 191.001 14.0773 188.941 12.7873 186.651C8.04882 178.254 4.85491 169.075 3.35734 159.551C2.27734 152.851 2.06734 146.241 4.04734 139.631C6.45846 132.017 9.58926 124.65 13.3973 117.631C16.976 110.459 21.1471 103.598 25.8673 97.1206C27.4124 94.8974 29.3069 92.9388 31.4773 91.3206C32.0856 90.8213 32.8237 90.5061 33.605 90.4122C34.3863 90.3184 35.1781 90.4496 35.8873 90.7906C36.8873 91.3006 37.8873 91.8806 38.9473 92.3806C39.769 92.8714 40.7489 93.0249 41.6812 92.8085C42.6135 92.5922 43.4258 92.0231 43.9473 91.2206C45.0307 89.7905 45.8503 88.1785 46.3673 86.4606C47.5473 82.4606 47.3673 78.3406 46.9573 74.2706C45.8697 63.2608 48.3219 52.1911 53.9573 42.6706C58.8773 33.9224 64.5665 25.6297 70.9573 17.8906C74.7973 13.3906 78.9573 9.31057 84.0973 6.35057C87.3673 4.48057 90.6873 2.63058 94.4973 2.08058C95.9023 1.84407 97.3427 1.93001 98.7095 2.33192C100.076 2.73384 101.334 3.4412 102.387 4.40056C104.767 6.49056 105.307 9.40056 105.717 12.2106C106.777 19.7206 105.287 26.9106 102.717 33.9306C100.927 38.5657 98.6017 42.9757 95.7873 47.0706C94.1101 49.6537 92.6868 52.3932 91.5373 55.2506C89.2773 60.8506 88.6373 66.7806 88.4173 72.7606C88.1173 80.8706 89.4173 88.8306 90.9573 96.7606C93.1391 107.317 91.131 118.308 85.3573 127.411C83.1722 130.776 81.2338 134.295 79.5573 137.941C78.1773 141.191 77.9873 144.331 80.3073 147.281C80.6173 147.681 80.8873 148.111 81.1873 148.511C82.1134 149.721 82.7506 151.126 83.0505 152.62C83.3503 154.114 83.3048 155.657 82.9173 157.131C82.0407 160.878 80.7529 164.516 79.0773 167.981C76.073 174.244 72.2861 180.101 67.8073 185.411C64.6401 189.275 60.7193 192.454 56.2838 194.755C51.8482 197.055 46.9907 198.428 42.0073 198.791C37.3773 199.181 32.7173 198.931 28.0973 199.581L25.2973 199.961C25.6773 199.361 25.8873 198.961 26.1073 198.681C30.9151 191.256 35.0803 183.434 38.5573 175.301C39.1834 173.762 40.1323 172.376 41.3399 171.236C42.5475 170.095 43.9857 169.228 45.5573 168.691C47.5905 167.974 49.5075 166.963 51.2473 165.691C53.848 163.81 56.5522 162.077 59.3473 160.501C62.1673 158.881 65.0773 157.411 67.7373 155.501C68.1173 155.231 68.7973 155.001 68.3573 154.371C67.9173 153.741 67.4973 154.251 67.1373 154.471C62.7873 157.031 58.1873 159.171 54.0673 162.091C50.139 164.737 45.9466 166.969 41.5573 168.751C41.6773 165.751 43.8973 164.511 46.3973 163.541C47.5477 163.089 48.5755 162.373 49.3973 161.451C51.4179 159.321 53.7473 157.507 56.3073 156.071C57.0582 155.727 57.7214 155.217 58.2473 154.581C57.7273 153.741 57.1273 154.081 56.5773 154.391C54.0446 155.678 51.6912 157.292 49.5773 159.191C47.9733 160.733 46.0663 161.924 43.9773 162.691C44.1984 161.554 44.5683 160.451 45.0773 159.411C49.2773 148.161 52.7773 136.691 55.9973 125.131C56.4249 123.672 57.2123 122.345 58.2873 121.271C63.0073 116.271 68.7173 112.371 73.0973 107.011C75.7573 103.761 79.0973 101.141 82.0973 98.2106C82.6573 97.6606 83.4873 97.1306 83.1773 96.0706C82.3573 95.9606 81.9473 96.5006 81.4873 96.9206C76.8173 101.091 72.3173 105.431 68.0273 110.001C65.0273 113.171 61.0973 115.221 58.1173 118.431C57.8673 118.041 58.0473 117.751 58.1173 117.431C63.0773 99.4506 68.134 81.5106 73.2873 63.6106C73.4819 62.8615 73.9584 62.2165 74.6173 61.8106C76.9975 60.3263 79.0412 58.3609 80.6173 56.0406C83.059 52.5571 85.821 49.3096 88.8673 46.3406C89.9573 45.2206 91.3873 44.3406 92.0873 42.9006C91.2573 42.1006 90.7773 42.9006 90.3873 43.2106C86.6242 46.7401 83.1279 50.5439 79.9273 54.5906C78.3373 56.5906 76.8173 58.5906 74.4673 59.8606C74.9373 57.4006 75.0873 57.0106 76.5873 55.7906C79.0673 53.7906 80.7473 51.0506 82.9873 48.7906C83.2973 48.4806 83.4173 48.1706 83.1073 47.8406C82.7973 47.5106 82.4273 47.6506 82.1073 47.8906C81.8589 48.0905 81.6219 48.3041 81.3973 48.5306C79.6173 50.2006 78.2573 52.2906 76.2273 53.9106C76.2297 53.6491 76.2531 53.3883 76.2973 53.1306C79.2173 43.1306 82.5773 33.2906 88.0473 24.3106C88.6651 23.2366 89.2064 22.1205 89.6673 20.9706C89.8873 20.4606 89.9573 19.8006 89.2973 19.5406C88.6373 19.2806 88.2973 19.7306 88.0673 20.2006C86.8973 22.1306 85.6673 24.0106 84.5873 26.0006C82.7369 29.345 81.0678 32.7867 79.5873 36.3106C79.2573 32.0506 78.7873 28.2306 78.7673 24.3106C78.7673 22.2006 78.6073 20.0906 78.4973 17.9806C78.4973 17.5406 78.4973 16.9806 77.8273 16.9806C77.1573 16.9806 77.0973 17.3106 77.0573 17.7806C77.0173 18.2506 76.9373 18.9606 76.9273 19.5606C76.904 25.2514 77.3253 30.9354 78.1873 36.5606C78.4785 37.6271 78.5161 38.7469 78.2973 39.8306C75.2973 48.4406 72.8973 57.2206 70.3573 65.9606C68.9073 70.9606 67.4173 75.9606 65.9473 80.9606C65.0673 77.4606 63.1873 74.3106 62.8473 70.6906C62.7206 69.5 62.5236 68.3179 62.2573 67.1506C62.1673 66.6706 62.2573 65.8606 61.4473 65.9806C60.6373 66.1006 60.9873 66.8106 61.0773 67.2606C61.6073 70.2006 61.5973 73.2606 62.5773 76.0906C63.1657 77.8852 63.6531 79.7114 64.0373 81.5606C64.7773 84.8906 64.4573 87.6306 63.2273 89.6206C61.3208 84.5022 59.7901 79.2516 58.6473 73.9106C57.8973 69.9906 56.1273 66.4206 54.3673 62.9106C54.216 62.6304 54.0239 62.3743 53.7973 62.1506C53.7188 62.0643 53.6115 62.0097 53.4955 61.9968C53.3796 61.9839 53.2629 62.0137 53.1673 62.0806C53.0613 62.1289 52.9776 62.2156 52.933 62.3233C52.8885 62.4309 52.8865 62.5515 52.9273 62.6606C53.0978 63.1849 53.2981 63.6991 53.5273 64.2006C54.7117 66.3808 55.6796 68.6717 56.4173 71.0406C58.0173 77.3706 59.1373 83.8206 61.3273 90.0406C62.0408 92.0035 62.1178 94.1414 61.5473 96.1506C58.1473 108.037 54.7507 119.921 51.3573 131.801C50.6473 134.291 49.8573 136.751 49.0973 139.221C48.7701 138.193 48.5522 137.134 48.4473 136.061C47.9873 132.301 46.6373 128.731 46.0673 124.991C45.4859 120.011 44.6481 115.064 43.5573 110.171C43.3673 109.461 43.2373 108.721 42.2473 108.631C42.1071 108.924 42.0343 109.245 42.0343 109.571C42.0343 109.896 42.1071 110.217 42.2473 110.511C42.9391 113.518 43.4765 116.558 43.8573 119.621C44.3073 123.401 44.2373 127.251 45.4473 130.941C46.7673 134.941 47.1173 139.141 47.5673 143.311C47.5874 144.544 47.284 145.761 46.6873 146.841C46.3273 146.641 46.3873 146.331 46.3173 146.081C45.5273 143.081 44.7473 140.011 43.9373 136.991C43.7973 136.491 43.6673 135.731 42.9373 135.841C42.2073 135.951 42.2773 136.701 42.3873 137.301C42.4473 137.671 42.5373 138.021 42.6173 138.381C43.3273 141.431 44.1173 144.471 44.7273 147.541C45.0473 149.131 45.4473 150.721 44.8273 152.421C41.9673 160.361 38.8273 168.201 35.2273 175.821C34.0373 178.331 32.6473 180.751 31.2273 183.551C31.0673 181.881 31.0573 180.551 30.8173 179.361C29.8361 174.259 29.5568 169.048 29.9873 163.871C30.3533 159.262 29.7293 154.628 28.1573 150.281C27.9573 149.721 28.0073 148.601 26.9873 148.951C25.9673 149.301 26.6473 150.191 26.8373 150.721C28.6073 155.611 28.6673 160.651 28.2173 165.721C27.8843 169.527 28.0897 173.361 28.8273 177.111C29.2816 179.371 29.4728 181.676 29.3973 183.981C29.5055 185.038 29.3545 186.105 28.9573 187.091C26.3688 191.502 23.5308 195.762 20.4573 199.851V199.851Z" fill="#DB8A4D"/>
<path d="M133.558 358.692C143.888 352.442 151.448 344.162 158.558 335.512C167.308 324.882 174.358 313.162 180.628 300.852C187.958 286.442 191.898 271.162 194.628 255.432C195.93 248.036 196.759 240.564 197.108 233.062C197.478 224.902 192.818 220.962 185.988 219.462C177.818 217.672 169.468 217.262 161.118 217.172C143.397 216.864 125.764 219.722 109.048 225.612C102.75 227.913 96.6127 230.632 90.6776 233.752C85.9793 236.118 81.484 238.867 77.2376 241.972C60.5576 254.372 45.5576 268.402 36.1576 287.372C30.5584 298.843 27.4632 311.373 27.0776 324.132C26.7376 332.272 25.8376 340.392 27.0776 348.532C28.6007 358.25 31.252 367.758 34.9776 376.862C35.1446 377.204 35.384 377.505 35.6793 377.745C35.9746 377.986 36.3187 378.158 36.6876 378.252C50.311 383.807 65.3365 384.937 79.6376 381.482C82.4762 380.977 85.2763 380.275 88.0176 379.382C96.1976 376.292 104.688 374.072 112.558 370.142C119.761 366.711 126.771 362.888 133.558 358.692V358.692Z" fill="#EFBE95"/>
<path d="M57.1969 343.581C58.3269 336.341 59.4669 329.231 60.0369 322.031C60.4935 316.722 61.4989 311.474 63.0369 306.371C64.6969 300.631 66.5669 294.961 68.2869 289.241C70.297 282.115 71.6361 274.817 72.2869 267.441C72.3869 266.441 72.7469 265.011 71.5669 264.831C70.1669 264.611 70.4069 266.241 70.2869 267.101C68.4869 280.351 64.7669 293.101 60.7569 305.821C58.4369 313.141 57.6569 320.741 56.7569 328.331C56.0669 334.271 54.8269 340.121 53.9169 346.031C53.3069 349.981 50.5869 352.501 48.6969 355.361C48.3919 337.592 50.6759 319.873 55.4769 302.761C57.2379 295.999 58.4815 289.112 59.1969 282.161C59.2669 281.551 59.5569 280.861 58.8469 280.321C57.8469 280.321 57.4069 280.951 57.2169 281.801C56.8869 283.171 56.6069 284.571 56.3769 285.961C54.9169 294.611 53.0269 303.151 50.8269 311.641C47.755 323.326 46.2684 335.37 46.4069 347.451C46.4069 348.921 46.3169 350.451 46.2869 351.871C46.2795 356.654 44.6942 361.301 41.7769 365.091C32.7769 376.971 24.2069 389.091 14.9169 400.781C14.2774 401.55 13.721 402.385 13.2569 403.271C12.9499 403.714 12.7913 404.244 12.8039 404.783C12.8165 405.322 12.9996 405.843 13.3269 406.271C13.6943 406.704 14.1879 407.011 14.7384 407.149C15.2889 407.287 15.8688 407.249 16.3969 407.041C18.5323 406.314 20.4137 404.988 21.8169 403.221C27.0469 397.411 31.0869 390.751 35.2669 384.211C39.6469 377.351 43.9169 370.421 48.1469 363.471C49.4569 361.331 51.7269 360.851 53.7069 359.951C60.5769 356.851 67.8969 355.311 75.3269 354.341C82.3269 353.431 89.0169 351.481 95.7569 349.631C104.977 347.101 114.447 345.941 123.847 344.361C125.067 344.161 126.287 343.931 127.497 343.691C128.187 343.541 129.047 343.381 128.887 342.441C128.727 341.501 127.887 341.611 127.147 341.631C126.407 341.651 125.737 341.761 125.037 341.831C112.037 343.181 99.3369 346.351 86.7669 349.931C81.9069 351.321 76.9169 351.651 71.9369 352.141C68.5334 352.437 65.1528 352.954 61.8169 353.691C58.3939 354.597 55.068 355.836 51.8869 357.391C54.0669 353.621 56.2269 350.231 58.4869 346.901C61.6569 342.231 65.1169 337.781 68.4869 333.301C70.0469 331.301 72.3769 330.301 74.5669 329.131C82.1169 325.301 90.2869 323.931 98.6169 323.311C106.683 322.717 114.677 321.378 122.497 319.311C134.837 316.041 147.497 315.461 160.157 314.201C161.327 314.081 162.507 313.981 163.677 313.831C164.307 313.741 164.977 313.601 165.067 312.691C164.067 311.591 162.797 311.921 161.627 311.951C154.957 312.151 148.347 313.041 141.717 313.651C135.376 314.242 129.086 315.291 122.897 316.791C113.649 318.887 104.271 320.364 94.8269 321.211C87.2098 321.975 79.7991 324.138 72.9669 327.591C74.3969 325.791 75.8169 323.991 77.2569 322.211C77.9098 321.535 78.5177 320.817 79.0769 320.061C82.8169 313.761 88.9369 311.151 95.5669 309.301C100.079 308.076 104.68 307.203 109.327 306.691C116.983 305.726 124.543 304.114 131.927 301.871C141.927 298.941 152.217 297.651 162.507 296.291C163.377 296.181 164.247 296.011 165.117 295.851C165.627 295.751 165.967 295.531 165.977 294.911C165.987 294.291 165.497 293.991 164.977 293.971C164.153 293.935 163.327 293.958 162.507 294.041C151.353 295.116 140.323 297.222 129.557 300.331C122.914 302.153 116.12 303.368 109.257 303.961C102.557 304.691 95.8469 305.881 89.5569 308.691C89.1601 308.787 88.7549 308.844 88.3469 308.861C91.9569 304.861 95.2869 301.091 98.7469 297.431C99.8469 296.351 101.557 296.091 102.987 295.691C105.397 295.131 107.827 294.691 110.277 294.321C116.646 293.54 122.932 292.184 129.057 290.271C136.377 287.931 143.947 286.781 151.497 285.581C152.137 285.471 152.757 285.271 153.387 285.141C154.017 285.011 154.387 284.941 154.387 284.321C154.382 284.171 154.347 284.023 154.283 283.887C154.219 283.751 154.128 283.629 154.016 283.529C153.904 283.429 153.773 283.353 153.63 283.305C153.488 283.257 153.337 283.239 153.187 283.251C152.36 283.243 151.534 283.3 150.717 283.421C143.806 284.268 136.978 285.697 130.307 287.691C122.977 290.041 115.397 291.121 107.827 292.221C106.327 292.441 104.827 292.781 103.117 293.111C106.117 289.881 109.377 287.311 112.397 284.461C116.057 280.981 119.727 277.461 123.477 274.121C127.787 270.211 132.387 266.601 136.477 262.501C140.567 258.401 145.337 257.081 150.477 256.131C156.767 254.971 162.557 252.271 168.687 250.681C171.877 249.851 175.127 249.301 178.347 248.681C178.957 248.561 180.037 248.681 179.867 247.621C179.697 246.561 178.727 246.821 177.997 246.921C171.188 247.888 164.49 249.515 157.997 251.781C154.547 252.981 150.937 253.511 147.477 254.561C147.187 254.041 147.567 253.841 147.817 253.661C151.747 250.831 155.667 247.991 159.617 245.191C164.397 241.811 169.187 238.448 173.987 235.101C174.547 234.711 174.907 234.241 174.537 233.631C174.167 233.021 173.477 233.321 173.017 233.681C167.587 237.991 161.667 241.591 156.087 245.681C153.037 247.921 149.757 249.821 146.787 252.181C142.167 255.831 137.357 259.181 132.917 263.121C129.637 265.981 126.197 268.651 122.597 271.591C122.947 269.638 123.503 267.727 124.257 265.891C125.501 262.505 127.204 259.305 129.317 256.381C132.672 251.662 135.439 246.551 137.557 241.161C139.287 236.781 142.037 233.021 144.457 229.051C144.917 228.301 146.147 227.251 144.867 226.501C143.737 225.851 143.207 227.261 142.687 228.041C139.72 232.228 137.221 236.729 135.237 241.461C133.285 246.284 130.648 250.801 127.407 254.871C123.989 259.345 121.538 264.48 120.207 269.951C119.397 273.131 118.497 276.261 115.397 277.951C115.197 275.071 117.697 264.461 119.457 260.751C121.002 257.576 122.858 254.561 124.997 251.751C126.869 249.243 128.355 246.469 129.407 243.521C129.591 242.964 129.705 242.386 129.747 241.801C129.747 241.401 129.527 241.151 129.127 241.071C128.983 241.031 128.831 241.039 128.692 241.093C128.553 241.147 128.436 241.245 128.357 241.371C128.291 241.469 128.234 241.573 128.187 241.681C126.187 247.921 121.697 252.681 118.567 258.301C116.22 262.353 114.71 266.835 114.127 271.481C113.756 273.939 113.255 276.376 112.627 278.781C112.037 280.901 110.738 282.754 108.947 284.031C98.6569 292.551 90.0069 302.691 81.5569 312.921C77.0769 318.341 72.6869 323.841 68.0169 329.201C69.0169 325.981 70.0169 322.771 71.0169 319.541C71.8312 317.131 72.4827 314.669 72.9669 312.171C74.4369 302.461 77.4769 293.171 80.4869 283.901C83.2317 275.023 85.0054 265.872 85.7769 256.611C86.0269 254.141 86.4069 251.691 86.7169 249.221C86.8069 248.431 87.1569 247.321 86.0569 247.171C84.9569 247.021 84.9069 248.171 84.7969 248.981C84.0569 254.195 83.3403 259.408 82.6469 264.621C81.5088 272.533 79.4204 280.279 76.4269 287.691C73.5223 295.068 71.3583 302.716 69.9669 310.521C68.4369 319.211 65.5269 327.521 62.7369 335.931C61.8669 338.551 59.4769 340.351 57.9569 342.651C57.7209 342.975 57.4672 343.285 57.1969 343.581V343.581Z" fill="#7C5F50"/>
<path d="M152.047 332.932C151.817 330.492 151.717 328.282 151.377 326.102C150.597 320.972 147.147 317.632 143.377 314.502C136.487 308.752 128.687 305.592 119.597 306.402C111.817 307.092 103.137 314.402 100.977 321.762C100.177 324.492 100.627 327.182 101.107 330.022C92.7068 328.642 86.3768 332.222 82.9268 339.252C81.0999 342.784 80.2966 346.758 80.6076 350.723C80.9186 354.688 82.3314 358.487 84.6868 361.692C84.6868 361.692 84.6268 361.922 84.5268 361.962C79.6868 363.962 77.2168 367.962 75.6668 372.732C74.2368 377.072 73.6668 381.482 74.9568 385.982C75.2474 387.487 75.8956 388.9 76.8468 390.102C82.6068 396.172 88.1868 402.492 97.0568 404.262C102.577 405.372 107.797 405.122 112.907 402.012C113.187 404.362 112.957 406.542 113.437 408.682C113.97 411.09 115.031 413.351 116.541 415.301C118.052 417.251 119.976 418.843 122.175 419.961C124.374 421.08 126.793 421.697 129.259 421.77C131.725 421.843 134.176 421.369 136.437 420.382C137.167 419.981 137.973 419.737 138.803 419.664C139.632 419.592 140.468 419.693 141.257 419.962C153.137 424.412 164.397 412.152 164.427 402.532C164.427 396.732 163.587 391.152 160.337 385.892C162.712 385.917 165.087 385.79 167.447 385.512C172.635 384.459 177.375 381.84 181.026 378.007C184.678 374.175 187.066 369.314 187.867 364.082C189.117 356.082 186.867 349.462 180.817 344.152C179.984 343.486 179.414 342.547 179.207 341.502C177.547 333.102 170.437 329.942 163.507 330.102C159.529 330.22 155.622 331.185 152.047 332.932V332.932Z" fill="white"/>
<path d="M129.817 355.991C130.237 355.281 130.547 354.681 130.917 354.121C131.597 353.121 132.327 351.821 133.747 352.321C135.167 352.821 135.157 354.321 135.017 355.641C134.722 357.462 134.099 359.214 133.177 360.811C135.257 361.673 137.167 362.899 138.817 364.431C139.607 365.261 140.727 366.091 139.887 367.331C139.509 367.827 138.969 368.175 138.361 368.316C137.753 368.456 137.115 368.381 136.557 368.101C135.157 367.591 133.807 366.931 132.377 366.321C132.157 368.571 132.547 370.791 131.917 372.961C131.587 374.111 131.267 375.311 129.917 375.451C128.567 375.591 127.917 374.451 127.467 373.451C126.547 371.451 126.527 369.271 126.357 367.001C124.459 367.938 122.383 368.46 120.267 368.531C119.477 368.581 118.687 368.531 118.267 367.731C117.807 366.731 118.557 366.131 119.267 365.651C120.162 365.055 121.087 364.504 122.037 364.001C120.377 363.151 118.757 362.341 117.157 361.501C117.013 361.448 116.88 361.366 116.767 361.261C116.654 361.156 116.564 361.029 116.5 360.889C116.437 360.748 116.402 360.596 116.398 360.442C116.394 360.288 116.421 360.135 116.477 359.991C116.595 359.707 116.805 359.47 117.073 359.319C117.342 359.169 117.653 359.113 117.957 359.161C118.717 359.161 119.357 359.831 120.227 359.461C119.377 358.381 118.507 357.331 117.697 356.241C117.306 355.851 117.069 355.332 117.031 354.78C116.992 354.229 117.154 353.682 117.487 353.241C118.287 352.291 119.397 352.611 120.487 353.011C122.157 353.651 123.297 355.011 124.957 356.201C124.797 354.821 124.647 353.731 124.537 352.641C124.439 352.185 124.517 351.708 124.754 351.306C124.991 350.904 125.371 350.606 125.817 350.471C126.757 350.191 127.397 350.811 127.917 351.471C128.747 352.888 129.385 354.407 129.817 355.991V355.991Z" fill="#F4ECE9"/>
</svg>
