<svg width="4" height="41" viewBox="0 0 4 41" fill="none" xmlns="http://www.w3.org/2000/svg">
<path d="M1.75506 2.29904V20.0727L2.58478 19.4345C2.61445 19.4061 2.64152 19.3904 2.666 19.3874C2.7068 19.3824 2.74698 19.4066 2.78654 19.4597C2.82807 19.5292 2.8528 19.5966 2.86071 19.6618C2.86961 19.7353 2.85873 19.7821 2.82807 19.8024L1.81 20.5219L2.75313 21.0285C2.77143 21.0429 2.78206 21.0623 2.78503 21.0868C2.78898 21.1194 2.7781 21.1662 2.75239 21.2273C2.73483 21.2874 2.71221 21.3398 2.68452 21.3846C2.62913 21.4741 2.58005 21.5131 2.53728 21.5018C2.50167 21.4812 2.47979 21.4715 2.47163 21.4725L1.75506 21.0399V38.1917L2.62884 37.5327C2.65851 37.5042 2.68558 37.4885 2.71006 37.4856C2.75086 37.4806 2.79104 37.5047 2.8306 37.5579C2.87213 37.6274 2.89686 37.6947 2.90477 37.76C2.91367 37.8335 2.90279 37.8803 2.87213 37.9006L1.85406 38.6201L2.79719 39.1267C2.81549 39.141 2.82612 39.1604 2.82909 39.1849C2.83304 39.2176 2.82217 39.2644 2.79645 39.3255C2.77889 39.3856 2.75627 39.438 2.72858 39.4827C2.67319 39.5722 2.62411 39.6113 2.58134 39.5999C2.54573 39.5794 2.52385 39.5696 2.51569 39.5706L1.70237 39.1104L1.66082 39.9971C1.65859 40.0471 1.61507 40.0979 1.53027 40.1496C1.45263 40.1921 1.36893 40.2188 1.27918 40.2297C1.17311 40.2425 1.12836 40.2148 1.14492 40.1466L1.18833 39.1727L0.33716 39.8347C0.320841 39.8366 0.305017 39.8427 0.289688 39.8528C0.282517 39.862 0.266693 39.868 0.242215 39.871C0.201419 39.876 0.161241 39.8518 0.121681 39.7987C0.0791553 39.7211 0.0539368 39.6496 0.0460257 39.5843C0.0391034 39.5272 0.0504776 39.4844 0.0801482 39.456L1.11973 38.7091L0.142844 38.2314C0.124548 38.217 0.114411 38.2017 0.112433 38.1854C0.105511 38.1283 0.1426 38.0244 0.2237 37.8738C0.287245 37.7833 0.33682 37.7484 0.372423 37.7689L0.438068 37.7982L1.25506 38.195V21.0986L0.293099 21.7365C0.27678 21.7385 0.260956 21.7445 0.245626 21.7547C0.238456 21.7638 0.222632 21.7699 0.198154 21.7728C0.157357 21.7778 0.117179 21.7537 0.0776199 21.7005C0.0350939 21.6229 0.00987532 21.5514 0.00196421 21.4861C-0.00495802 21.429 0.00641616 21.3863 0.0360867 21.3578L1.07566 20.6109L0.0987825 20.1332C0.0804862 20.1188 0.0703492 20.1035 0.0683714 20.0872C0.0614492 20.0301 0.0985385 19.9262 0.179639 19.7757C0.243184 19.6852 0.292758 19.6502 0.328362 19.6707L0.394007 19.7L1.25506 20.1332V2.3691L0.47111 2.99968C0.454791 3.00166 0.438967 3.00772 0.423637 3.01786C0.416467 3.027 0.400643 3.03306 0.376165 3.03603C0.335368 3.04097 0.29519 3.01687 0.255631 2.96371C0.213105 2.88607 0.187886 2.81461 0.179975 2.74934C0.173053 2.69222 0.184427 2.64945 0.214098 2.62102L1.25368 1.87409L0.276794 1.39638C0.258497 1.38204 0.24836 1.36671 0.246383 1.35039C0.23946 1.29328 0.276549 1.18943 0.35765 1.03886C0.421195 0.948365 0.470769 0.91338 0.506373 0.933902L0.572018 0.963202L1.38386 1.41123L1.42096 0.487751C1.43135 0.436818 1.47536 0.390088 1.553 0.347562C1.63879 0.304047 1.72657 0.27685 1.81632 0.265973C1.90607 0.255095 1.95082 0.282788 1.95057 0.349051L1.8979 1.34893L2.76279 0.697686C2.79246 0.669253 2.81953 0.653553 2.84401 0.650587C2.88481 0.645642 2.92499 0.66975 2.96455 0.722909C3.00608 0.792387 3.03081 0.859764 3.03872 0.925038C3.04762 0.998472 3.03674 1.04533 3.00608 1.0656L1.98801 1.78509L2.93114 2.29172C2.94944 2.30606 2.96007 2.32547 2.96304 2.34994C2.96699 2.38258 2.95611 2.42944 2.9304 2.49051C2.91284 2.55059 2.89022 2.60301 2.86253 2.64776C2.80714 2.73726 2.75806 2.77633 2.71529 2.76495C2.67968 2.74443 2.6578 2.73466 2.64964 2.73565L1.75506 2.29904Z" fill="black"/>
</svg>
