<svg width="62" height="86" viewBox="0 0 62 86" fill="none" xmlns="http://www.w3.org/2000/svg">
<path fill-rule="evenodd" clip-rule="evenodd" d="M21.4012 77.787C19.2699 78.747 16.3745 79.908 12.7152 81.27C8.59921 83.252 4.80256 84.7954 1.32523 85.9L0.835238 86C-0.0907618 85.003 -0.240773 84.013 0.355227 83L0.835238 82.89C3.4419 82.3233 7.29855 81.47 12.4052 80.33C16.3779 78.8487 19.4389 77.606 21.5882 76.602C22.5382 75.604 22.9632 73.803 22.8452 71.18C22.6412 66.644 22.3872 58.761 30.9452 55C28.2732 63.195 32.8432 66.982 23.9452 71.99C23.5572 73.236 23.5122 74.415 23.7892 75.507C26.2422 74.225 28.6062 72.781 30.8552 71.18C32.1112 70.284 33.3232 69.331 34.4872 68.324C35.2419 67.1693 35.3946 65.728 34.9452 64C34.1332 60.875 29.8552 52.789 39.9452 46C37.9762 53.844 44.1292 56.586 35.9452 64C35.4722 65.012 36.1062 65.805 36.9932 66.002C37.2482 65.742 37.5032 65.483 37.7552 65.22C40.3202 62.541 42.5202 59.546 44.2962 56.308C44.8462 53.372 44.8222 51.368 43.9452 50.55C39.5232 46.426 38.3632 38.779 42.9452 34C42.6872 40.309 49.3842 38.938 44.9452 50C44.9402 51.477 45.1952 52.679 45.6872 53.588C46.1422 52.593 46.5632 51.58 46.9452 50.55C47.9852 47.71 48.7552 44.79 49.2452 41.81C49.4272 40.688 49.5772 39.563 49.6942 38.435C49.3162 36.685 48.5542 35.554 47.8852 35C36.6952 30.656 39.9452 22.219 38.9452 18C46.2932 20.412 50.3532 25.765 48.9452 34C48.7692 35.132 49.0722 36.083 49.8322 36.83C49.9612 35.262 50.0202 33.691 50.0152 32.12C50.0052 29.09 49.6152 25.95 49.2452 22.94C41.7102 16.922 39.2862 9.285 41.9452 0C51.1542 6.992 53.9372 14.345 50.2352 22L50.0052 22.94C50.3752 25.98 51.0052 29.05 51.0152 32.11C51.0222 34.387 50.9012 36.655 50.6472 38.91C51.5082 38.635 52.3182 37.876 52.9452 36C52.8212 28.878 53.2132 21.931 61.9452 17C59.1642 25.672 63.1332 28.75 54.9452 35C52.9942 39.93 51.2792 38.901 50.2262 42.025C49.7262 45.046 48.9392 48.017 47.8852 50.89C47.2762 52.529 46.5712 54.126 45.7732 55.672C46.7962 55.201 47.8592 54.309 48.9452 53C50.7412 48.391 54.4172 44.068 59.9452 40C60.2422 43.109 54.9452 53 49.2452 54C48.2082 55.326 46.3312 57.154 43.5702 59.473C42.0832 61.771 40.3782 63.93 38.4752 65.92C37.9162 66.502 37.3442 67.07 36.7512 67.616C36.8302 68.309 37.3512 69.005 38.9452 67C43.1092 63.969 46.8002 59.855 53.9452 60C51.4062 66.746 47.4682 69.734 37.9452 69C35.4112 69.261 34.2992 70.225 33.1532 70.701C32.5942 71.147 32.0192 71.575 31.4352 71.99C29.1052 73.652 26.6642 75.145 24.1262 76.464C24.7456 77.0793 26.3519 76.9947 28.9452 76.21C34.3062 71.783 39.6302 71.036 44.9452 74C41.4452 77.234 34.6952 80.141 28.9452 78C26.8002 77.506 24.2792 77.429 21.4012 77.787Z" fill="#0D0D0D"/>
</svg>
