<svg width="22" height="21" viewBox="0 0 22 21" fill="none" xmlns="http://www.w3.org/2000/svg">
<path d="M11.2764 14.7755C13.1764 15.8855 14.7064 17.4855 16.8464 18.1055C17.3593 18.3122 17.9238 18.3539 18.4615 18.2249C18.9991 18.0958 19.4832 17.8024 19.8464 17.3855C20.6164 16.4955 20.2364 15.5355 19.8464 14.6255C19.1243 13.3948 17.9746 12.4729 16.6164 12.0355C16.1564 11.8355 15.6664 11.7155 14.9364 11.4755C15.5964 11.1155 16.0164 10.8755 16.4564 10.6555C18.035 9.83819 19.4038 8.66785 20.4564 7.23547C20.9159 6.68717 21.148 5.98382 21.1053 5.26974C21.0625 4.55567 20.748 3.88502 20.2264 3.39548C19.2764 2.39548 18.1664 2.39548 16.8264 3.30548C15.4863 4.30462 14.3378 5.5378 13.4364 6.9455C13.0564 6.4055 13.1964 5.80549 13.1164 5.25549C12.9579 3.71946 12.3412 2.26655 11.3464 1.08548C11.0214 0.618645 10.5487 0.27494 10.0043 0.109833C9.46003 -0.055275 8.87596 -0.0321579 8.34641 0.175476C7.87941 0.378237 7.49012 0.726006 7.23617 1.16727C6.98222 1.60853 6.8771 2.11983 6.93641 2.62549C6.95074 4.94148 7.6463 7.20205 8.93641 9.12549C7.40641 9.01549 6.04641 8.48548 4.59641 8.52548C3.53738 8.52713 2.48496 8.69244 1.47641 9.0155C1.07289 9.1256 0.714041 9.35943 0.45035 9.68411C0.186659 10.0088 0.0313968 10.408 0.00641041 10.8255C-0.0274316 11.2618 0.0732932 11.698 0.295011 12.0753C0.51673 12.4525 0.84878 12.7528 1.24641 12.9355C2.20438 13.3985 3.26389 13.6118 4.32641 13.5555H5.73641C4.74516 14.5216 3.95942 15.6781 3.42641 16.9555C3.19032 17.3956 3.10738 17.9018 3.19066 18.3943C3.27395 18.8867 3.51872 19.3375 3.88641 19.6755C4.26901 19.9658 4.73611 20.123 5.21641 20.123C5.69671 20.123 6.16382 19.9658 6.54641 19.6755C8.24565 18.6702 9.64689 17.231 10.6064 15.5055C10.7533 15.2017 10.9863 14.9478 11.2764 14.7755Z" fill="#DB8A4D"/>
</svg>
