<svg width="9" height="118" viewBox="0 0 9 118" fill="none" xmlns="http://www.w3.org/2000/svg">
<path d="M5.19296 6.00899V58.482L7.64797 56.5977C7.73576 56.5138 7.81587 56.4674 7.8883 56.4587C8.00901 56.4441 8.12789 56.5152 8.24494 56.6722C8.36784 56.8773 8.441 57.0762 8.46441 57.2689C8.49074 57.4857 8.45855 57.624 8.36783 57.6839L5.35552 59.808L8.14611 61.3037C8.20025 61.3461 8.2317 61.4034 8.24048 61.4757C8.25218 61.572 8.21999 61.7103 8.14391 61.8906C8.09196 62.068 8.02502 62.2228 7.94308 62.3549C7.7792 62.6191 7.63398 62.7344 7.50742 62.7009C7.40208 62.6403 7.33733 62.6114 7.31319 62.6144L5.19296 61.3373V111.974L7.77834 110.029C7.86613 109.945 7.94624 109.898 8.01867 109.89C8.13938 109.875 8.25826 109.946 8.37531 110.103C8.49821 110.308 8.57137 110.507 8.59478 110.7C8.62111 110.917 8.58892 111.055 8.4982 111.115L5.48589 113.239L8.27648 114.735C8.33062 114.777 8.36207 114.834 8.37085 114.907C8.38256 115.003 8.35036 115.141 8.27428 115.322C8.22233 115.499 8.15539 115.654 8.07345 115.786C7.90958 116.05 7.76436 116.165 7.63779 116.132C7.53245 116.071 7.4677 116.042 7.44356 116.045L5.03705 114.686L4.91411 117.304C4.90752 117.452 4.77876 117.602 4.52783 117.754C4.29811 117.88 4.05047 117.959 3.78491 117.991C3.47106 118.029 3.33864 117.947 3.38766 117.746L3.51609 114.87L0.997606 116.825C0.949322 116.831 0.902501 116.849 0.857142 116.878C0.835926 116.905 0.789105 116.923 0.716678 116.932C0.595968 116.947 0.477087 116.876 0.360037 116.719C0.234209 116.489 0.159591 116.278 0.136183 116.086C0.115701 115.917 0.149356 115.791 0.237146 115.707L3.3131 113.502L0.422654 112.091C0.368518 112.049 0.338524 112.004 0.332672 111.956C0.31219 111.787 0.421932 111.48 0.661896 111.036C0.849916 110.769 0.996599 110.665 1.10195 110.726L1.29618 110.813L3.71354 111.984V61.5107L0.867235 63.3939C0.818951 63.3997 0.772129 63.4176 0.726771 63.4475C0.705555 63.4745 0.658734 63.4924 0.586307 63.5012C0.465596 63.5158 0.346716 63.4446 0.229666 63.2876C0.103837 63.0584 0.0292196 62.8475 0.00581179 62.6548C-0.01467 62.4862 0.0189844 62.3599 0.106775 62.2759L3.18273 60.0708L0.292283 58.6605C0.238147 58.6181 0.208153 58.5729 0.202301 58.5247C0.181819 58.3561 0.291561 58.0495 0.531525 57.6049C0.719545 57.3378 0.866228 57.2345 0.971574 57.2951L1.16581 57.3816L3.71354 58.6605V6.21582L1.39394 8.07749C1.34566 8.08333 1.29884 8.10121 1.25348 8.13114C1.23226 8.15814 1.18544 8.17603 1.11302 8.18479C0.992304 8.19938 0.873424 8.12821 0.756374 7.97127C0.630546 7.74206 0.555928 7.5311 0.53252 7.3384C0.512038 7.16977 0.545692 7.04349 0.633483 6.95955L3.70944 4.7544L0.818991 3.34408C0.764855 3.30174 0.734861 3.25649 0.729009 3.20831C0.708527 3.03969 0.818268 2.73311 1.05823 2.28857C1.24625 2.02141 1.39294 1.91812 1.49828 1.97871L1.69251 2.06521L4.09463 3.38793L4.20441 0.661546C4.23514 0.511176 4.36536 0.373216 4.59508 0.247667C4.84894 0.119198 5.10865 0.0389068 5.37422 0.00679268C5.63978 -0.0253215 5.77219 0.0564357 5.77146 0.252064L5.61559 3.204L8.17468 1.28133C8.26247 1.19739 8.34258 1.15104 8.41501 1.14228C8.53572 1.12769 8.6546 1.19886 8.77165 1.3558C8.89455 1.56092 8.96771 1.75983 8.99111 1.95254C9.01745 2.16934 8.98526 2.30766 8.89454 2.36752L5.88223 4.49165L8.67282 5.98737C8.72695 6.0297 8.75841 6.08701 8.76719 6.15927C8.77889 6.25563 8.7467 6.39395 8.67062 6.57425C8.61867 6.75163 8.55173 6.90638 8.46979 7.0385C8.30591 7.30274 8.16069 7.41807 8.03413 7.38449C7.92878 7.3239 7.86404 7.29507 7.8399 7.29799L5.19296 6.00899Z" fill="black"/>
</svg>
