<svg width="29" height="27" viewBox="0 0 29 27" fill="none" xmlns="http://www.w3.org/2000/svg">
<path d="M24.3482 14.396C25.6537 13.2089 26.6464 11.7182 27.2382 10.056C27.6184 8.94208 27.688 7.7457 27.4396 6.59525C27.1912 5.4448 26.6341 4.38373 25.8283 3.52595C25.4268 3.10046 24.9388 2.76603 24.3972 2.54522C23.8555 2.32441 23.2727 2.22235 22.6882 2.24595C22.1868 2.24099 21.691 2.13912 21.2282 1.94595C20.6047 1.63134 19.891 1.5441 19.2101 1.69926C18.5293 1.85443 17.9238 2.24228 17.4982 2.79595C17.1482 3.18595 16.8382 3.60595 16.4982 4.06595C16.1572 3.35266 15.7344 2.68148 15.2382 2.06595C14.6631 1.31215 13.8946 0.728174 13.0142 0.376036C12.1339 0.0238972 11.1746 -0.083252 10.2382 0.0659542C8.64887 0.0886974 7.08832 0.49341 5.68824 1.24595C4.61869 1.91421 3.82072 2.94006 3.43622 4.14117C3.05172 5.34227 3.10562 6.64081 3.58826 7.80595C3.81378 8.23071 3.96587 8.69051 4.03821 9.16595C4.11366 10.38 4.65886 11.517 5.55823 12.336C4.37231 12.6594 3.24268 13.1619 2.20826 13.826C1.39113 14.3067 0.747544 15.0343 0.370182 15.904C-0.00718012 16.7738 -0.0989022 17.7408 0.108219 18.666C0.170238 18.9814 0.300984 19.2793 0.491092 19.5385C0.681201 19.7978 0.926048 20.012 1.20826 20.166C2.07327 20.7316 2.8344 21.442 3.45826 22.266C4.47807 23.4225 5.90949 24.1347 7.44709 24.2505C8.98468 24.3663 10.5067 23.8767 11.6882 22.8859C12.1146 22.4807 12.5122 22.0464 12.8782 21.586C13.2389 22.3169 13.6499 23.0219 14.1082 23.696C14.8177 24.6927 15.8004 25.4628 16.9377 25.9135C18.0751 26.3642 19.3186 26.4762 20.5183 26.236C21.261 26.1515 21.9762 25.9054 22.6137 25.5149C23.2512 25.1245 23.7955 24.5992 24.2083 23.976C24.2784 23.8739 24.3751 23.793 24.4879 23.7419C24.6006 23.6908 24.7252 23.6714 24.8482 23.6859C26.3582 23.5959 27.6782 23.146 28.2282 21.576C28.6063 20.7819 28.7407 19.8937 28.6143 19.0233C28.488 18.153 28.1066 17.3397 27.5183 16.6859C26.6216 15.7226 25.5445 14.9446 24.3482 14.396ZM14.2382 13.896C14.0721 13.3522 14.0011 12.7839 14.0283 12.216C14.0283 11.846 14.1682 11.526 14.5582 11.426C14.7295 11.3917 14.9072 11.413 15.0654 11.4867C15.2237 11.5605 15.3543 11.6828 15.4382 11.836C15.7231 12.2847 15.9199 12.7836 16.0183 13.306C16.4595 13.0659 16.9255 12.8748 17.4082 12.736C17.6366 12.6493 17.8889 12.6493 18.1174 12.7359C18.3458 12.8224 18.5347 12.9897 18.6483 13.2059C18.9083 13.726 18.5883 14.0859 18.2183 14.386C17.9187 14.5987 17.6083 14.7956 17.2882 14.976C17.4182 15.496 17.7283 16.066 17.1483 16.486C16.5683 16.906 15.9882 16.486 15.4782 16.126C15.2582 16.306 15.0782 16.486 14.8782 16.626C14.7119 16.7557 14.514 16.8389 14.3049 16.867C14.0958 16.8952 13.883 16.8672 13.6882 16.786C13.5104 16.6961 13.3693 16.5472 13.2891 16.3648C13.2088 16.1824 13.1944 15.9778 13.2482 15.786C13.2482 15.476 13.0982 15.4159 12.9282 15.2759C12.8262 15.209 12.745 15.1148 12.694 15.0039C12.6431 14.893 12.6243 14.77 12.64 14.649C12.6556 14.5279 12.705 14.4138 12.7825 14.3195C12.86 14.2252 12.9625 14.1547 13.0783 14.1159C13.4478 13.9708 13.8412 13.8962 14.2382 13.896Z" fill="#FBDDD3"/>
</svg>
