<svg width="573" height="464" viewBox="0 0 573 464" fill="none" xmlns="http://www.w3.org/2000/svg">
<path d="M426.245 254.214C426.245 251.864 423.755 249.014 421.735 249.084C419.715 249.154 419.045 250.374 418.935 252.084C418.785 254.404 421.315 257.284 423.425 257.214C425.305 257.134 426.075 255.914 426.245 254.214Z" fill="#DDC0B6"/>
<path d="M446.785 233.383C446.875 230.803 445.115 228.383 443.085 228.303C442.664 228.293 442.245 228.372 441.857 228.534C441.468 228.697 441.119 228.939 440.83 229.246C440.541 229.552 440.32 229.916 440.182 230.314C440.043 230.711 439.989 231.133 440.025 231.553C440.025 233.863 442.125 236.633 444.085 236.783C445.795 236.913 446.695 235.773 446.785 233.383Z" fill="#DDC0B6"/>
<path d="M386.065 249.533C386.081 248.093 385.671 246.68 384.885 245.473C384.598 244.849 384.095 244.349 383.468 244.065C382.841 243.782 382.134 243.736 381.475 243.933C379.875 244.413 379.625 245.743 379.705 247.183C379.804 248.621 380.357 249.99 381.285 251.093C382.085 252.093 382.995 253.143 384.455 252.673C385.915 252.203 386.025 250.843 386.065 249.533Z" fill="#DDC0B6"/>
<path d="M361.365 242.604C361.359 240.648 360.649 238.759 359.365 237.284C359.022 236.839 358.545 236.516 358.005 236.365C357.464 236.213 356.888 236.241 356.365 236.444C355.841 236.654 355.405 237.038 355.132 237.532C354.859 238.026 354.764 238.599 354.865 239.154C354.913 240.187 355.211 241.192 355.733 242.084C356.256 242.976 356.987 243.727 357.865 244.274C359.725 245.454 361.365 244.464 361.365 242.604Z" fill="#DDC0B6"/>
<path d="M458.495 253.333C458.555 254.483 459.065 255.523 460.585 255.513C460.829 255.531 461.074 255.493 461.301 255.401C461.529 255.309 461.732 255.167 461.895 254.984C462.058 254.801 462.177 254.584 462.243 254.348C462.309 254.112 462.32 253.864 462.275 253.623C462.302 253.013 462.087 252.416 461.677 251.963C461.267 251.51 460.695 251.237 460.085 251.203C458.865 251.143 458.485 252.033 458.495 253.333Z" fill="#DDC0B6"/>
<path d="M472.725 253.324C472.435 252.204 472.155 251.054 470.725 251.014C470.503 250.974 470.276 250.99 470.061 251.059C469.847 251.128 469.653 251.25 469.497 251.412C469.341 251.574 469.227 251.772 469.166 251.989C469.104 252.205 469.097 252.434 469.145 252.654C469.255 253.844 469.735 254.834 471.145 254.934C472.245 255.024 472.645 254.314 472.725 253.324Z" fill="#DDC0B6"/>
<path d="M110.305 130.323C118.802 126.554 127.011 122.165 134.865 117.193C148.105 108.863 160.865 99.8734 173.865 91.1934C184.425 84.1234 194.415 76.2434 204.575 68.6134C216.385 59.7434 228.665 51.5234 240.745 43.0234C250.025 36.4934 258.965 29.5135 268.165 22.8735C276.211 16.9718 284.651 11.626 293.425 6.87344C295.035 6.02344 297.055 5.35341 296.845 2.71341C296.675 0.513409 295.585 -0.4566 293.405 0.2034C290.717 1.17487 288.16 2.4783 285.795 4.0834C272.905 11.8134 261.465 21.5034 249.905 30.9934C235.735 42.6334 220.995 53.5134 206.195 64.3234C196.685 71.2634 187.445 78.5834 177.745 85.2634C169.925 90.6434 161.975 95.8634 154.165 101.263C146.355 106.663 138.485 111.793 130.515 116.873C125.665 119.973 120.595 122.723 115.515 125.393C111.515 127.493 107.365 129.283 103.185 130.993C94.313 134.604 85.0904 137.285 75.6652 138.993C64.0352 141.133 52.4752 143.603 40.9352 146.203C40.3252 146.333 39.7151 146.443 39.1151 146.613C38.5151 146.783 37.9752 147.013 38.1952 147.793C38.4152 148.573 38.9951 148.333 39.4751 148.253C42.3851 147.763 45.3152 147.313 48.2152 146.723C59.1952 144.47 70.1718 142.19 81.1451 139.883C87.2845 138.489 93.3298 136.709 99.2452 134.553C102.985 133.243 106.625 131.583 110.305 130.323Z" fill="#7C5F50"/>
<path d="M258.515 53.7048C258.157 51.7458 257.993 49.7561 258.025 47.7648C257.911 45.1526 257.529 42.5589 256.885 40.0248C257.666 41.2218 258.601 42.311 259.665 43.2648C259.963 43.5792 260.357 43.7838 260.786 43.8456C261.214 43.9073 261.651 43.8225 262.025 43.6048C262.835 43.1348 262.735 42.3748 262.645 41.6048C262.162 38.6606 261.047 35.8561 259.375 33.3848C258.715 32.3048 258.205 31.1648 257.655 30.0348C257.405 29.5545 257.29 29.0155 257.322 28.475C257.353 27.9345 257.531 27.4127 257.835 26.9648C259.305 24.3448 259.075 21.4648 258.725 18.6348C258.635 17.9048 258.345 16.9448 257.305 16.9548C256.265 16.9648 255.995 17.7648 255.695 18.5248C255.395 19.2848 255.245 19.9148 254.855 20.9148C254.145 19.2548 253.535 17.8648 252.945 16.4648C252.535 15.4648 251.875 14.7348 250.745 14.9748C249.615 15.2148 249.375 16.2748 249.355 17.2748C249.396 18.0729 249.486 18.8678 249.625 19.6548C246.73 18.419 243.765 17.3538 240.745 16.4648C238.891 15.8832 236.958 15.5964 235.015 15.6149C233.195 15.7149 231.605 16.1748 231.175 18.2948C228.201 17.3956 225.171 16.6908 222.105 16.1849C221.482 16.0915 220.854 16.038 220.225 16.0248C218.695 16.0248 217.165 16.0249 216.475 17.7549C215.785 19.4849 216.605 20.7549 217.755 21.7549C223.835 26.8749 230.505 30.3848 238.835 29.0748C239.094 29.0478 239.356 29.0478 239.615 29.0748C239.075 29.7648 238.345 29.5949 237.765 29.8049C237.185 30.0149 236.585 30.2449 235.985 30.4249C233.475 31.2049 233.105 31.9748 234.265 34.2348C232.81 33.8628 231.472 33.1303 230.375 32.1048C228.324 30.3718 225.942 29.0723 223.375 28.2848C216.842 26.1448 210.268 24.1682 203.655 22.3548C202.886 22.1334 202.105 21.9564 201.315 21.8248C198.315 21.3448 196.915 22.4049 196.605 25.5549L192.605 23.3548C192.206 23.1314 191.792 22.9375 191.365 22.7748C189.875 22.2348 188.285 21.7748 187.135 23.2848C185.985 24.7948 187.065 26.0548 187.965 27.2848C188.135 27.5048 188.265 27.7549 188.645 28.3649C187.395 27.7249 186.525 27.2449 185.645 26.8149C184.684 26.303 183.68 25.8747 182.645 25.5348C181.065 25.1048 179.515 25.2748 178.515 26.7748C178.081 27.4209 177.871 28.1918 177.918 28.9688C177.965 29.7458 178.266 30.4857 178.775 31.0748C180.339 33.2758 182.491 34.9914 184.985 36.0248C187.846 37.4777 190.911 38.4892 194.075 39.0248C195.405 39.1748 196.515 40.8748 196.625 41.9548C196.702 42.7096 196.931 43.441 197.299 44.1045C197.667 44.7681 198.165 45.35 198.765 45.8149C200.577 47.2984 202.599 48.5049 204.765 49.3948C204.275 50.3948 203.765 50.5449 202.845 49.9349C201.425 48.9349 199.945 48.1048 198.445 47.2748C197.786 46.9308 197.083 46.6784 196.355 46.5248C195.789 46.3021 195.168 46.2634 194.579 46.4142C193.99 46.565 193.464 46.8977 193.075 47.3649C192.235 48.5149 192.685 49.7948 193.185 50.9548C193.61 51.7875 194.098 52.5865 194.645 53.3448C191.604 52.1235 188.641 50.7142 185.775 49.1249C184.445 48.4649 183.135 47.7249 181.775 47.1949C180.415 46.6649 178.675 46.3948 177.555 47.9148C176.435 49.4348 177.135 50.8248 178.215 52.0748L179.435 53.4548C178.335 56.3448 181.065 57.2948 182.375 59.2348C180.241 58.3709 178.053 57.646 175.825 57.0649C174.808 56.9476 173.84 56.5616 173.021 55.9465C172.202 55.3314 171.561 54.5094 171.165 53.5649C169.845 50.7849 167.275 49.6748 165.165 50.2248C163.055 50.7748 161.715 53.0548 161.635 56.2848C161.555 59.6748 162.635 62.8148 163.635 65.9548C163.766 66.2721 163.833 66.6117 163.835 66.9548C162.638 65.9416 161.531 64.8275 160.525 63.6249C156.765 58.4568 152.401 53.7567 147.525 49.6249C146.787 48.9909 145.975 48.4501 145.105 48.0148C142.235 46.6048 139.605 48.3249 139.865 51.4949C140.085 54.2649 141.575 56.4948 143.105 58.7648C145.705 62.3656 148.726 65.6422 152.105 68.5248C149.223 67.7432 146.391 66.7881 143.625 65.6648C141.845 64.9348 140.395 65.9748 140.725 67.6648C140.945 68.5489 141.378 69.3658 141.985 70.0448C141.595 70.6448 140.985 70.4649 140.425 70.6149C139.543 70.8308 138.733 71.2767 138.079 71.9073C137.425 72.5379 136.95 73.3306 136.702 74.2046C136.454 75.0786 136.442 76.0028 136.667 76.8829C136.893 77.763 137.347 78.5676 137.985 79.2148C139.724 80.9618 141.823 82.3097 144.135 83.1648C145.655 83.8248 147.195 84.4448 148.835 85.1648C148.315 85.9993 147.931 86.9105 147.695 87.8649C143.455 86.5649 139.305 85.2848 135.145 84.0448C133.282 83.4974 131.363 83.162 129.425 83.0448C127.755 82.9448 126.105 83.1448 125.355 84.8748C124.605 86.6048 125.585 87.9849 126.755 89.1449C129.005 91.3849 131.895 92.5048 134.755 93.6548C135.065 93.7848 135.395 93.8848 135.825 94.0448C135.455 94.6339 134.914 95.0955 134.274 95.3673C133.634 95.6391 132.926 95.708 132.245 95.5648C125.845 94.6948 119.425 94.0248 113.045 93.0448C111.524 92.8004 109.986 92.6701 108.445 92.6548C104.365 92.6548 103.025 94.8348 104.855 98.6548C100.41 97.0963 95.8624 95.8466 91.245 94.9148C90.3535 94.712 89.4375 94.6379 88.525 94.6948C87.8646 94.732 87.2277 94.9529 86.6862 95.3327C86.1446 95.7125 85.7199 96.236 85.46 96.8442C85.2001 97.4524 85.1152 98.1212 85.2151 98.775C85.3149 99.4289 85.5954 100.042 86.025 100.545C88.505 103.855 92.115 105.655 95.645 107.545C97.045 108.305 98.475 108.995 99.995 109.775C99.365 110.305 98.905 109.895 98.475 109.775C97.0055 109.3 95.4849 109.001 93.945 108.885C89.515 108.705 87.605 111.165 89.035 115.535C87.1697 113.69 85.2034 111.951 83.145 110.325C75.725 104.865 67.435 103.325 58.465 104.775C57.8459 104.881 57.2482 105.087 56.695 105.385C54.205 106.695 53.855 109.205 55.895 111.165C57.4816 112.566 59.285 113.701 61.235 114.525C68.1485 117.981 75.3282 120.877 82.705 123.185C82.795 123.185 82.865 123.325 83.045 123.505C81.775 124.055 80.135 124.285 80.635 126.385C76.745 124.455 73.115 122.385 69.235 120.835C68.0863 120.32 66.8863 119.928 65.655 119.665C65.025 119.565 64.255 119.395 63.815 119.745C62.055 121.195 60.685 120.065 59.225 119.255C56.4475 117.653 53.4533 116.461 50.335 115.715C49.91 115.527 49.4413 115.46 48.9807 115.522C48.5201 115.584 48.0855 115.772 47.725 116.065C47.725 117.065 48.425 117.625 49.225 118.125C52.465 120.125 56.115 120.835 59.775 121.475C61.005 121.695 61.975 121.915 62.355 123.425C62.735 124.935 64.035 125.685 65.175 126.545C67.2289 127.936 69.3775 129.183 71.605 130.275C67.835 130.155 67.835 130.155 66.825 131.965C65.115 131.075 63.425 130.125 61.675 129.285C51.6319 124.439 40.4306 122.509 29.345 123.715C28.0913 123.812 26.8635 124.123 25.715 124.635C24.9802 124.896 24.3378 125.367 23.867 125.989C23.3961 126.611 23.1174 127.357 23.065 128.135C23.0447 128.945 23.2762 129.742 23.7275 130.415C24.1788 131.089 24.8278 131.606 25.585 131.895C27.385 132.805 29.405 133.015 31.775 133.675C28.935 133.875 26.505 133.625 24.135 134.245C22.605 134.655 21.255 135.245 21.035 137.005C20.815 138.765 21.965 139.835 23.415 140.605C23.855 140.845 24.315 141.075 24.795 141.325C24.325 141.835 23.795 141.595 23.305 141.565C19.095 141.305 14.865 141.325 10.705 140.435C9.94502 140.275 9.31501 140.435 9.03501 141.195C8.75501 141.955 9.25502 142.515 9.88502 142.855C11.2692 143.547 12.7542 144.017 14.285 144.245C17.285 144.825 20.365 144.915 23.405 145.245C17.6717 146.578 12.005 148.102 6.40502 149.815C4.47499 150.386 2.7116 151.415 1.26502 152.815C0.845084 153.128 0.526381 153.557 0.348579 154.05C0.170776 154.542 0.141722 155.076 0.265021 155.585C0.655021 156.815 1.75502 157.105 2.84502 157.265C7.14714 157.826 11.5108 157.704 15.775 156.905C22.9151 155.82 29.9433 154.097 36.775 151.755C33.9291 153.852 31.2016 156.106 28.605 158.505C27.7626 159.276 27.0201 160.149 26.395 161.105C25.805 162.105 25.395 163.255 26.205 164.325C27.015 165.395 28.305 165.325 29.485 164.855C31.3344 164.089 33.0625 163.058 34.615 161.795C36.535 160.331 38.7177 159.248 41.045 158.605C44.5555 157.545 47.9339 156.089 51.115 154.265C48.645 156.585 45.795 158.445 43.115 160.515C39.965 162.945 36.655 165.185 33.715 167.895C31.545 169.895 30.975 171.555 31.805 173.255C32.635 174.955 34.445 175.645 37.345 175.045C41.345 174.225 44.515 171.855 47.725 169.585C52.8822 166.021 57.6813 161.966 62.055 157.475C62.245 157.265 62.395 156.995 62.845 157.085C61.315 159.245 59.545 161.175 58.245 163.435C57.858 164.125 57.5237 164.844 57.245 165.585C57.1002 165.868 57.0502 166.189 57.1025 166.503C57.1547 166.816 57.3064 167.104 57.535 167.325C57.7759 167.533 58.075 167.662 58.3916 167.694C58.7083 167.726 59.0272 167.66 59.305 167.505C60.9285 166.802 62.4122 165.813 63.685 164.585C68.125 160.665 72.045 156.315 74.365 150.765C74.9845 149.483 75.997 148.432 77.255 147.765C79.0101 146.692 80.6199 145.398 82.045 143.915C83.135 142.725 84.725 143.195 86.045 142.495C86.045 143.395 85.345 143.615 84.935 143.975C82.095 146.445 79.085 148.705 76.445 151.395C75.6405 152.196 74.9077 153.066 74.255 153.995C73.065 155.715 73.005 157.565 73.955 158.805C74.5656 159.536 75.3991 160.046 76.3276 160.257C77.2561 160.468 78.2283 160.369 79.095 159.975C82.575 158.715 85.235 156.295 87.805 153.775C90.3496 151.4 92.6112 148.739 94.545 145.845C95.215 144.795 95.955 145.295 96.925 145.205C96.105 146.955 95.365 148.485 94.675 150.035C94.3285 150.755 94.0571 151.509 93.865 152.285C93.7107 152.744 93.6952 153.238 93.8205 153.705C93.9457 154.173 94.2062 154.593 94.5691 154.914C94.9321 155.234 95.3815 155.44 95.861 155.506C96.3406 155.572 96.829 155.495 97.265 155.285C99.025 154.695 100.345 153.415 101.905 152.045C101.538 153.846 100.96 155.598 100.185 157.265C98.6882 160.231 97.5758 163.377 96.875 166.625C96.6837 167.461 96.5964 168.317 96.615 169.175C96.5716 169.58 96.6527 169.988 96.8475 170.345C97.0423 170.703 97.3414 170.992 97.705 171.175C98.0793 171.326 98.4895 171.365 98.8854 171.286C99.2814 171.208 99.6461 171.017 99.935 170.735C101.275 169.66 102.381 168.323 103.185 166.805C105.243 163.423 106.521 159.624 106.925 155.685C106.925 155.145 106.835 154.505 107.595 154.015C107.595 155.375 107.595 156.625 107.685 157.865C107.775 159.105 107.995 160.465 109.355 160.995C109.981 161.21 110.653 161.25 111.3 161.111C111.947 160.972 112.543 160.658 113.025 160.205C116.025 157.775 117.375 154.415 118.105 150.755C118.598 147.594 118.531 144.372 117.905 141.235C122.665 143.035 123.905 138.855 126.485 136.535C126.195 137.375 125.905 138.225 125.595 139.055C125.285 139.885 124.925 140.885 124.545 141.785C121.908 147.52 120.016 153.569 118.915 159.785C118.751 160.743 118.67 161.713 118.675 162.685C118.627 163.432 118.803 164.177 119.18 164.824C119.558 165.471 120.12 165.99 120.795 166.315C121.498 166.642 122.277 166.772 123.049 166.691C123.82 166.61 124.555 166.321 125.175 165.855C126.807 164.68 128.114 163.111 128.975 161.295C132.352 154.7 133.948 147.337 133.605 139.935C133.605 139.535 133.555 139.145 133.545 138.745C133.545 138.655 133.635 138.565 133.685 138.465C135.305 142.295 137.865 142.465 141.165 138.975C141.045 140.335 140.945 141.495 140.835 142.645C140.65 144.116 140.65 145.604 140.835 147.075C141.195 149.355 143.045 150.125 144.955 148.785C146.467 147.649 147.676 146.159 148.475 144.445C150.613 140.264 152.306 135.87 153.525 131.335C153.795 130.385 154.055 129.735 155.295 129.745C155.924 129.687 156.536 129.504 157.094 129.207C157.652 128.91 158.145 128.505 158.545 128.015C159.155 127.415 159.705 126.765 160.265 126.145C163.265 127.485 164.835 127.045 166.635 124.295C168.635 121.295 169.775 117.945 171.115 114.665C171.382 113.907 171.609 113.136 171.795 112.355L172.305 112.505C172.085 113.635 171.815 114.755 171.655 115.885C171.435 117.355 171.065 119.005 172.845 119.765C174.455 120.465 175.515 119.335 176.475 118.225C176.645 118.025 176.835 117.835 177.035 117.625C177.545 118.075 177.295 118.555 177.265 118.965C176.915 124.095 177.005 129.225 177.055 134.355C177.062 135.025 177.122 135.694 177.235 136.355C177.329 137.119 177.624 137.846 178.089 138.46C178.555 139.073 179.174 139.554 179.885 139.851C180.595 140.148 181.372 140.253 182.136 140.153C182.9 140.054 183.624 139.754 184.235 139.285C187.895 136.545 189.655 132.605 190.835 128.345C190.895 128.125 190.925 127.895 190.985 127.675C191.495 125.675 191.615 123.765 193.325 122.085C195.245 120.205 195.565 117.265 196.265 114.665C196.454 113.759 196.76 112.882 197.175 112.055C197.385 114.105 197.575 116.155 197.805 118.205C198.007 120.311 198.558 122.369 199.435 124.295C200.105 125.685 201.035 126.725 202.665 126.655C203.385 126.61 204.072 126.336 204.626 125.874C205.18 125.412 205.572 124.785 205.745 124.085C206.316 122.406 206.652 120.656 206.745 118.885C207.375 110.885 207.155 102.815 207.285 94.7848C207.418 92.6628 207.709 90.5536 208.155 88.4748C209.155 95.2548 212.975 97.2848 216.315 93.9548C215.836 95.4976 215.098 96.948 214.135 98.2448C213.392 99.3343 212.866 100.557 212.585 101.845C212.395 103.035 212.485 104.255 213.865 104.665C215.095 105.035 215.865 104.285 216.505 103.265C217.048 102.252 217.34 101.124 217.355 99.9748C217.626 97.3173 217.703 94.6435 217.585 91.9748C217.135 87.4648 218.125 82.9748 217.795 78.5148C217.795 77.8148 217.795 77.2248 218.585 76.8448C219.375 76.4648 219.665 75.4048 219.875 74.5348C220.345 72.4848 220.745 70.4149 221.165 68.3649C221.875 68.3649 221.975 68.7048 221.935 69.2648C221.775 71.2048 221.675 73.1348 223.055 74.7848C223.515 75.3448 223.005 75.8648 222.845 76.3848C220.595 83.5248 219.295 90.7948 220.275 98.3148C220.369 100.214 221.09 102.029 222.325 103.475C222.739 103.955 223.264 104.326 223.854 104.556C224.444 104.787 225.082 104.869 225.711 104.796C226.341 104.723 226.942 104.497 227.464 104.138C227.986 103.778 228.412 103.297 228.705 102.735C229.257 101.667 229.626 100.515 229.795 99.3248C230.456 95.1527 230.874 90.9456 231.045 86.7248C231.185 84.8548 231.335 82.9748 231.485 81.1048C231.655 81.1048 231.805 81.0248 231.865 81.1048C235.965 84.0348 239.485 81.2049 240.425 77.4249C240.968 74.6185 241.213 71.7626 241.155 68.9048C243.045 69.4148 243.735 69.0548 244.375 67.0248C245.375 63.9448 245.375 60.7348 245.585 57.5448C245.635 56.6848 245.745 55.8348 245.715 54.9848C245.715 53.8748 246.255 53.7548 247.165 53.9848C247.165 56.4348 247.165 58.8749 247.345 61.3149C247.525 63.539 248.129 65.708 249.125 67.7048C249.508 68.605 250.166 69.3608 251.005 69.8639C251.844 70.3669 252.821 70.5913 253.795 70.5049C254.674 70.3603 255.488 69.9519 256.129 69.334C256.77 68.716 257.208 67.9176 257.385 67.0448C258.202 63.5366 258.538 59.9336 258.385 56.3348C258.385 55.7348 258.145 55.0748 258.725 54.5748C258.675 54.2348 258.595 53.9148 258.515 53.7048ZM136.885 123.815C135.274 127.957 134.149 132.273 133.535 136.675C133.025 132.005 131.655 127.125 136.885 123.815Z" fill="#EEBEB0"/>
<path d="M171.415 123.515C170.035 127.155 167.565 130.035 165.075 132.925C163.135 135.175 161.945 137.925 160.495 140.535C159.495 142.275 160.495 143.905 162.545 144.065C163.548 144.131 164.551 143.952 165.469 143.545C166.387 143.137 167.192 142.512 167.815 141.725C169.778 139.605 170.837 136.803 170.765 133.915C170.583 130.435 170.802 126.945 171.415 123.515V123.515Z" fill="#EEBEB0"/>
<path d="M186.745 42.2637C184.455 39.9937 182.315 37.6937 179.165 36.8637C178.02 36.4934 176.79 36.476 175.635 36.8137C174.945 37.0437 174.255 37.5037 174.325 38.3937C174.35 38.7411 174.492 39.0697 174.728 39.3257C174.965 39.5818 175.281 39.7503 175.625 39.8037C179.335 40.6437 183.035 41.4537 186.745 42.2637Z" fill="#EEBEB0"/>
<path d="M247.245 68.0442C246.53 70.4506 245.679 72.8144 244.695 75.1242C244.087 76.5481 243.893 78.1148 244.135 79.6442C244.144 80.0927 244.319 80.5218 244.627 80.8485C244.934 81.1751 245.352 81.376 245.799 81.4121C246.246 81.4482 246.691 81.317 247.047 81.0439C247.402 80.7709 247.644 80.3754 247.725 79.9342C248.12 78.7986 248.247 77.5869 248.095 76.3942C247.607 73.6355 247.323 70.8446 247.245 68.0442V68.0442Z" fill="#EEBEB0"/>
<path d="M258.514 53.7041C258.594 53.9641 258.674 54.2342 258.764 54.4942C258.724 54.6639 258.724 54.8406 258.763 55.0105C258.802 55.1805 258.88 55.3392 258.99 55.4744C259.1 55.6096 259.24 55.7178 259.398 55.7906C259.557 55.8633 259.73 55.8987 259.904 55.8941C260.704 55.8941 260.974 55.1441 261.114 54.4641C261.554 52.2141 260.794 50.0641 260.434 47.8941C260.47 47.0144 260.202 46.1492 259.674 45.4442C259.535 48.2267 259.147 50.991 258.514 53.7041V53.7041Z" fill="#EEBEB0"/>
<path d="M188.305 45.9844C187.045 45.0444 185.795 44.0744 184.505 43.1644C183.997 42.7783 183.373 42.5772 182.735 42.5944C182.095 42.5944 181.475 42.7843 181.235 43.5143C180.995 44.2443 181.505 44.6944 182.045 45.0344C182.729 45.4585 183.511 45.6963 184.315 45.7244C185.615 45.8144 186.915 45.9144 188.305 45.9844Z" fill="#EEBEB0"/>
<path d="M120.645 240.553C117.309 240.44 113.997 241.155 111.005 242.633C106.715 244.913 104.625 248.633 104.325 253.373C104.307 254.486 104.531 255.589 104.979 256.608C105.428 257.626 106.092 258.535 106.925 259.273C107.598 259.942 108.137 260.733 108.515 261.603C108.955 262.843 109.809 263.894 110.932 264.578C112.056 265.263 113.381 265.54 114.685 265.363C115.685 265.303 116.685 265.133 117.765 264.993C117.252 266.431 116.916 267.925 116.765 269.443C116.525 273.263 117.665 276.443 120.845 278.753C123.255 280.523 125.535 282.483 128.635 283.003C132.805 283.713 138.245 282.143 140.115 276.863C140.376 275.991 140.778 275.167 141.305 274.423C142.805 272.675 143.565 270.412 143.425 268.113C145.466 269.233 147.664 270.042 149.945 270.513C151.688 270.936 153.521 270.796 155.18 270.111C156.839 269.426 158.237 268.233 159.175 266.703C159.504 266.192 159.718 265.615 159.802 265.012C159.887 264.41 159.84 263.796 159.665 263.213C159.229 261.302 159.13 259.329 159.375 257.383C159.493 254.49 158.486 251.663 156.566 249.495C154.646 247.327 151.961 245.986 149.075 245.753C147.965 245.752 146.856 245.822 145.755 245.963C146.221 244.492 146.592 242.992 146.865 241.473C147.214 239.183 146.893 236.841 145.94 234.729C144.987 232.617 143.443 230.827 141.495 229.573C140.376 228.704 139.078 228.091 137.696 227.78C136.313 227.469 134.878 227.467 133.495 227.773C133.262 227.817 133.022 227.799 132.799 227.72C132.576 227.64 132.378 227.504 132.225 227.323C130.065 225.463 127.675 224.323 124.855 225.733C121.725 227.273 119.465 229.533 119.375 233.303C119.339 235.778 119.77 238.238 120.645 240.553V240.553ZM133.745 254.553C133.251 255.507 132.598 256.369 131.815 257.103C131.61 257.363 131.321 257.543 130.998 257.612C130.675 257.681 130.338 257.636 130.045 257.483C129.765 257.308 129.549 257.046 129.43 256.738C129.311 256.43 129.295 256.091 129.385 255.773C129.592 254.782 129.985 253.838 130.545 252.993C129.624 252.767 128.735 252.432 127.895 251.993C127.065 251.443 126.495 250.753 126.835 249.713C127.175 248.673 128.075 248.593 128.975 248.713C129.648 248.822 130.316 248.965 130.975 249.143C131.495 248.263 131.815 247.073 133.155 247.283C134.495 247.493 134.705 248.833 134.935 249.963C135.485 249.963 135.935 249.963 136.425 250.083C136.84 250.118 137.237 250.269 137.571 250.518C137.905 250.767 138.163 251.105 138.315 251.493C138.439 251.846 138.437 252.231 138.309 252.583C138.182 252.935 137.936 253.232 137.615 253.423C137.135 253.783 137.335 254.123 137.385 254.543C137.433 254.768 137.418 255.001 137.34 255.218C137.262 255.434 137.126 255.624 136.946 255.766C136.766 255.909 136.549 255.998 136.321 256.024C136.093 256.05 135.862 256.012 135.655 255.913C134.936 255.593 134.287 255.134 133.745 254.563V254.553Z" fill="white"/>
<path d="M382.464 102.165C381.204 110.165 376.954 115.855 370.464 120.085C369.337 120.87 368.023 121.346 366.654 121.465C362.384 121.835 358.105 121.895 353.835 121.925C340.725 122.025 329.124 126.825 318.054 133.285C314.274 135.485 310.554 137.785 306.714 139.875C303.604 141.575 300.524 143.445 296.834 143.755C295.964 143.825 295.264 144.315 295.334 145.295C295.404 146.275 296.254 146.625 297.084 146.525C307.614 145.315 318.084 147.455 328.534 147.525C338.594 147.605 348.185 145.695 356.955 140.465C362.615 137.085 366.435 132.045 370.015 126.695C371.625 124.285 372.915 121.515 375.705 120.125C376.065 120.265 375.955 120.515 375.895 120.685C371.285 133.195 365.915 145.411 359.815 157.265C358.875 159.065 357.044 159.515 355.664 160.635C352.524 163.175 348.994 162.575 345.554 161.725C332.634 158.535 319.635 159.565 306.625 160.815C299.115 161.535 291.624 162.365 284.104 163.155C283.314 163.235 282.464 163.275 282.104 164.155C281.744 165.035 282.455 165.715 283.035 166.375C289.165 173.505 297.115 177.555 305.895 180.455C313.205 182.875 320.405 183.265 327.645 180.565C332.955 178.565 337.464 175.165 342.304 172.335C346.574 169.845 349.945 165.995 354.645 164.175C355.235 163.945 355.735 163.435 356.505 163.575C350.998 173.802 345.054 183.772 338.674 193.485C336.974 196.065 333.934 196.395 331.284 196.205C324.954 195.725 318.705 194.415 312.335 194.055C301.645 193.435 291.435 196.005 281.225 198.625C277.855 199.485 274.534 200.565 271.074 201.115C270.074 201.265 268.975 201.425 268.755 202.715C268.535 204.005 269.465 204.525 270.345 205.035C279.762 210.665 290.664 213.311 301.614 212.625C312.025 212.09 321.969 208.136 329.904 201.375C331.261 200.02 333.088 199.239 335.005 199.195C330.095 206.195 325.315 212.975 320.525 219.765C319.525 221.185 318.365 222.515 317.525 224.015C315.655 227.265 312.715 228.425 309.205 228.585C305.285 228.765 301.355 229.065 297.445 229.055C287.705 229.005 278.595 231.495 269.785 235.385C266.043 237.18 262.134 238.604 258.114 239.635C257.374 239.805 256.414 239.955 256.424 241.025C256.434 242.095 257.354 242.245 258.104 242.425C261.9 243.369 265.772 243.971 269.674 244.225C274.074 244.515 278.485 244.775 282.885 245.115C291.725 245.805 299.115 242.795 305.315 236.535C307.125 234.725 308.705 232.475 311.815 231.985C309.085 236.055 305.815 239.585 303.885 243.825C301.745 248.475 298.334 250.385 293.454 251.435C286.564 252.905 279.954 255.555 273.454 258.315C265.544 261.675 260.045 267.835 255.135 274.635C253.135 277.385 251.055 280.065 249.135 282.855C248.555 283.685 247.185 284.525 247.885 285.625C248.585 286.725 249.885 285.705 250.815 285.395C262.165 281.535 273.174 276.945 283.294 270.395C283.531 270.289 283.78 270.212 284.035 270.165C277.385 282.165 277.625 295.165 277.845 308.165C277.925 313.025 278.045 317.875 278.125 322.725C278.125 323.505 277.864 324.505 278.794 324.795C279.267 324.897 279.761 324.815 280.175 324.566C280.589 324.318 280.893 323.92 281.024 323.455C282.894 318.785 285.874 314.705 288.024 310.205C290.424 305.155 293.114 300.205 294.864 294.895C298.164 284.815 299.304 274.405 299.514 263.895C299.485 260.925 299.82 257.963 300.514 255.075C301.334 252.075 303.395 249.575 304.945 246.875C305.739 245.251 306.785 243.763 308.044 242.465C307.314 246.095 306.734 249.335 305.984 252.535C304.337 259.108 304.059 265.949 305.166 272.634C306.274 279.319 308.745 285.705 312.424 291.395C316.684 298.255 321.334 304.885 324.994 312.115C325.414 312.945 325.994 313.405 326.904 313.115C327.814 312.825 327.684 312.205 327.604 311.485C326.404 300.315 325.775 289.085 324.025 277.975C322.802 269.524 320.072 261.361 315.964 253.875C314.464 251.215 313.294 248.365 311.964 245.625C310.064 241.815 310.384 238.415 313.044 234.935C318.044 228.335 322.855 221.525 327.885 214.865C326.869 219.172 326.071 223.528 325.494 227.915C324.244 239.265 327.495 249.535 333.075 259.225C335.585 263.585 338.205 267.885 341.075 272.005C341.525 272.655 341.955 273.415 342.955 273.205C343.379 273.088 343.746 272.82 343.987 272.452C344.228 272.084 344.327 271.641 344.265 271.205C344.115 259.875 344.764 248.465 340.854 237.515C339.024 232.405 336.324 227.735 333.744 223.005C332.534 220.785 330.934 218.685 330.654 216.085C330.446 214.481 330.567 212.852 331.009 211.296C331.451 209.74 332.205 208.29 333.224 207.035C337.504 201.485 341.284 195.565 345.344 189.695C346.014 192.945 345.245 196.015 344.585 199.025C340.485 217.835 345.455 234.475 356.585 249.625C359.765 253.965 363.265 258.075 366.645 262.265C367.175 262.935 367.725 263.715 368.815 263.215C369.905 262.715 369.564 261.925 369.464 261.145C368.244 252.055 366.975 242.975 365.825 233.875C364.285 221.755 360.165 210.685 352.575 201.035C349.305 196.865 347.405 192.315 347.885 186.925C347.821 186.275 347.928 185.62 348.195 185.025C352.665 178.335 356.744 171.395 360.904 164.495C360.954 164.405 361.094 164.355 361.244 164.265C361.778 165.698 361.926 167.246 361.674 168.755C361.322 178.34 362.026 187.934 363.775 197.365C364.855 203.655 367.775 209.365 370.575 215.055C373.085 220.235 375.674 225.385 378.244 230.535C378.454 230.998 378.723 231.432 379.044 231.825C380.704 233.625 381.885 233.365 382.525 230.975C386.945 214.545 386.205 198.975 375.435 184.765C372.435 180.895 370.084 176.605 367.494 172.475C366.52 170.937 365.732 169.288 365.145 167.565C364.259 165.238 363.952 162.731 364.25 160.259C364.548 157.787 365.441 155.425 366.854 153.375C369.934 148.585 372.055 143.195 374.645 137.955C374.851 138.379 374.964 138.842 374.974 139.313C374.984 139.785 374.893 140.253 374.705 140.685C373.435 145.595 371.825 150.445 371.255 155.515C369.985 166.825 373.084 176.965 379.534 186.175C383.381 191.386 387.553 196.349 392.025 201.035C392.264 201.308 392.525 201.562 392.804 201.795C393.092 202.13 393.477 202.367 393.905 202.472C394.334 202.578 394.784 202.548 395.195 202.385C396.035 201.985 396.015 201.195 396.195 200.385C398.445 188.205 395.104 177.075 390.064 166.195C387.064 159.635 383.464 153.365 379.814 147.195C378.859 145.488 378.267 143.602 378.075 141.655C377.285 135.465 377.554 129.535 380.724 123.925C381.85 121.665 382.852 119.344 383.724 116.975C384.554 118.455 383.624 119.615 383.724 120.805C384.604 133.965 386.584 146.725 395.304 157.455C401.144 164.635 407.594 171.215 414.054 177.805C416.804 180.605 419.524 183.445 422.284 186.245C422.753 186.903 423.424 187.391 424.195 187.635C425.135 187.795 425.814 187.635 425.654 186.435C425.534 185.495 425.535 184.545 425.325 183.635C422.135 169.495 418.075 155.635 409.635 143.635C404.155 135.795 397.265 129.175 390.385 122.635C385.935 118.385 385.784 113.395 387.184 108.075C388.014 104.935 389.295 101.915 390.505 98.4549C391.22 99.5217 391.663 100.747 391.794 102.025C392.641 108.006 394.01 113.902 395.885 119.645C398.02 125.718 401.492 131.233 406.044 135.785C413.934 144.005 422.664 151.405 430.044 160.175C430.614 160.855 431.305 161.565 432.275 161.175C433.245 160.785 433.275 159.815 433.145 158.925C431.635 149.925 430.144 141.015 426.434 132.565C421.134 120.415 412.594 111.215 401.494 104.205L396.174 100.835C393.764 99.2949 391.934 94.1849 392.744 91.3849C395.264 82.7349 397.974 74.1249 399.554 65.2249C399.634 64.7246 399.687 64.2206 399.714 63.7149C399.849 63.1023 399.746 62.4615 399.427 61.9215C399.108 61.3816 398.596 60.9826 397.994 60.8049C397.399 60.6045 396.752 60.6142 396.163 60.8326C395.573 61.0509 395.076 61.4647 394.755 62.0049C392.755 64.5949 392.465 67.7949 391.755 70.8249C389.755 79.6149 387.755 88.4149 384.755 96.9149C383.985 99.0549 378.874 101.245 376.664 100.615C366.064 97.5449 355.434 94.5549 344.294 94.3649C338.048 94.345 331.81 94.8064 325.635 95.7449C318.996 96.6642 312.295 97.0555 305.594 96.9149C304.684 96.9149 303.854 97.0549 303.474 98.0749C303.044 99.2549 303.795 99.8649 304.575 100.415C308.1 102.841 311.811 104.984 315.674 106.825C321.821 110.001 328.261 112.573 334.904 114.505C344.224 117.065 353.654 117.875 363.034 114.955C369.224 113.035 374.254 109.165 378.684 104.535C379.726 103.44 381.026 102.625 382.464 102.165V102.165ZM313.775 100.165C348.695 96.8649 348.895 96.2749 373.525 102.705C352.945 108.625 333.325 105.205 313.775 100.145V100.165ZM290.505 165.355C309.125 163.975 327.445 160.455 346.505 164.635C327.645 170.555 309.315 173.125 290.505 165.335V165.355ZM311.164 143.065C330.434 140.165 349.305 135.955 366.685 126.405C366.688 126.63 366.668 126.854 366.625 127.075C366.534 127.272 366.423 127.46 366.294 127.635C360.664 135.835 352.725 140.505 343.205 142.895C332.555 145.555 321.914 144.305 311.164 143.045V143.065ZM362.455 125.065C347.135 133.385 330.525 137.755 313.005 139.715C328.185 129.915 343.965 122.795 362.455 125.085V125.065ZM420.244 175.805C417.824 172.155 415.744 168.935 413.604 165.805C407.734 157.155 400.885 149.165 395.755 140.005C393.157 135.533 391.013 130.813 389.354 125.915C404.244 139.615 415.494 155.395 420.244 175.805ZM340.565 169.205L340.765 169.725C339.055 170.795 337.325 171.845 335.645 172.945C328.735 177.465 321.444 180.745 312.924 179.415C306.177 178.309 299.717 175.868 293.924 172.235C291.644 170.835 289.335 169.445 287.695 167.115C305.095 174.495 322.714 174.835 340.594 169.205H340.565ZM399.075 106.765C413.625 114.075 430.074 138.985 428.364 151.485C420.244 135.255 409.554 121.075 399.104 106.765H399.075ZM275.074 204.365C291.747 205.051 308.446 204.14 324.945 201.645C308.805 211.985 292.124 211.775 275.084 204.365H275.074ZM346.594 204.175C350.864 222.355 358.344 238.865 365.474 256.125C351.354 242.335 343.154 217.335 346.604 204.175H346.594ZM281.054 311.855C277.744 292.795 285.214 265.455 295.394 259.595C288.094 276.555 284.244 294.105 281.054 311.855ZM349.164 201.015C361.394 214.835 362.904 232.165 365.294 249.205C358.994 233.445 352.174 217.865 349.164 201.015ZM319.685 105.015C337.245 108.905 354.775 110.865 372.445 106.015C372.545 106.685 372.114 106.775 371.854 107.015C366.747 111.209 360.382 113.572 353.775 113.725C343.945 114.035 334.604 111.725 325.604 108.005C323.498 107.289 321.504 106.275 319.685 104.995V105.015ZM375.775 147.685C376.806 155.822 378.638 163.838 381.244 171.615C383.714 179.225 386.964 186.535 389.974 193.935C376.944 183.115 370.245 161.485 375.775 147.665V147.685ZM422.974 147.685C416.094 141.205 408.604 135.315 403.114 127.465C399.184 121.845 397.454 115.385 396.044 108.805C405.244 121.595 415.554 133.625 422.974 147.695V147.685ZM418.585 178.115C409.785 169.405 400.815 160.925 394.075 150.465C389.975 144.095 388.164 137.005 387.244 129.575C394.484 147.915 408.795 161.535 418.585 178.125V178.115ZM296.875 263.055C296.615 280.255 293.704 296.155 283.954 310.795C287.444 294.445 290.415 278.545 296.875 263.055ZM364.364 176.505C369.484 186.505 378.674 217.815 377.864 222.505C368.924 208.145 363.504 189.715 364.364 176.505ZM341.435 265.505C336.275 252.145 332.174 238.505 331.164 224.195C339.914 236.695 342.025 250.795 341.435 265.535V265.505ZM393.914 195.195C388.664 186.585 379.094 157.455 380.044 152.985C385.614 162.935 390.514 172.985 393.244 183.985C394.108 187.666 394.335 191.467 393.914 195.225V195.195ZM321.375 300.095C310.055 285.475 303.814 263.925 308.494 255.435C309.594 263.245 311.755 270.615 313.895 277.985C316.035 285.355 318.745 292.775 321.375 300.125V300.095ZM311.234 252.095C320.434 265.565 321.324 281.225 323.234 296.615C318.244 282.075 313.244 267.495 311.244 252.125L311.234 252.095ZM280.044 201.915C294.184 197.345 308.555 195.275 323.335 198.385C309.098 201.289 294.564 202.474 280.044 201.915V201.915ZM256.244 277.915C264.944 262.585 279.845 257.735 295.185 253.595C281.575 260.625 268.084 267.735 256.244 277.915ZM257.954 279.485C263.874 273.705 283.675 261.875 291.375 259.385C287.175 266.405 274.775 273.915 257.915 279.525L257.954 279.485ZM370.104 182.485C380.564 196.485 385.225 213.905 380.895 223.025C379.325 208.805 374.745 195.665 370.065 182.535L370.104 182.485ZM302.415 231.745C297.205 234.835 272.584 239.865 266.494 239.095C277.834 233.915 289.655 230.485 302.375 231.795L302.415 231.745ZM302.554 235.515C298.554 239.315 294.104 242.235 288.454 242.695C282.804 243.155 276.964 242.445 271.234 241.695C281.841 240.71 292.321 238.656 302.514 235.565L302.554 235.515ZM328.554 226.165C329.864 237.395 332.785 248.165 336.255 258.875C329.585 250.025 326.044 234.915 328.464 226.215L328.554 226.165Z" fill="#757144" fill-opacity="0.2"/>
<path d="M198.955 257.084C199.605 254.024 201.085 251.254 200.955 248.084C201.008 247.299 200.816 246.516 200.403 245.846C199.991 245.176 199.38 244.651 198.655 244.344C197.115 243.704 195.985 244.644 194.955 245.634C193.405 247.124 193.095 249.124 192.895 251.134C192.835 251.834 192.895 252.554 192.895 253.644C192.125 252.924 191.615 252.464 191.115 251.974C189.315 250.212 187.136 248.884 184.745 248.094C183.801 247.719 182.75 247.717 181.805 248.088C180.859 248.46 180.091 249.177 179.655 250.094C178.775 251.804 179.245 253.314 181.055 254.724C182.993 256.089 185.166 257.086 187.465 257.664C186.915 258.424 186.035 258.514 185.335 258.864C183.328 259.748 181.639 261.224 180.495 263.094C180.024 263.731 179.777 264.506 179.792 265.298C179.806 266.09 180.081 266.855 180.575 267.474C181.059 268.031 181.712 268.414 182.435 268.564C183.157 268.714 183.909 268.623 184.575 268.304C187.692 267.237 190.423 265.271 192.425 262.654C192.965 264.764 192.855 266.834 193.545 268.774C194.022 270.205 194.716 271.555 195.605 272.774C195.925 273.276 196.399 273.661 196.955 273.874C197.511 274.086 198.121 274.114 198.695 273.954C199.3 273.808 199.844 273.477 200.252 273.008C200.661 272.538 200.913 271.953 200.975 271.334C201.181 269.84 200.999 268.317 200.445 266.914C200.255 266.354 200.075 265.784 199.815 265.014C201.555 265.918 203.46 266.462 205.415 266.614C206.113 266.737 206.832 266.624 207.458 266.292C208.085 265.961 208.583 265.43 208.875 264.784C209.465 263.364 208.725 262.154 207.685 261.204C205.581 259.36 203.023 258.11 200.275 257.584C199.795 257.553 199.335 257.379 198.955 257.084V257.084Z" fill="#DB8A4D"/>
<path d="M127.495 132.843C116.655 133.843 109.655 140.193 104.245 148.683C99.8691 155.59 98.021 163.798 99.0148 171.913C100.015 181.333 105.215 187.913 113.165 192.553C116.229 194.377 119.658 195.501 123.206 195.847C126.755 196.193 130.336 195.751 133.695 194.553C136.376 193.623 138.851 192.184 140.985 190.313C145.025 186.873 149.025 183.387 152.985 179.853C155.695 177.554 157.971 174.787 159.705 171.683C159.705 172.833 159.825 173.613 159.805 174.383C159.665 183.383 163.365 190.803 169.325 197.233C174.535 202.843 180.625 207.063 188.225 208.753C193.075 209.823 197.665 209.443 201.625 206.083C205.935 202.423 209.915 198.463 212.695 193.473C215.45 188.318 216.5 182.423 215.695 176.633C214.495 165.493 209.385 156.633 199.605 151.063C193.245 147.413 186.315 145.233 178.795 145.733C177.263 145.847 175.723 145.756 174.215 145.463C177.328 143.519 180.332 141.406 183.215 139.133C194.215 130.213 202.915 119.283 210.395 107.333C214.115 101.647 217.497 95.7467 220.525 89.6634C222.045 86.4634 223.415 83.1834 224.795 79.9034C225.145 79.0734 225.405 77.9835 224.315 77.5535C223.225 77.1235 222.675 78.1134 222.315 79.0334C215.409 95.7428 205.797 111.2 193.865 124.783C190.694 128.384 187.243 131.728 183.545 134.783C181.637 136.404 179.611 137.882 177.485 139.203C178.195 137.743 178.965 136.313 179.615 134.833C184.055 124.743 183.615 114.883 178.155 105.293C173.865 97.7434 167.265 93.0734 159.155 90.5434C151.935 88.3034 144.815 88.5434 138.005 92.1634C137.796 92.2493 137.598 92.3601 137.415 92.4934C131.685 97.6134 126.005 102.883 123.165 110.203C120.835 116.203 121.955 122.203 124.685 127.913C125.455 129.646 126.396 131.298 127.495 132.843V132.843ZM160.915 149.223C157.045 154.153 151.965 157.223 146.465 159.453C140.707 161.945 135.322 165.223 130.465 169.193C129.735 169.763 128.185 170.433 128.875 171.393C129.735 172.583 130.795 171.143 131.545 170.603C136.451 166.96 141.835 164.01 147.545 161.833C153.205 159.713 158.425 156.833 162.335 152.033C162.495 151.843 162.675 151.563 163.065 151.703C162.775 153.003 162.765 154.483 162.115 155.573C160.835 157.693 160.635 160.083 160.165 162.363C159.276 167.442 156.863 172.13 153.245 175.803C148.915 180.103 144.065 183.803 139.425 187.723C131.985 194.023 123.715 195.013 115.035 190.723C111.61 189.137 108.616 186.751 106.305 183.767C103.994 180.782 102.433 177.287 101.755 173.573C100.843 169.196 100.861 164.676 101.806 160.306C102.752 155.935 104.605 151.812 107.245 148.203C112.425 140.963 118.855 135.453 128.465 135.273C128.784 135.244 129.106 135.295 129.4 135.421C129.695 135.546 129.955 135.743 130.155 135.993C132.018 138.21 134.463 139.862 137.215 140.763C145.245 143.073 152.845 146.673 160.915 149.223ZM189.615 149.393C191.774 149.896 193.851 150.7 195.785 151.783C206.995 157.593 213.055 166.783 213.335 179.493C213.593 183.556 212.833 187.619 211.125 191.313C208.405 196.683 203.935 200.453 199.495 204.313C197.756 205.788 195.565 206.625 193.285 206.683C190.404 206.807 187.532 206.291 184.875 205.173C179.493 202.92 174.703 199.457 170.875 195.053C166.875 190.513 163.655 185.523 162.765 179.333C161.415 169.602 162.385 159.689 165.595 150.403C165.781 149.638 166.228 148.962 166.86 148.493C167.492 148.024 168.269 147.79 169.055 147.833C172.775 147.613 176.445 148.513 180.165 148.123C183.371 147.748 186.621 148.184 189.615 149.393V149.393ZM157.165 145.393C156.629 145.254 156.101 145.084 155.585 144.883C150.002 142.204 144.201 140.007 138.245 138.313C137.479 138.118 136.743 137.822 136.055 137.433C130.165 133.823 126.825 128.343 125.125 121.903C124.273 118.987 124.164 115.904 124.809 112.934C125.453 109.965 126.83 107.204 128.815 104.903C131.065 102.173 133.435 99.5234 135.695 96.7934C137.778 94.3848 140.584 92.715 143.695 92.0334C150.415 90.2734 156.605 92.0334 162.695 94.7434C174.215 99.9134 180.605 113.023 179.375 123.793C178.515 131.403 175.925 138.103 169.935 143.153C168.395 144.463 166.585 145.453 164.935 146.693C164.762 146.869 164.553 147.007 164.323 147.096C164.093 147.186 163.847 147.226 163.601 147.214C163.354 147.201 163.113 147.137 162.893 147.025C162.673 146.913 162.48 146.756 162.325 146.563C157.334 142.288 154.1 136.319 153.245 129.803C152.245 122.443 150.355 115.223 149.605 107.803C149.635 107.367 149.554 106.931 149.371 106.534C149.187 106.137 148.907 105.793 148.555 105.533C147.715 106.883 148.055 108.293 148.225 109.613C149.005 115.693 150.945 121.613 151.025 127.783C151.074 128.791 151.198 129.794 151.395 130.783C152.228 136.023 154.197 141.016 157.165 145.413V145.393Z" fill="#CC997D"/>
<path d="M194.845 185.523C195.125 185.053 194.745 184.773 194.485 184.523C193.999 184.054 193.488 183.61 192.955 183.193C188.783 179.793 185.186 175.741 182.305 171.193C180.899 169.008 179.165 167.052 177.165 165.393C173.102 162.108 170.046 157.745 168.345 152.803C168.025 151.903 167.535 151.143 166.555 151.483C165.575 151.823 165.975 152.833 166.155 153.543C167.463 159.04 170.646 163.909 175.155 167.313C177.947 169.425 180.378 171.975 182.355 174.863C185.284 178.944 188.877 182.504 192.985 185.393C194.045 186.163 194.565 186.153 194.845 185.523Z" fill="#CC997D"/>
<path d="M504.475 369.273C508.118 360.723 511.126 351.915 513.475 342.923C517.475 327.813 520.715 312.503 524.295 297.283C527.195 284.903 529.135 272.343 531.365 259.833C533.955 245.283 537.365 230.903 540.365 216.443C542.705 205.343 544.485 194.133 546.685 183.013C548.541 173.186 551.063 163.497 554.235 154.013C554.835 152.293 555.845 150.423 553.905 148.633C552.285 147.143 550.825 147.183 549.675 149.143C548.37 151.677 547.389 154.364 546.755 157.143C542.595 171.573 540.825 186.473 538.845 201.293C536.405 219.463 533.045 237.473 529.585 255.463C527.365 267.033 525.585 278.683 523.045 290.183C520.995 299.463 518.745 308.693 516.715 317.973C514.685 327.253 512.425 336.373 510.055 345.523C508.615 351.103 506.775 356.523 504.865 362.003C503.355 366.273 501.545 370.413 499.655 374.513C495.624 383.2 490.701 391.444 484.965 399.113C477.965 408.613 471.155 418.303 464.475 428.063C464.125 428.583 463.745 429.063 463.475 429.613C463.205 430.163 462.915 430.673 463.605 431.093C464.295 431.513 464.605 430.953 464.855 430.563C466.655 428.213 468.485 425.893 470.205 423.483C476.705 414.356 483.181 405.206 489.635 396.033C493.171 390.865 496.38 385.481 499.245 379.913C501.115 376.403 502.645 372.703 504.475 369.273Z" fill="#7C5F50"/>
<path d="M560.664 212.183C559.073 210.994 557.6 209.655 556.265 208.183C554.402 206.347 552.355 204.708 550.154 203.293C551.541 203.635 552.966 203.796 554.395 203.773C554.832 203.795 555.264 203.673 555.626 203.426C555.987 203.178 556.257 202.819 556.395 202.403C556.655 201.513 556.074 201.013 555.504 200.543C553.142 198.72 550.413 197.431 547.504 196.763C546.274 196.423 545.125 195.933 543.955 195.483C543.437 195.308 542.977 194.994 542.624 194.577C542.272 194.159 542.04 193.653 541.955 193.113C541.235 190.193 539.115 188.243 536.955 186.413C536.395 185.933 535.525 185.413 534.775 186.153C534.025 186.893 534.364 187.633 534.664 188.393C534.964 189.153 535.224 189.713 535.664 190.673C534.014 189.943 532.664 189.343 531.234 188.673C530.234 188.233 529.234 188.143 528.614 189.093C527.994 190.043 528.494 190.973 529.164 191.713C529.734 192.276 530.342 192.797 530.984 193.273C528.025 194.346 525.131 195.588 522.314 196.993C520.56 197.835 518.948 198.945 517.534 200.283C516.274 201.603 515.424 203.013 516.534 204.863C513.737 206.228 511.035 207.778 508.444 209.503C507.928 209.856 507.437 210.243 506.974 210.663C505.824 211.663 504.764 212.793 505.404 214.483C505.698 215.178 506.217 215.753 506.877 216.116C507.538 216.478 508.301 216.608 509.044 216.483C516.984 216.093 524.255 214.113 529.455 207.483C529.637 207.297 529.838 207.13 530.054 206.983C530.124 207.863 529.475 208.233 529.205 208.783C528.935 209.333 528.634 209.903 528.314 210.443C527.004 212.733 527.314 213.543 529.654 214.443C528.335 215.16 526.856 215.534 525.354 215.533C522.669 215.672 520.04 216.352 517.624 217.533C511.391 220.413 505.234 223.447 499.154 226.633C498.441 226.996 497.75 227.4 497.085 227.843C494.535 229.563 494.254 231.273 496.174 233.783C494.664 234.173 493.174 234.533 491.744 234.923C491.297 235.024 490.859 235.161 490.434 235.333C488.974 235.963 487.494 236.703 487.684 238.593C487.874 240.483 489.524 240.673 491.004 240.933C491.274 240.983 491.534 241.073 492.234 241.263C490.884 241.643 489.924 241.883 488.974 242.193C487.924 242.463 486.899 242.828 485.914 243.283C484.474 244.043 483.454 245.223 483.744 247.003C483.861 247.777 484.23 248.491 484.794 249.034C485.359 249.576 486.086 249.917 486.864 250.003C489.51 250.548 492.256 250.333 494.784 249.383C497.86 248.496 500.784 247.148 503.455 245.383C504.535 244.593 506.454 245.073 507.314 245.793C507.888 246.293 508.557 246.671 509.28 246.904C510.004 247.138 510.767 247.223 511.525 247.153C513.859 247.009 516.158 246.514 518.344 245.683C518.684 246.763 518.344 247.223 517.344 247.393C515.661 247.66 513.993 248.01 512.344 248.443C511.64 248.642 510.967 248.938 510.344 249.323C509.779 249.543 509.298 249.936 508.971 250.446C508.644 250.957 508.488 251.558 508.525 252.163C508.685 253.593 509.894 254.213 511.044 254.723C511.926 255.035 512.828 255.286 513.744 255.473C510.689 256.666 507.563 257.668 504.384 258.473C502.954 258.903 501.494 259.243 500.124 259.803C498.754 260.363 497.315 261.333 497.525 263.203C497.735 265.073 499.194 265.623 500.844 265.793L502.674 265.973C503.844 268.843 506.495 267.673 508.775 268.193C506.624 269.019 504.529 269.984 502.504 271.083C501.678 271.689 500.706 272.065 499.687 272.172C498.668 272.279 497.639 272.114 496.705 271.693C493.845 270.563 491.204 271.503 490.064 273.323C488.924 275.143 489.464 277.743 491.614 280.163C493.764 282.583 496.774 284.263 499.684 285.853C499.995 285.998 500.276 286.198 500.515 286.443C498.949 286.523 497.379 286.463 495.825 286.263C489.548 285.051 483.149 284.594 476.765 284.903C475.795 284.934 474.833 285.092 473.904 285.373C470.844 286.293 470.084 289.373 472.444 291.493C474.444 293.363 477.135 294.003 479.775 294.593C484.139 295.452 488.59 295.788 493.034 295.593C490.391 296.982 487.666 298.211 484.874 299.273C483.074 299.963 482.724 301.713 484.094 302.703C484.863 303.202 485.742 303.504 486.654 303.583C486.774 304.283 486.175 304.583 485.895 305.053C485.385 305.813 485.087 306.695 485.032 307.608C484.977 308.521 485.167 309.433 485.582 310.248C485.996 311.063 486.621 311.753 487.392 312.246C488.162 312.739 489.05 313.018 489.964 313.053C492.431 313.155 494.889 312.711 497.164 311.753C498.724 311.193 500.274 310.603 501.944 309.983C502.127 310.948 502.464 311.877 502.944 312.733C498.944 314.673 495.044 316.563 491.154 318.493C489.413 319.358 487.776 320.418 486.275 321.653C484.985 322.713 483.914 323.983 484.554 325.763C485.194 327.543 486.834 327.883 488.484 327.933C491.654 328.033 494.484 326.883 497.414 325.773C497.734 325.653 498.044 325.503 498.464 325.323C498.597 326.008 498.515 326.717 498.23 327.354C497.946 327.991 497.473 328.525 496.874 328.883C491.614 332.603 486.454 336.493 481.124 340.133C479.84 340.989 478.623 341.942 477.484 342.983C474.484 345.753 475.004 348.263 478.934 349.793C474.648 351.737 470.501 353.976 466.525 356.493C465.731 356.948 465.01 357.517 464.385 358.183C463.918 358.659 463.595 359.256 463.453 359.907C463.311 360.557 463.355 361.235 463.581 361.862C463.806 362.488 464.204 363.038 464.728 363.449C465.253 363.86 465.882 364.114 466.544 364.183C470.614 364.913 474.484 363.773 478.354 362.753C479.894 362.343 481.414 361.883 483.054 361.403C482.954 362.223 482.344 362.243 481.944 362.453C480.547 363.107 479.232 363.923 478.025 364.883C474.665 367.773 474.944 370.883 478.964 373.103C476.343 373.022 473.719 373.089 471.104 373.303C461.954 374.363 454.825 378.873 449.265 386.063C448.888 386.568 448.591 387.128 448.384 387.723C447.454 390.383 448.914 392.453 451.744 392.493C453.861 392.438 455.955 392.039 457.944 391.313C465.357 389.126 472.583 386.35 479.554 383.013C479.634 382.963 479.765 383.013 480.015 383.013C479.465 384.283 478.424 385.573 480.224 386.763C476.054 388.003 471.984 388.953 468.094 390.473C466.903 390.878 465.76 391.411 464.684 392.063C464.144 392.413 463.465 392.813 463.395 393.373C463.085 395.623 461.314 395.743 459.694 396.133C456.572 396.867 453.569 398.038 450.775 399.613C449.985 400.063 449.174 400.533 449.104 401.613C449.434 401.92 449.843 402.129 450.284 402.216C450.726 402.302 451.184 402.263 451.604 402.103C455.344 401.353 458.494 399.393 461.604 397.363C462.604 396.683 463.504 396.183 464.814 397.033C466.124 397.883 467.584 397.533 469.004 397.383C471.456 397.001 473.879 396.45 476.254 395.733C473.414 398.223 473.414 398.223 473.914 400.233C472.044 400.743 470.165 401.233 468.325 401.783C457.666 405.094 448.152 411.33 440.864 419.783C440.025 420.713 439.348 421.778 438.864 422.933C438.504 423.625 438.353 424.408 438.431 425.184C438.509 425.961 438.813 426.697 439.304 427.303C439.853 427.895 440.568 428.308 441.355 428.486C442.142 428.665 442.964 428.601 443.714 428.303C445.654 427.733 447.275 426.503 449.455 425.373C447.515 427.463 445.564 428.933 444.254 431.003C443.414 432.343 442.834 433.713 443.874 435.133C444.914 436.553 446.474 436.573 448.064 436.133L449.564 435.713C449.564 436.413 448.994 436.603 448.634 436.903C445.384 439.583 442.294 442.483 438.634 444.663C437.964 445.063 437.634 445.593 437.924 446.363C438.214 447.133 438.984 447.173 439.684 446.993C441.169 446.554 442.574 445.878 443.844 444.993C446.444 443.363 448.744 441.343 451.224 439.533C447.924 444.403 444.834 449.383 441.904 454.463C440.878 456.19 440.281 458.138 440.164 460.143C440.076 460.657 440.141 461.185 440.351 461.661C440.561 462.138 440.906 462.542 441.344 462.823C442.474 463.463 443.474 462.923 444.344 462.303C447.879 459.784 450.991 456.719 453.564 453.223C458.037 447.569 461.993 441.525 465.385 435.163C464.737 438.642 464.279 442.154 464.015 445.683C463.922 446.819 463.976 447.962 464.174 449.083C464.434 450.243 464.894 451.353 466.174 451.573C467.454 451.793 468.364 450.833 468.944 449.723C469.778 447.902 470.337 445.968 470.604 443.983C471.022 441.604 471.883 439.324 473.145 437.263C474.985 434.107 476.461 430.753 477.544 427.263C477.324 430.653 476.545 433.953 475.955 437.263C475.305 441.193 474.414 445.083 474.114 449.073C473.884 452.013 474.604 453.613 476.374 454.303C478.144 454.993 479.925 454.253 481.645 451.833C483.985 448.523 484.704 444.603 485.504 440.763C486.851 434.637 487.598 428.394 487.734 422.123C487.734 421.843 487.664 421.553 488.054 421.303C488.404 423.923 488.424 426.543 489.054 429.083C489.235 429.861 489.476 430.623 489.775 431.363C489.859 431.67 490.042 431.94 490.295 432.133C490.548 432.327 490.856 432.432 491.174 432.433C491.492 432.425 491.798 432.317 492.051 432.125C492.304 431.933 492.491 431.667 492.585 431.363C493.295 429.741 493.705 428.003 493.794 426.233C494.374 420.343 494.274 414.493 492.184 408.853C491.762 407.488 491.787 406.024 492.254 404.673C492.821 402.698 493.127 400.658 493.164 398.603C493.164 396.983 494.634 396.243 495.164 394.823C495.794 395.473 495.424 396.113 495.364 396.663C494.974 400.403 494.364 404.113 494.214 407.873C494.171 409.01 494.228 410.147 494.384 411.273C494.684 413.343 495.904 414.733 497.444 414.993C498.389 415.115 499.347 414.921 500.17 414.442C500.993 413.962 501.634 413.225 501.994 412.343C503.694 409.053 503.994 405.463 504.154 401.873C504.39 398.403 504.229 394.917 503.674 391.483C503.444 390.253 504.334 390.113 504.984 389.383C505.574 391.223 506.074 392.843 506.624 394.453C506.859 395.218 507.174 395.955 507.564 396.653C507.771 397.083 508.099 397.444 508.507 397.691C508.915 397.939 509.386 398.062 509.863 398.046C510.34 398.03 510.802 397.876 511.193 397.602C511.584 397.328 511.887 396.946 512.064 396.503C512.954 394.863 513.064 393.033 513.254 390.973C514.219 392.542 514.991 394.221 515.554 395.973C516.5 399.163 517.844 402.22 519.554 405.073C519.987 405.801 520.507 406.473 521.104 407.073C521.349 407.395 521.686 407.635 522.069 407.762C522.453 407.889 522.866 407.896 523.254 407.783C523.629 407.636 523.954 407.385 524.19 407.059C524.425 406.732 524.562 406.345 524.585 405.943C524.831 404.244 524.729 402.512 524.284 400.853C523.442 396.928 521.718 393.245 519.244 390.083C518.904 389.663 518.384 389.283 518.604 388.403C519.544 389.403 520.394 390.293 521.284 391.163C522.174 392.033 523.285 392.853 524.645 392.313C525.25 392.044 525.77 391.613 526.147 391.068C526.524 390.523 526.745 389.885 526.784 389.223C527.364 385.383 526.024 382.023 524.064 378.853C522.272 376.206 520.023 373.897 517.424 372.033C522.134 370.093 520.214 366.173 520.504 362.733C520.864 363.553 521.224 364.373 521.564 365.193C521.904 366.013 522.324 366.983 522.654 367.903C524.631 373.894 527.367 379.607 530.794 384.903C531.317 385.715 531.917 386.475 532.585 387.173C533.053 387.753 533.684 388.179 534.397 388.397C535.11 388.614 535.872 388.613 536.585 388.393C537.322 388.156 537.981 387.721 538.488 387.136C538.996 386.55 539.334 385.837 539.464 385.073C539.865 383.102 539.755 381.06 539.145 379.143C537.119 372.018 533.268 365.545 527.974 360.363L527.114 359.533C527.054 359.463 527.055 359.333 527.025 359.233C530.825 360.923 532.814 359.313 532.854 354.503C533.694 355.583 534.404 356.503 535.104 357.413C535.963 358.616 536.971 359.705 538.104 360.653C539.924 362.083 541.804 361.383 542.294 359.103C542.627 357.243 542.493 355.329 541.904 353.533C540.616 349.029 538.86 344.672 536.664 340.533C536.204 339.653 535.964 339.003 536.874 338.163C537.295 337.692 537.618 337.141 537.824 336.544C538.03 335.946 538.115 335.314 538.075 334.683C538.075 333.833 538.075 332.983 538.075 332.143C541.165 331.143 542.074 329.683 541.474 326.443C540.874 322.923 539.474 319.663 538.184 316.343C537.865 315.607 537.504 314.889 537.104 314.193L537.585 313.963C538.195 314.963 538.764 315.963 539.414 316.873C540.254 318.103 541.114 319.553 542.924 318.873C544.584 318.283 544.584 316.743 544.534 315.263C544.534 315.003 544.534 314.733 544.534 314.453C545.214 314.453 545.364 314.953 545.614 315.273C548.854 319.273 552.415 322.953 555.955 326.673C556.427 327.166 556.935 327.624 557.474 328.043C558.067 328.546 558.782 328.883 559.548 329.018C560.313 329.153 561.101 329.082 561.829 328.812C562.558 328.542 563.202 328.083 563.695 327.483C564.188 326.882 564.512 326.161 564.634 325.393C565.434 320.893 564.034 316.803 561.994 312.883C561.884 312.683 561.755 312.493 561.645 312.293C560.645 310.503 559.444 309.003 559.554 306.603C559.674 303.923 557.905 301.553 556.645 299.173C556.166 298.381 555.79 297.53 555.525 296.643C557.075 298.003 558.614 299.373 560.184 300.713C561.764 302.118 563.57 303.248 565.525 304.053C566.965 304.623 568.355 304.743 569.525 303.583C570.025 303.058 570.344 302.386 570.434 301.666C570.524 300.946 570.38 300.216 570.025 299.583C569.299 297.965 568.35 296.457 567.205 295.103C562.205 288.803 556.555 283.103 551.205 277.103C549.855 275.459 548.628 273.718 547.534 271.893C552.904 276.153 557.064 275.053 557.244 270.343C557.941 271.799 558.391 273.36 558.575 274.963C558.772 276.267 559.22 277.52 559.895 278.653C560.565 279.653 561.464 280.483 562.754 279.843C564.044 279.203 563.994 278.173 563.754 277.023C563.465 275.907 562.909 274.877 562.134 274.023C560.522 271.898 558.757 269.893 556.854 268.023C553.444 265.023 551.124 261.093 547.854 258.023C547.344 257.543 546.944 257.113 547.294 256.263C547.644 255.413 547.114 254.473 546.664 253.693C545.614 251.873 544.484 250.083 543.404 248.303C543.924 247.813 544.225 247.993 544.575 248.433C545.785 249.963 547.024 251.433 549.154 251.713C549.884 251.803 549.864 252.533 550.094 253.023C553.324 259.783 557.324 266.023 563.164 270.813C564.522 272.138 566.28 272.975 568.164 273.193C568.787 273.25 569.414 273.154 569.992 272.915C570.57 272.676 571.081 272.301 571.482 271.821C571.883 271.342 572.162 270.772 572.295 270.161C572.427 269.55 572.41 268.916 572.244 268.313C571.93 267.153 571.416 266.057 570.724 265.073C568.362 261.574 565.798 258.215 563.044 255.013L559.544 250.593C559.654 250.473 559.714 250.323 559.804 250.313C564.804 249.663 565.434 245.193 563.544 241.783C562.029 239.361 560.262 237.106 558.275 235.053C560.005 234.133 560.274 233.403 559.344 231.493C557.954 228.573 555.805 226.183 553.775 223.723C553.225 223.063 552.714 222.363 552.114 221.723C551.344 220.943 551.674 220.463 552.484 220.003C554.174 221.783 555.814 223.603 557.624 225.253C559.269 226.76 561.192 227.932 563.284 228.703C564.176 229.105 565.173 229.212 566.129 229.009C567.086 228.806 567.953 228.303 568.604 227.573C569.152 226.866 569.471 226.008 569.517 225.114C569.564 224.22 569.336 223.334 568.864 222.573C567.079 219.446 564.871 216.579 562.304 214.053C561.894 213.613 561.304 213.293 561.304 212.533L560.664 212.183ZM519.484 346.393C521.139 350.518 523.259 354.44 525.804 358.083C522.244 355.013 517.914 352.373 519.484 346.393Z" fill="#EEBEB0"/>
<path d="M500.375 252.744C497.145 252.644 494.005 252.414 491.135 253.954C490.049 254.468 489.14 255.293 488.525 256.324C488.308 256.619 488.202 256.981 488.224 257.346C488.246 257.711 488.395 258.057 488.645 258.324C488.9 258.56 489.227 258.702 489.574 258.73C489.92 258.757 490.265 258.667 490.555 258.474C493.835 256.588 497.108 254.678 500.375 252.744Z" fill="#EEBEB0"/>
<path d="M438.925 163.263C439.155 165.703 439.255 167.913 439.585 170.093C440.365 175.223 443.825 178.563 447.585 181.693C454.475 187.443 462.275 190.603 471.365 189.803C479.145 189.103 487.825 181.803 489.985 174.433C490.775 171.703 490.335 169.013 489.855 166.173C498.245 167.553 504.585 163.973 508.025 156.943C509.846 153.411 510.644 149.441 510.33 145.479C510.015 141.518 508.6 137.723 506.245 134.523C506.245 134.523 506.305 134.293 506.405 134.253C511.245 132.253 513.705 128.253 515.265 123.483C516.685 119.143 517.265 114.733 515.975 110.233C515.676 108.731 515.028 107.32 514.085 106.113C508.315 100.023 502.735 93.7031 493.865 91.9331C488.355 90.8231 483.135 91.0731 478.025 94.1831C477.745 91.8331 477.975 89.6531 477.485 87.5131C476.953 85.1036 475.893 82.842 474.383 80.8908C472.872 78.9396 470.948 77.3473 468.749 76.2286C466.55 75.1098 464.13 74.4923 461.663 74.4204C459.197 74.3486 456.745 74.8242 454.485 75.8131C453.754 76.2139 452.949 76.4582 452.119 76.5305C451.289 76.6028 450.453 76.5015 449.665 76.2331C437.785 71.7831 426.525 84.0431 426.495 93.6631C426.495 99.4631 427.335 105.043 430.585 110.303C428.206 110.278 425.827 110.405 423.465 110.683C418.278 111.736 413.54 114.356 409.89 118.188C406.239 122.021 403.854 126.881 403.055 132.113C401.805 140.113 404.055 146.733 410.055 152.043C410.883 152.712 411.452 153.649 411.665 154.693C413.315 163.093 420.435 166.253 427.365 166.093C431.376 165.985 435.317 165.02 438.925 163.263V163.263Z" fill="white"/>
<path d="M461.145 140.204C460.735 140.914 460.425 141.514 460.045 142.074C459.365 143.074 458.645 144.374 457.225 143.874C455.805 143.374 455.815 141.874 455.955 140.554C456.25 138.734 456.873 136.982 457.795 135.384C455.713 134.525 453.803 133.299 452.155 131.764C451.365 130.934 450.245 130.104 451.085 128.864C451.462 128.367 452.002 128.017 452.611 127.877C453.219 127.736 453.857 127.813 454.415 128.094C455.815 128.604 457.165 129.264 458.595 129.884C458.815 127.624 458.425 125.404 459.045 123.244C459.385 122.084 459.705 120.884 461.045 120.744C462.385 120.604 463.045 121.744 463.505 122.744C464.415 124.744 464.445 126.924 464.615 129.194C466.51 128.257 468.582 127.736 470.695 127.664C471.495 127.614 472.285 127.664 472.695 128.464C473.155 129.464 472.405 130.064 471.745 130.544C470.895 131.164 469.925 131.634 468.975 132.194C470.635 133.044 472.245 133.854 473.855 134.694C474 134.747 474.132 134.829 474.245 134.934C474.358 135.039 474.449 135.166 474.512 135.306C474.575 135.447 474.61 135.599 474.614 135.753C474.618 135.907 474.591 136.061 474.535 136.204C474.416 136.488 474.206 136.723 473.938 136.874C473.669 137.024 473.359 137.08 473.055 137.034C472.295 137.034 471.645 136.364 470.775 136.734C471.635 137.814 472.505 138.864 473.305 139.954C473.696 140.345 473.933 140.864 473.971 141.415C474.01 141.966 473.848 142.513 473.515 142.954C472.715 143.904 471.605 143.584 470.515 143.184C468.845 142.544 467.705 141.184 466.045 139.994C466.205 141.374 466.355 142.464 466.465 143.554C466.565 144.012 466.487 144.491 466.248 144.893C466.008 145.296 465.625 145.593 465.175 145.724C464.245 146.004 463.605 145.384 463.085 144.674C462.246 143.275 461.594 141.773 461.145 140.204V140.204Z" fill="#F4ECE9"/>
<path d="M272.095 92.203C259.245 98.673 248.245 106.913 237.365 115.493C211.875 135.493 189.995 159.013 169.065 183.543C168.065 184.743 166.225 185.933 167.335 187.843C168.445 189.753 170.435 189.213 172.135 188.983C180.135 187.923 187.805 185.653 195.585 183.763C213.125 179.51 230.645 175.156 248.145 170.703C258.635 167.879 268.941 164.412 279.005 160.323C290.569 155.935 301.83 150.787 312.715 144.913C326.415 137.179 338.61 127.04 348.715 114.983C355.859 106.385 362.424 97.3218 368.365 87.853C369.515 86.073 369.095 84.773 367.075 84.453C346.245 81.173 325.545 76.453 304.205 80.523C292.94 82.6499 282.095 86.5947 272.095 92.203V92.203Z" fill="#969056"/>
<path d="M222.415 153.134C221.713 153.979 220.836 154.661 219.845 155.134C212.175 159.564 204.475 163.954 196.845 168.384C194.695 169.624 192.585 170.944 190.475 172.264C190.007 172.61 189.571 172.999 189.175 173.424C188.964 173.582 188.823 173.816 188.784 174.076C188.745 174.337 188.81 174.602 188.965 174.814C189.04 174.943 189.141 175.054 189.261 175.142C189.382 175.23 189.519 175.292 189.664 175.325C189.809 175.358 189.96 175.36 190.106 175.333C190.252 175.305 190.391 175.248 190.515 175.164C192.125 174.294 193.775 173.494 195.335 172.524C203.915 167.184 212.725 162.264 221.515 157.274C221.805 157.104 222.125 156.984 222.985 156.584C221.645 158.354 220.635 159.644 219.685 160.964C219.355 161.424 218.975 162.014 219.535 162.544C220.095 163.074 220.845 162.764 221.285 162.294C222.775 160.694 224.285 159.074 225.615 157.384C228.245 154.055 231.586 151.356 235.395 149.484C239.605 147.484 243.685 145.154 247.945 142.904C248.215 143.994 247.625 144.284 247.305 144.684C243.065 149.884 239.155 155.344 235.305 160.834C235.046 161.188 234.812 161.559 234.605 161.944C234.315 162.514 233.755 163.134 234.495 163.694C235.235 164.254 235.685 163.694 236.125 163.134C238.605 160.074 241.125 157.084 243.555 153.964C247.775 148.474 252.045 143.034 257.415 138.574C258.972 137.355 260.705 136.377 262.555 135.674C269.425 132.874 275.775 129.024 282.495 125.914C290.795 122.074 298.825 117.624 307.055 113.624C315.745 109.404 324.535 105.404 333.345 101.284C333.275 102.124 332.595 102.414 332.125 102.894C326.189 108.819 320.587 115.069 315.345 121.614C314.665 122.464 312.985 123.614 314.245 124.614C315.505 125.614 316.415 123.834 317.185 123.014C323.185 116.564 329.025 110.014 335.365 103.844C337.419 101.786 339.603 99.862 341.905 98.0845C344.525 96.1345 347.655 95.2645 350.625 94.1345C358.81 90.9148 367.154 88.1145 375.625 85.7444C387.035 82.7444 398.465 79.7445 410.355 79.3645C411.265 79.3645 412.285 79.2944 412.355 78.1544C412.445 76.8644 411.455 76.4545 410.355 76.3245C406.42 76.0412 402.466 76.3071 398.605 77.1145C385.528 79.3413 372.687 82.776 360.245 87.3745C350.793 90.6286 341.523 94.3873 332.475 98.6345C325.015 102.274 317.085 103.424 308.935 103.344C297.055 103.214 285.205 103.904 273.365 104.774C272.358 104.85 271.357 104.98 270.365 105.164C270.107 105.213 269.879 105.361 269.73 105.576C269.58 105.791 269.521 106.056 269.565 106.314C269.617 106.532 269.749 106.722 269.933 106.847C270.118 106.973 270.343 107.026 270.565 106.994C271.295 106.994 272.025 106.994 272.745 106.924C285.383 105.877 298.066 105.484 310.745 105.744C312.745 105.804 314.805 105.624 316.845 105.564C304.275 111.814 291.755 118.094 279.175 124.254C276.175 125.704 272.945 126.164 269.695 126.604C262.035 127.604 254.295 127.604 246.625 128.434C245.475 128.564 243.445 128.294 243.515 129.654C243.615 131.474 245.515 130.404 246.585 130.364C253.145 130.104 259.685 129.674 266.235 129.364C266.905 129.19 267.615 129.265 268.235 129.574C265.045 131.264 262.055 133.064 258.885 134.474C251.165 137.884 243.755 141.914 236.405 146.024C230.914 149.087 224.845 150.971 218.585 151.554C218.146 151.555 217.71 151.609 217.285 151.714C216.285 152.104 214.345 151.324 214.565 152.974C214.735 154.274 216.565 153.644 217.635 153.604C219.245 153.504 220.745 153.294 222.415 153.134Z" fill="#7C5F50"/>
<path d="M309.045 128.485C307.566 129.962 306.31 131.646 305.315 133.485C305.171 133.702 305.118 133.966 305.166 134.222C305.215 134.478 305.361 134.705 305.575 134.855C305.687 134.951 305.818 135.024 305.959 135.067C306.101 135.11 306.25 135.123 306.397 135.106C306.544 135.088 306.685 135.039 306.812 134.963C306.939 134.887 307.049 134.785 307.135 134.665C308.465 133.045 309.825 131.445 311.135 129.795C311.331 129.57 311.433 129.278 311.42 128.981C311.407 128.683 311.28 128.401 311.065 128.195C310.555 127.645 309.995 127.915 309.045 128.485Z" fill="#7C5F50"/>
<path d="M206.975 152.553C206.275 152.913 205.815 153.193 205.915 153.813C205.943 154.112 206.085 154.389 206.313 154.584C206.54 154.78 206.835 154.88 207.135 154.863C209.022 154.779 210.892 154.467 212.704 153.933C212.886 153.845 213.037 153.703 213.137 153.528C213.237 153.352 213.281 153.15 213.263 152.948C213.246 152.747 213.168 152.556 213.04 152.399C212.911 152.243 212.739 152.129 212.544 152.073C210.674 151.952 208.796 152.114 206.975 152.553V152.553Z" fill="#7C5F50"/>
<path d="M235.395 130.224C234.305 130.624 233.955 131.004 234.045 131.584C234.135 132.164 234.705 132.354 235.225 132.244C237.225 131.844 239.195 131.41 241.135 130.944C241.258 130.934 241.378 130.899 241.487 130.839C241.595 130.78 241.69 130.698 241.764 130.599C241.838 130.501 241.891 130.387 241.918 130.266C241.945 130.146 241.946 130.021 241.921 129.9C241.895 129.779 241.845 129.665 241.772 129.565C241.7 129.465 241.606 129.381 241.499 129.32C241.392 129.259 241.272 129.221 241.149 129.21C241.026 129.199 240.902 129.213 240.785 129.254C238.795 129.594 236.805 129.914 235.395 130.224Z" fill="#7C5F50"/>
<path d="M215.014 167.914C217.014 168.334 217.584 167.314 218.014 166.084C218.04 165.961 218.038 165.833 218.007 165.711C217.976 165.589 217.918 165.476 217.837 165.379C217.756 165.283 217.655 165.206 217.54 165.155C217.425 165.104 217.3 165.079 217.174 165.084C215.614 165.284 215.574 166.654 215.014 167.914Z" fill="#7C5F50"/>
<path d="M560.665 212.184L561.395 212.584C561.482 212.735 561.603 212.864 561.748 212.961C561.893 213.058 562.058 213.121 562.231 213.144C562.404 213.167 562.58 213.151 562.745 213.095C562.911 213.04 563.061 212.947 563.185 212.824C563.765 212.294 563.455 211.554 563.085 210.954C561.875 209.014 559.865 207.954 558.085 206.624C557.511 205.953 556.724 205.501 555.855 205.344C557.666 207.471 559.276 209.76 560.665 212.184V212.184Z" fill="#EEBEB0"/>
<path d="M504.045 254.395C502.475 254.575 500.905 254.715 499.335 254.925C498.704 254.986 498.113 255.266 497.665 255.715C497.408 255.903 497.222 256.171 497.135 256.478C497.048 256.784 497.066 257.11 497.185 257.405C497.535 258.135 498.185 258.095 498.815 257.975C499.597 257.824 500.33 257.481 500.945 256.975C501.965 256.105 502.985 255.305 504.045 254.395Z" fill="#EEBEB0"/>
<path d="M425.76 190.756C415.43 197.006 407.87 205.286 400.76 213.936C392.01 224.566 384.96 236.286 378.69 248.596C371.36 263.006 367.42 278.286 364.69 294.006C363.388 301.406 362.56 308.881 362.21 316.386C361.84 324.546 366.5 328.486 373.33 329.986C381.5 331.776 389.85 332.186 398.2 332.276C415.921 332.584 433.554 329.726 450.27 323.836C456.568 321.535 462.705 318.816 468.64 315.696C473.325 313.329 477.807 310.579 482.041 307.476C498.771 295.076 513.7 281.046 523.14 262.076C528.74 250.606 531.835 238.075 532.221 225.316C532.561 217.176 533.461 209.056 532.221 200.916C530.704 191.199 528.059 181.691 524.34 172.586C524.174 172.244 523.934 171.943 523.639 171.703C523.343 171.463 522.999 171.29 522.63 171.196C509.012 165.635 493.988 164.504 479.69 167.966C476.848 168.47 474.045 169.172 471.3 170.066C463.12 173.156 454.63 175.376 446.75 179.306C439.55 182.736 432.542 186.558 425.76 190.756Z" fill="#EFBE95"/>
<path d="M511.585 196.304C510.455 203.544 509.315 210.654 508.745 217.854C508.287 223.163 507.282 228.411 505.745 233.514C504.085 239.244 502.215 244.924 500.495 250.644C498.485 257.77 497.146 265.068 496.495 272.444C496.385 273.444 496.025 274.874 497.205 275.054C498.605 275.274 498.365 273.644 498.485 272.784C500.285 259.534 504.005 246.784 508.025 234.064C510.335 226.744 511.115 219.144 512.025 211.554C512.715 205.614 513.955 199.764 514.865 193.854C515.475 189.904 518.195 187.384 520.085 184.524C520.39 202.293 518.106 220.013 513.305 237.124C511.544 243.886 510.3 250.773 509.585 257.724C509.515 258.334 509.225 259.024 509.935 259.564C510.935 259.564 511.375 258.934 511.575 258.084C511.895 256.714 512.175 255.314 512.405 253.924C513.865 245.274 515.755 236.734 517.955 228.244C521.025 216.559 522.515 204.515 522.385 192.434C522.385 190.964 522.475 189.484 522.495 188.014C522.505 183.23 524.094 178.583 527.015 174.794C536.015 162.914 544.585 150.744 553.875 139.104C554.514 138.335 555.071 137.5 555.535 136.614C555.842 136.171 556 135.641 555.988 135.102C555.975 134.563 555.792 134.042 555.465 133.614C555.097 133.181 554.604 132.874 554.053 132.736C553.503 132.598 552.923 132.636 552.395 132.844C550.259 133.571 548.378 134.897 546.975 136.664C541.745 142.474 537.705 149.134 533.525 155.664C529.145 162.524 524.875 169.454 520.645 176.394C519.335 178.544 517.065 179.024 515.085 179.914C508.215 183.024 500.895 184.564 493.465 185.534C486.465 186.444 479.775 188.394 473.035 190.244C463.815 192.774 454.345 193.934 444.945 195.514C443.725 195.714 442.505 195.944 441.295 196.184C440.605 196.334 439.745 196.494 439.905 197.434C440.065 198.374 440.905 198.264 441.645 198.244C442.385 198.224 443.055 198.114 443.765 198.044C456.765 196.694 469.455 193.524 482.025 189.944C486.885 188.554 491.875 188.224 496.855 187.734C500.259 187.425 503.64 186.894 506.975 186.144C510.4 185.239 513.726 183.996 516.905 182.434C514.725 186.214 512.565 189.604 510.305 192.934C507.135 197.594 503.675 202.054 500.305 206.534C498.745 208.584 496.415 209.584 494.225 210.704C486.675 214.534 478.505 215.904 470.225 216.524C462.159 217.118 454.165 218.457 446.345 220.524C434.005 223.794 421.345 224.374 408.685 225.634C407.515 225.754 406.335 225.854 405.165 226.004C404.535 226.094 403.875 226.234 403.775 227.144C404.775 228.244 406.045 227.914 407.215 227.884C413.885 227.684 420.495 226.794 427.125 226.184C433.467 225.595 439.757 224.542 445.945 223.034C455.194 220.946 464.571 219.473 474.015 218.624C481.632 217.86 489.043 215.697 495.875 212.244C494.445 214.044 493.025 215.844 491.585 217.624C490.932 218.3 490.324 219.018 489.765 219.774C486.025 226.074 479.905 228.684 473.275 230.524C468.776 231.745 464.189 232.611 459.555 233.114C451.897 234.069 444.336 235.682 436.955 237.934C426.955 240.864 416.665 242.154 406.375 243.514C405.505 243.624 404.635 243.794 403.765 243.954C403.265 244.054 402.915 244.274 402.905 244.894C402.895 245.514 403.385 245.814 403.905 245.834C404.729 245.87 405.554 245.847 406.375 245.764C417.51 244.702 428.524 242.613 439.275 239.524C445.902 237.711 452.68 236.503 459.525 235.914C466.275 235.194 472.935 233.994 479.185 231.144C479.582 231.048 479.987 230.991 480.395 230.974C476.785 234.974 473.465 238.744 469.995 242.404C468.935 243.514 467.265 243.784 465.795 244.124C463.39 244.705 460.957 245.162 458.505 245.494C452.136 246.284 445.851 247.642 439.725 249.554C432.405 251.894 424.835 253.044 417.285 254.244C416.645 254.354 416.025 254.554 415.395 254.684C414.765 254.814 414.395 254.884 414.395 255.504C414.4 255.654 414.435 255.802 414.499 255.938C414.563 256.074 414.653 256.196 414.766 256.296C414.878 256.396 415.009 256.472 415.152 256.52C415.294 256.568 415.445 256.586 415.595 256.574C416.421 256.582 417.247 256.525 418.065 256.404C424.961 255.571 431.775 254.159 438.435 252.184C445.765 249.824 453.345 248.754 460.915 247.654C462.415 247.434 463.915 247.094 465.625 246.764C462.625 249.994 459.365 252.564 456.345 255.414C452.685 258.894 449.015 262.364 445.265 265.754C440.955 269.664 436.355 273.274 432.265 277.374C428.175 281.474 423.405 282.794 418.265 283.744C411.985 284.904 406.185 287.604 400.055 289.194C396.865 290.024 393.615 290.574 390.395 291.194C389.785 291.314 388.705 291.194 388.875 292.254C389.045 293.314 390.015 293.054 390.745 292.954C397.554 291.988 404.252 290.36 410.745 288.094C414.195 286.894 417.805 286.364 421.265 285.314C421.555 285.834 421.175 286.034 420.925 286.214C416.995 289.044 413.075 291.884 409.125 294.684C404.345 298.064 399.555 301.427 394.755 304.774C394.195 305.164 393.835 305.634 394.215 306.244C394.595 306.854 395.215 306.554 395.725 306.184C401.155 301.884 407.075 298.284 412.655 294.184C415.655 291.944 418.985 290.044 421.955 287.684C426.575 284.034 431.385 280.634 435.825 276.744C439.105 273.884 442.545 271.214 446.145 268.274C445.795 270.227 445.239 272.138 444.485 273.974C443.24 277.36 441.538 280.56 439.425 283.484C436.062 288.193 433.284 293.293 431.155 298.674C429.425 303.054 426.675 306.814 424.255 310.784C423.795 311.534 422.565 312.584 423.845 313.334C425.125 314.084 425.505 312.574 426.025 311.794C428.994 307.605 431.493 303.101 433.475 298.364C435.429 293.545 438.066 289.032 441.305 284.964C444.723 280.49 447.174 275.355 448.505 269.884C449.315 266.704 450.215 263.574 453.315 261.884C453.515 264.764 451.015 275.374 449.255 279.084C447.713 282.261 445.857 285.276 443.715 288.084C441.849 290.599 440.363 293.376 439.305 296.324C439.126 296.882 439.011 297.459 438.965 298.044C438.965 298.444 439.185 298.694 439.585 298.774C439.728 298.814 439.881 298.806 440.02 298.752C440.159 298.698 440.276 298.6 440.355 298.474C440.421 298.376 440.478 298.272 440.525 298.164C442.525 291.924 447.015 287.164 450.145 281.534C452.492 277.486 454.002 273.007 454.585 268.364C454.956 265.906 455.457 263.469 456.085 261.064C456.674 258.944 457.973 257.091 459.765 255.814C470.095 247.314 478.765 237.204 487.225 226.944C491.705 221.524 496.095 216.024 500.765 210.664C499.765 213.884 498.765 217.094 497.765 220.324C496.955 222.735 496.304 225.197 495.815 227.694C494.345 237.404 491.305 246.694 488.295 255.954C485.551 264.836 483.777 273.99 483.005 283.254C482.755 285.724 482.375 288.174 482.075 290.644C481.975 291.434 481.625 292.544 482.725 292.694C483.825 292.844 483.875 291.694 483.985 290.884C484.725 285.671 485.442 280.457 486.135 275.244C487.258 267.329 489.336 259.579 492.325 252.164C495.222 244.785 497.382 237.138 498.775 229.334C500.305 220.644 503.215 212.284 506.005 203.924C506.875 201.294 509.265 199.504 510.785 197.204C511.035 196.889 511.302 196.589 511.585 196.304V196.304Z" fill="#7C5F50"/>
</svg>
