<svg width="8" height="115" viewBox="0 0 8 115" fill="none" xmlns="http://www.w3.org/2000/svg">
<path d="M2.66667 58.3404C2.66663 58.0916 2.74432 57.8532 2.88224 57.6789C3.02017 57.5047 3.20674 57.4091 3.4 57.4137C3.62898 57.4121 3.84746 57.5371 4 57.7569C4.15254 57.5371 4.37102 57.4121 4.6 57.4137C4.79326 57.4091 4.97983 57.5047 5.11776 57.6789C5.25568 57.8532 5.33337 58.0916 5.33333 58.3404C5.33333 59.2595 4.4828 59.9535 4 60.5027C3.51827 59.9489 2.66667 59.2602 2.66667 58.3404Z" fill="#2E3A59"/>
<path d="M5.33333 54.2399C5.33337 54.4887 5.25568 54.7271 5.11776 54.9014C4.97983 55.0757 4.79326 55.1713 4.6 55.1667C4.37102 55.1682 4.15254 55.0432 4 54.8234C3.84746 55.0432 3.62898 55.1682 3.4 55.1667C3.20674 55.1713 3.02017 55.0757 2.88224 54.9014C2.74432 54.7271 2.66663 54.4887 2.66667 54.2399C2.66667 53.3208 3.5172 52.6268 4 52.0776C4.48173 52.6314 5.33333 53.3201 5.33333 54.2399Z" fill="#2E3A59"/>
<path d="M2.05323 54.886C2.28946 54.886 2.51578 54.9678 2.68128 55.113C2.84678 55.2583 2.93756 55.4548 2.93318 55.6583C2.93467 55.8994 2.81599 56.1295 2.60727 56.2902C2.81599 56.4508 2.93467 56.6809 2.93318 56.922C2.93756 57.1256 2.84678 57.3221 2.68128 57.4673C2.51578 57.6126 2.28946 57.6944 2.05323 57.6943C1.18044 57.6943 0.521455 56.7986 0 56.2902C0.525854 55.7828 1.17979 54.886 2.05323 54.886Z" fill="#2E3A59"/>
<path d="M5.94677 57.6943C5.71054 57.6944 5.48422 57.6126 5.31872 57.4673C5.15322 57.3221 5.06244 57.1256 5.06682 56.922C5.06533 56.6809 5.18401 56.4508 5.39273 56.2902C5.18401 56.1295 5.06533 55.8994 5.06682 55.6583C5.06244 55.4548 5.15322 55.2583 5.31872 55.113C5.48422 54.9678 5.71054 54.886 5.94677 54.886C6.81956 54.886 7.47855 55.7817 8 56.2902C7.47415 56.7975 6.82021 57.6943 5.94677 57.6943Z" fill="#2E3A59"/>
<path d="M4.8 56.2902C4.8 56.7555 4.44183 57.1327 4 57.1327C3.55817 57.1327 3.2 56.7555 3.2 56.2902C3.2 55.8249 3.55817 55.4477 4 55.4477C4.44183 55.4477 4.8 55.8249 4.8 56.2902Z" fill="#2E3A59"/>
<path d="M3.03448 49.1724V48.8483H3.35632L3.83908 0L4.64368 48.8483H4.95211L4.96552 49.1724H4.32184V48.3622H3.67816V49.1724H3.03448Z" fill="#2E3A59"/>
<path d="M3.03448 62.8269V63.151H3.35632L4 114.5L4.64368 63.151H4.95211L4.96552 62.8269H4.32184V63.6371H3.67816V62.8269H3.03448Z" fill="#2E3A59"/>
</svg>
